<?xml version="1.0" encoding="utf-8"?>
<!-- Generator: Adobe Illustrator 16.0.0, SVG Export Plug-In . SVG Version: 6.00 Build 0)  -->
<!DOCTYPE svg PUBLIC "-//W3C//DTD SVG 1.1//EN" "http://www.w3.org/Graphics/SVG/1.1/DTD/svg11.dtd">
<svg version="1.1" id="Layer_1" xmlns="http://www.w3.org/2000/svg" xmlns:xlink="http://www.w3.org/1999/xlink" x="0px" y="0px"
	 width="102.189px" height="21.505px" viewBox="0 0 102.189 21.505" enable-background="new 0 0 102.189 21.505"
	 xml:space="preserve">
<g>
	<path fill="#76B82A" d="M7.682,13.603c0.543,0,1.019-0.165,1.425-0.495c0.407-0.329,0.632-0.739,0.676-1.235h1.442
		c-0.028,0.512-0.204,0.998-0.527,1.459c-0.324,0.463-0.757,0.83-1.298,1.104s-1.114,0.412-1.718,0.412
		c-1.216,0-2.182-0.405-2.897-1.216c-0.717-0.812-1.075-1.92-1.075-3.326v-0.255c0-0.868,0.159-1.64,0.479-2.316
		c0.316-0.675,0.774-1.2,1.371-1.574C6.156,5.787,6.86,5.6,7.674,5.6c1,0,1.831,0.3,2.493,0.898s1.017,1.376,1.061,2.332H9.783
		C9.739,8.254,9.521,7.78,9.128,7.409C8.735,7.038,8.25,6.853,7.674,6.853c-0.773,0-1.375,0.279-1.801,0.836
		c-0.426,0.558-0.639,1.364-0.639,2.418v0.289c0,1.027,0.211,1.818,0.635,2.373C6.292,13.326,6.896,13.603,7.682,13.603z"/>
	<path fill="#76B82A" d="M14.595,14.682h-1.524V2.024h1.524V14.682z"/>
	<path fill="#76B82A" d="M17.043,3.4c0-0.247,0.075-0.456,0.229-0.626c0.149-0.17,0.375-0.255,0.671-0.255
		c0.297,0,0.521,0.085,0.676,0.255s0.231,0.379,0.231,0.626s-0.077,0.453-0.231,0.618s-0.379,0.247-0.676,0.247
		c-0.296,0-0.521-0.083-0.671-0.247C17.118,3.853,17.043,3.647,17.043,3.4z M18.691,14.682h-1.524V5.765h1.524V14.682z"/>
	<path fill="#76B82A" d="M24.707,13.603c0.543,0,1.021-0.165,1.425-0.495c0.407-0.329,0.634-0.739,0.678-1.235h1.44
		c-0.026,0.512-0.204,0.998-0.525,1.459c-0.324,0.463-0.759,0.83-1.3,1.104s-1.112,0.412-1.718,0.412
		c-1.214,0-2.18-0.405-2.896-1.216c-0.719-0.812-1.075-1.92-1.075-3.325v-0.255c0-0.868,0.159-1.64,0.478-2.316
		c0.318-0.675,0.776-1.199,1.372-1.573c0.598-0.374,1.301-0.562,2.114-0.562c1,0,1.831,0.3,2.493,0.898s1.015,1.376,1.059,2.332
		h-1.44c-0.044-0.577-0.264-1.052-0.655-1.421c-0.393-0.371-0.877-0.557-1.454-0.557c-0.775,0-1.375,0.279-1.801,0.836
		c-0.426,0.558-0.64,1.364-0.64,2.418v0.289c0,1.027,0.212,1.818,0.636,2.373C23.317,13.326,23.921,13.603,24.707,13.603z"/>
	<path fill="#76B82A" d="M32.454,10.552l-0.956,0.998v3.132h-1.522V2.024h1.522V9.68l0.816-0.98l2.775-2.935h1.854L33.476,9.49
		l3.873,5.191H35.56L32.454,10.552z"/>
	<path fill="#76B82A" d="M44.766,3.606v2.159h1.664v1.178h-1.664v5.537c0,0.357,0.071,0.625,0.222,0.805
		c0.149,0.18,0.401,0.27,0.759,0.27c0.176,0,0.417-0.033,0.727-0.1v1.229c-0.4,0.108-0.791,0.164-1.172,0.164
		c-0.682,0-1.193-0.206-1.539-0.618c-0.348-0.412-0.521-0.997-0.521-1.756v-5.53h-1.623V5.765h1.623V3.606H44.766z"/>
	<path fill="#76B82A" d="M47.806,10.141c0-0.874,0.172-1.659,0.515-2.356c0.344-0.698,0.821-1.236,1.435-1.615
		c0.612-0.38,1.312-0.57,2.097-0.57c1.215,0,2.194,0.42,2.944,1.261c0.75,0.841,1.125,1.958,1.125,3.354v0.107
		c0,0.867-0.166,1.646-0.499,2.336c-0.332,0.688-0.808,1.227-1.425,1.61c-0.618,0.385-1.329,0.577-2.131,0.577
		c-1.209,0-2.188-0.422-2.938-1.262s-1.125-1.953-1.125-3.338L47.806,10.141L47.806,10.141z M49.339,10.324
		c0,0.987,0.229,1.781,0.688,2.381s1.072,0.897,1.842,0.897c0.774,0,1.39-0.304,1.846-0.911c0.456-0.605,0.687-1.457,0.687-2.55
		c0-0.978-0.232-1.771-0.696-2.377c-0.465-0.606-1.081-0.911-1.851-0.911c-0.753,0-1.359,0.299-1.821,0.898
		C49.57,8.35,49.339,9.207,49.339,10.324z"/>
	<path fill="#76B82A" d="M67.518,13.8c-0.595,0.697-1.464,1.047-2.612,1.047c-0.95,0-1.674-0.276-2.171-0.828
		c-0.497-0.553-0.749-1.369-0.754-2.452V5.765h1.522v5.76c0,1.354,0.551,2.027,1.648,2.027c1.164,0,1.938-0.434,2.323-1.303V5.765
		H69v8.917h-1.45L67.518,13.8z"/>
	<path fill="#76B82A" d="M72.76,5.765l0.052,1.121C73.491,6.029,74.381,5.6,75.48,5.6c1.884,0,2.835,1.063,2.852,3.189v5.892h-1.522
		v-5.9c-0.008-0.644-0.153-1.118-0.441-1.427c-0.288-0.308-0.737-0.461-1.348-0.461c-0.494,0-0.93,0.132-1.304,0.396
		c-0.374,0.264-0.665,0.609-0.873,1.039v6.354H71.32V5.765H72.76z"/>
	<path fill="#76B82A" d="M81.141,14.682V6.944h-1.409V5.765h1.409V5.007c0-0.994,0.282-1.77,0.853-2.324
		c0.568-0.555,1.372-0.833,2.41-0.833c0.615,0,1.393,0.167,2.332,0.503l-0.255,1.285c-0.688-0.273-1.341-0.412-1.962-0.412
		c-0.653,0-1.124,0.147-1.413,0.441c-0.288,0.294-0.435,0.734-0.435,1.322v0.774h1.821v1.178h-1.821v7.738h-1.53V14.682
		L81.141,14.682z M87.495,14.682h-1.533V5.765h1.533V14.682z"/>
	<path fill="#76B82A" d="M92.967,9.02l1.979-3.255h1.78l-2.918,4.408l3.008,4.509h-1.765l-2.061-3.337l-2.061,3.337h-1.771
		l3.008-4.509L89.25,5.765h1.766L92.967,9.02z"/>
</g>
</svg>
