<?xml version="1.0" encoding="utf-8"?>
<!-- Generator: Adobe Illustrator 16.0.0, SVG Export Plug-In . SVG Version: 6.00 Build 0)  -->
<!DOCTYPE svg PUBLIC "-//W3C//DTD SVG 1.1//EN" "http://www.w3.org/Graphics/SVG/1.1/DTD/svg11.dtd">
<svg version="1.1" id="Layer_1" xmlns="http://www.w3.org/2000/svg" xmlns:xlink="http://www.w3.org/1999/xlink" x="0px" y="0px"
	 width="102.189px" height="27.018px" viewBox="0 0 102.189 27.018" enable-background="new 0 0 102.189 27.018"
	 xml:space="preserve">
<g enable-background="new    ">
	<path fill="#E30613" d="M25.162,13.939c0.55,0,1.031-0.166,1.442-0.501c0.411-0.333,0.639-0.748,0.683-1.249h1.458
		c-0.028,0.516-0.206,1.007-0.533,1.474c-0.328,0.468-0.765,0.838-1.312,1.117c-0.548,0.279-1.126,0.416-1.738,0.416
		c-1.227,0-2.204-0.41-2.928-1.229c-0.725-0.819-1.087-1.94-1.087-3.363v-0.259c0-0.876,0.161-1.657,0.484-2.34
		c0.322-0.682,0.785-1.212,1.387-1.59c0.601-0.377,1.314-0.565,2.136-0.565c1.011,0,1.851,0.303,2.52,0.907
		c0.669,0.605,1.026,1.392,1.07,2.358h-1.458c-0.044-0.583-0.266-1.062-0.663-1.437c-0.396-0.375-0.887-0.562-1.47-0.562
		c-0.783,0-1.39,0.282-1.82,0.846c-0.431,0.564-0.646,1.379-0.646,2.445v0.292c0,1.039,0.213,1.838,0.641,2.4
		C23.758,13.659,24.368,13.939,25.162,13.939z"/>
	<path fill="#E30613" d="M32.152,15.031h-1.541V2.235h1.541V15.031z"/>
	<path fill="#E30613" d="M34.625,3.625c0-0.25,0.077-0.46,0.23-0.633c0.153-0.173,0.379-0.258,0.679-0.258
		c0.299,0,0.527,0.085,0.683,0.258c0.155,0.172,0.233,0.383,0.233,0.633s-0.079,0.458-0.233,0.625
		c-0.156,0.167-0.384,0.25-0.683,0.25c-0.3,0-0.526-0.083-0.679-0.25C34.702,4.084,34.625,3.875,34.625,3.625z M36.292,15.031
		h-1.541V6.016h1.541V15.031z"/>
	<path fill="#E30613" d="M42.374,13.939c0.55,0,1.031-0.166,1.442-0.501c0.411-0.333,0.639-0.748,0.683-1.249h1.458
		c-0.028,0.516-0.206,1.007-0.533,1.474c-0.328,0.468-0.765,0.838-1.312,1.117c-0.548,0.279-1.126,0.416-1.738,0.416
		c-1.227,0-2.204-0.41-2.928-1.229c-0.725-0.819-1.087-1.94-1.087-3.363v-0.259c0-0.876,0.161-1.657,0.484-2.34
		c0.321-0.684,0.784-1.214,1.387-1.591c0.602-0.378,1.314-0.568,2.136-0.568c1.011,0,1.851,0.304,2.52,0.908
		c0.669,0.604,1.027,1.391,1.071,2.357h-1.458c-0.045-0.583-0.265-1.063-0.662-1.437c-0.397-0.375-0.888-0.562-1.471-0.562
		c-0.783,0-1.391,0.282-1.821,0.846c-0.43,0.564-0.645,1.379-0.645,2.446v0.291c0,1.039,0.213,1.838,0.641,2.4
		C40.969,13.659,41.58,13.939,42.374,13.939z"/>
	<path fill="#E30613" d="M50.205,10.857l-0.967,1.008v3.166h-1.541V2.235h1.541v7.738l0.825-0.991l2.808-2.966h1.875l-3.507,3.766
		l3.916,5.249h-1.808L50.205,10.857z"/>
	<path fill="#E30613" d="M62.653,3.833v2.184h1.683v1.191h-1.683v5.597c0,0.362,0.074,0.633,0.226,0.813
		c0.148,0.18,0.404,0.271,0.766,0.271c0.179,0,0.422-0.032,0.734-0.1v1.243c-0.406,0.111-0.801,0.165-1.184,0.165
		c-0.688,0-1.207-0.208-1.559-0.624c-0.349-0.417-0.525-1.008-0.525-1.775V7.208H59.47V6.016h1.641V3.833H62.653z"/>
	<path fill="#E30613" d="M65.727,10.441c0-0.884,0.173-1.678,0.52-2.382c0.348-0.707,0.831-1.25,1.45-1.634
		c0.618-0.383,1.326-0.574,2.12-0.574c1.228,0,2.219,0.425,2.977,1.274c0.759,0.849,1.137,1.981,1.137,3.391v0.108
		c0,0.877-0.168,1.664-0.504,2.362c-0.337,0.697-0.817,1.239-1.441,1.628c-0.625,0.388-1.343,0.582-2.151,0.582
		c-1.224,0-2.214-0.425-2.972-1.274c-0.758-0.851-1.137-1.975-1.137-3.373L65.727,10.441L65.727,10.441z M67.276,10.624
		c0,1,0.232,1.802,0.696,2.408c0.464,0.606,1.084,0.907,1.862,0.907c0.782,0,1.404-0.307,1.865-0.92
		c0.46-0.614,0.691-1.473,0.691-2.58c0-0.987-0.234-1.79-0.705-2.403c-0.47-0.613-1.092-0.92-1.869-0.92
		c-0.762,0-1.376,0.303-1.841,0.908C67.51,8.63,67.276,9.495,67.276,10.624z"/>
	<path fill="#E30613" d="M80.605,15.031V7.208h-1.424V6.016h1.424V5.249c0-1.004,0.287-1.789,0.863-2.349
		c0.574-0.561,1.388-0.841,2.437-0.841c0.622,0,1.408,0.169,2.358,0.508l-0.259,1.299C85.31,3.589,84.648,3.45,84.021,3.45
		c-0.661,0-1.136,0.148-1.429,0.445c-0.291,0.296-0.437,0.743-0.437,1.337v0.783h1.842v1.191h-1.842v7.824H80.605L80.605,15.031z
		 M87.029,15.031h-1.55V6.016h1.55V15.031z"/>
	<path fill="#E30613" d="M92.562,9.307l2-3.291h1.799l-2.95,4.457l3.041,4.557h-1.783l-2.083-3.374l-2.083,3.374h-1.791l3.04-4.557
		l-2.949-4.457h1.783L92.562,9.307z"/>
</g>
</svg>
