<?xml version="1.0" encoding="utf-8"?>
<!-- Generator: Adobe Illustrator 16.0.0, SVG Export Plug-In . SVG Version: 6.00 Build 0)  -->
<!DOCTYPE svg PUBLIC "-//W3C//DTD SVG 1.1//EN" "http://www.w3.org/Graphics/SVG/1.1/DTD/svg11.dtd">
<svg version="1.1" id="Layer_1" xmlns="http://www.w3.org/2000/svg" xmlns:xlink="http://www.w3.org/1999/xlink" x="0px" y="0px"
	 width="580.609px" height="102.634px" viewBox="0 0 580.609 102.634" enable-background="new 0 0 580.609 102.634"
	 xml:space="preserve">
<g>
	<path fill="#FFFFFF" d="M35.999,102.634c-10.637,0-19.296-3.261-25.977-9.787C3.34,86.322,0,77.629,0,66.77v-1.877
		c0-7.284,1.408-13.798,4.223-19.541c2.816-5.742,6.805-10.167,11.966-13.273c5.162-3.106,11.05-4.659,17.665-4.659
		c9.921,0,17.731,3.129,23.429,9.385c5.698,6.257,8.547,15.128,8.547,26.614v7.91H19.642c0.625,4.738,2.514,8.537,5.665,11.396
		c3.151,2.861,7.139,4.291,11.966,4.291c7.463,0,13.295-2.704,17.497-8.112l9.519,10.659c-2.905,4.112-6.838,7.318-11.798,9.62
		C47.529,101.483,42.032,102.634,35.999,102.634z M33.787,43.038c-3.844,0-6.961,1.302-9.352,3.906
		c-2.391,2.604-3.922,6.33-4.592,11.178h26.949v-1.549c-0.09-4.309-1.252-7.642-3.486-9.999
		C41.071,44.216,37.898,43.038,33.787,43.038z"/>
	<path fill="#FFFFFF" d="M104.444,50.412l12.201-21.653h20.714l-20.647,35.53l21.519,37.004h-20.781l-12.938-22.792L91.64,101.293
		H70.791L92.31,64.289l-20.581-35.53h20.782L104.444,50.412z"/>
	<path fill="#FFFFFF" d="M180.062,102.634c-10.637,0-19.296-3.261-25.977-9.787c-6.682-6.524-10.022-15.217-10.022-26.077v-1.877
		c0-7.284,1.408-13.798,4.223-19.541c2.816-5.742,6.805-10.167,11.966-13.273c5.162-3.106,11.05-4.659,17.665-4.659
		c9.921,0,17.731,3.129,23.429,9.385c5.698,6.257,8.547,15.128,8.547,26.614v7.91h-46.188c0.625,4.738,2.514,8.537,5.665,11.396
		c3.151,2.861,7.139,4.291,11.966,4.291c7.463,0,13.295-2.704,17.497-8.112l9.519,10.659c-2.905,4.112-6.838,7.318-11.798,9.62
		C191.592,101.483,186.095,102.634,180.062,102.634z M177.85,43.038c-3.844,0-6.961,1.302-9.352,3.906
		c-2.391,2.604-3.922,6.33-4.592,11.178h26.949v-1.549c-0.09-4.309-1.252-7.642-3.486-9.999
		C185.134,44.216,181.961,43.038,177.85,43.038z"/>
	<path fill="#FFFFFF" d="M261.646,46.926c-2.637-0.357-4.961-0.536-6.972-0.536c-7.33,0-12.134,2.48-14.413,7.441v47.462h-19.374
		V28.759h18.301l0.537,8.648c3.888-6.659,9.273-9.989,16.156-9.989c2.145,0,4.156,0.291,6.033,0.872L261.646,46.926z"/>
	<path fill="#FFFFFF" d="M299.857,87.015c3.575,0,6.48-0.982,8.715-2.95c2.234-1.966,3.396-4.581,3.486-7.843h18.167
		c-0.045,4.917-1.386,9.418-4.022,13.508s-6.246,7.263-10.826,9.52c-4.582,2.256-9.643,3.385-15.184,3.385
		c-10.369,0-18.548-3.295-24.536-9.888c-5.989-6.591-8.983-15.697-8.983-27.317v-1.274c0-11.172,2.972-20.088,8.916-26.748
		c5.943-6.659,14.1-9.989,24.468-9.989c9.072,0,16.346,2.581,21.82,7.743c5.475,5.162,8.257,12.033,8.347,20.614h-18.167
		c-0.09-3.773-1.252-6.84-3.486-9.199c-2.234-2.359-5.185-3.539-8.849-3.539c-4.515,0-7.922,1.646-10.223,4.935
		c-2.302,3.29-3.452,8.628-3.452,16.013V66c0,7.476,1.14,12.847,3.419,16.114C291.746,85.381,295.208,87.015,299.857,87.015z"/>
	<path fill="#FFFFFF" d="M341.152,9.989c0-2.905,0.973-5.296,2.916-7.173C346.013,0.939,348.661,0,352.012,0
		c3.308,0,5.943,0.939,7.911,2.816c1.965,1.877,2.949,4.268,2.949,7.173c0,2.95-0.995,5.363-2.983,7.24
		c-1.989,1.877-4.615,2.815-7.877,2.815c-3.263,0-5.889-0.938-7.877-2.815C342.146,15.352,341.152,12.938,341.152,9.989z
		 M361.733,101.293h-19.44V28.759h19.44V101.293z"/>
	<path fill="#FFFFFF" d="M416.972,81.25c0-2.369-1.174-4.234-3.52-5.598c-2.347-1.363-6.112-2.581-11.297-3.654
		c-17.251-3.62-25.876-10.949-25.876-21.988c0-6.436,2.67-11.809,8.011-16.122c5.34-4.312,12.324-6.469,20.949-6.469
		c9.207,0,16.568,2.168,22.089,6.502c5.519,4.335,8.279,9.967,8.279,16.894h-19.374c0-2.771-0.895-5.062-2.682-6.871
		c-1.787-1.81-4.581-2.715-8.379-2.715c-3.264,0-5.789,0.737-7.576,2.212c-1.787,1.475-2.681,3.352-2.681,5.631
		c0,2.146,1.016,3.878,3.05,5.196c2.033,1.318,5.464,2.458,10.291,3.418c4.826,0.962,8.893,2.045,12.2,3.251
		c10.233,3.754,15.352,10.257,15.352,19.508c0,6.615-2.839,11.966-8.514,16.056c-5.677,4.089-13.005,6.133-21.988,6.133
		c-6.079,0-11.476-1.083-16.189-3.251c-4.716-2.167-8.413-5.139-11.095-8.916C375.341,86.691,374,82.613,374,78.232h18.368
		c0.178,3.442,1.452,6.079,3.821,7.911c2.368,1.833,5.541,2.749,9.52,2.749c3.709,0,6.513-0.704,8.413-2.112
		C416.021,85.372,416.972,83.529,416.972,81.25z"/>
	<path fill="#FFFFFF" d="M481.663,102.634c-10.637,0-19.296-3.261-25.978-9.787c-6.682-6.524-10.021-15.217-10.021-26.077v-1.877
		c0-7.284,1.408-13.798,4.223-19.541c2.816-5.742,6.805-10.167,11.967-13.273c5.162-3.106,11.05-4.659,17.664-4.659
		c9.922,0,17.731,3.129,23.43,9.385c5.699,6.257,8.547,15.128,8.547,26.614v7.91h-46.188c0.625,4.738,2.514,8.537,5.664,11.396
		c3.15,2.861,7.139,4.291,11.967,4.291c7.463,0,13.295-2.704,17.496-8.112l9.52,10.659c-2.906,4.112-6.838,7.318-11.799,9.62
		S487.696,102.634,481.663,102.634z M479.451,43.038c-3.845,0-6.962,1.302-9.352,3.906c-2.392,2.604-3.922,6.33-4.592,11.178h26.948
		v-1.549c-0.09-4.309-1.252-7.642-3.485-9.999C486.734,44.216,483.562,43.038,479.451,43.038z"/>
	<path fill="#FFFFFF" d="M561.771,81.25c0-2.369-1.172-4.234-3.52-5.598c-2.346-1.363-6.111-2.581-11.295-3.654
		c-17.252-3.62-25.877-10.949-25.877-21.988c0-6.436,2.67-11.809,8.012-16.122c5.34-4.312,12.322-6.469,20.949-6.469
		c9.205,0,16.568,2.168,22.088,6.502c5.52,4.335,8.279,9.967,8.279,16.894h-19.373c0-2.771-0.895-5.062-2.682-6.871
		c-1.789-1.81-4.582-2.715-8.379-2.715c-3.264,0-5.789,0.737-7.576,2.212c-1.787,1.475-2.682,3.352-2.682,5.631
		c0,2.146,1.016,3.878,3.051,5.196c2.033,1.318,5.463,2.458,10.289,3.418c4.828,0.962,8.895,2.045,12.201,3.251
		c10.234,3.754,15.352,10.257,15.352,19.508c0,6.615-2.838,11.966-8.514,16.056c-5.676,4.089-13.006,6.133-21.988,6.133
		c-6.078,0-11.475-1.083-16.189-3.251c-4.715-2.167-8.412-5.139-11.094-8.916c-2.682-3.776-4.023-7.854-4.023-12.234h18.369
		c0.178,3.442,1.451,6.079,3.82,7.911c2.369,1.833,5.541,2.749,9.52,2.749c3.709,0,6.514-0.704,8.414-2.112
		C560.822,85.372,561.771,83.529,561.771,81.25z"/>
</g>
</svg>
