<?xml version="1.0" encoding="utf-8"?>
<!-- Generator: Adobe Illustrator 16.0.0, SVG Export Plug-In . SVG Version: 6.00 Build 0)  -->
<!DOCTYPE svg PUBLIC "-//W3C//DTD SVG 1.1//EN" "http://www.w3.org/Graphics/SVG/1.1/DTD/svg11.dtd">
<svg version="1.1" id="Layer_1" xmlns="http://www.w3.org/2000/svg" xmlns:xlink="http://www.w3.org/1999/xlink" x="0px" y="0px"
	 width="400px" height="28.055px" viewBox="-67.332 -2.361 400 28.055" enable-background="new -67.332 -2.361 400 28.055"
	 xml:space="preserve">
<metadata><?xpacket begin="﻿" id="W5M0MpCehiHzreSzNTczkc9d"?>
<x:xmpmeta xmlns:x="adobe:ns:meta/" x:xmptk="Adobe XMP Core 5.3-c011 66.145661, 2012/02/06-14:56:27        ">
   <rdf:RDF xmlns:rdf="http://www.w3.org/1999/02/22-rdf-syntax-ns#">
      <rdf:Description rdf:about=""
            xmlns:dc="http://purl.org/dc/elements/1.1/">
         <dc:format>image/svg+xml</dc:format>
         <dc:title>
            <rdf:Alt>
               <rdf:li xml:lang="x-default">Print</rdf:li>
            </rdf:Alt>
         </dc:title>
      </rdf:Description>
      <rdf:Description rdf:about=""
            xmlns:xmp="http://ns.adobe.com/xap/1.0/"
            xmlns:xmpGImg="http://ns.adobe.com/xap/1.0/g/img/">
         <xmp:MetadataDate>2019-04-13T21:54:54+02:00</xmp:MetadataDate>
         <xmp:ModifyDate>2019-04-13T21:54:54+02:00</xmp:ModifyDate>
         <xmp:CreateDate>2019-04-13T21:54:54+02:00</xmp:CreateDate>
         <xmp:CreatorTool>Adobe Illustrator CS6 (Macintosh)</xmp:CreatorTool>
         <xmp:Thumbnails>
            <rdf:Alt>
               <rdf:li rdf:parseType="Resource">
                  <xmpGImg:width>256</xmpGImg:width>
                  <xmpGImg:height>20</xmpGImg:height>
                  <xmpGImg:format>JPEG</xmpGImg:format>
                  <xmpGImg:image>/9j/4AAQSkZJRgABAgEASABIAAD/7QAsUGhvdG9zaG9wIDMuMAA4QklNA+0AAAAAABAASAAAAAEA&#xA;AQBIAAAAAQAB/+4ADkFkb2JlAGTAAAAAAf/bAIQABgQEBAUEBgUFBgkGBQYJCwgGBggLDAoKCwoK&#xA;DBAMDAwMDAwQDA4PEA8ODBMTFBQTExwbGxscHx8fHx8fHx8fHwEHBwcNDA0YEBAYGhURFRofHx8f&#xA;Hx8fHx8fHx8fHx8fHx8fHx8fHx8fHx8fHx8fHx8fHx8fHx8fHx8fHx8fHx8f/8AAEQgAFAEAAwER&#xA;AAIRAQMRAf/EAaIAAAAHAQEBAQEAAAAAAAAAAAQFAwIGAQAHCAkKCwEAAgIDAQEBAQEAAAAAAAAA&#xA;AQACAwQFBgcICQoLEAACAQMDAgQCBgcDBAIGAnMBAgMRBAAFIRIxQVEGE2EicYEUMpGhBxWxQiPB&#xA;UtHhMxZi8CRygvElQzRTkqKyY3PCNUQnk6OzNhdUZHTD0uIIJoMJChgZhJRFRqS0VtNVKBry4/PE&#xA;1OT0ZXWFlaW1xdXl9WZ2hpamtsbW5vY3R1dnd4eXp7fH1+f3OEhYaHiImKi4yNjo+Ck5SVlpeYmZ&#xA;qbnJ2en5KjpKWmp6ipqqusra6voRAAICAQIDBQUEBQYECAMDbQEAAhEDBCESMUEFURNhIgZxgZEy&#xA;obHwFMHR4SNCFVJicvEzJDRDghaSUyWiY7LCB3PSNeJEgxdUkwgJChgZJjZFGidkdFU38qOzwygp&#xA;0+PzhJSktMTU5PRldYWVpbXF1eX1RlZmdoaWprbG1ub2R1dnd4eXp7fH1+f3OEhYaHiImKi4yNjo&#xA;+DlJWWl5iZmpucnZ6fkqOkpaanqKmqq6ytrq+v/aAAwDAQACEQMRAD8AJtD0afV7yS1gdY3jgnuC&#xA;z1pxt4mlYbA7kLtnW5MggLLqIxtGQ+TddutOsL2wt3vvr4mZYLdGeRFhlERLgDoWYUyB1EQSCapl&#xA;4ZIBCL0v8uvMmpH0YYHjvFuZLWW2lilT0zFEJSzvwKCoYACtem1DXIT1UI9dqtMcUihfLPk/Udf1&#xA;ptIimgs7tGKOt2/pnkpPJFUBnZhxOwGSzZxCPFuR5IhjMjS/RvJ8urac1zb6haLd8J5ItNZ2M7R2&#xA;yc5GIRWWPb7PqFeXbHJn4TRBrv8Aescdjm3N5Ttv8PXWtWusW11FaGFJoFjuY39Sc0CKZYkRmADE&#xA;8T0GIznjETEi/cvBtdo7S/yx8xXtnFdvG0Ud1YXGoWShGd5fQ+zFxFKNKCClK7EHIT1kAa7iAWUc&#xA;JI+CTJ5S80PdXNomlXb3Nmoa6hWFy0YYVXkAO43HjlvjwoGxRYcEu5STy5r76fHqSadcNYSsEjuh&#xA;E/psxbiAGpTdtvnth8WF1YtHAaukRceTPNlu8CT6RdxPdSelbq0TgvJueKinWik4BqMZ5SGyTjl3&#xA;JOQQSDsRsRlrBNfLvl86zLeKbuKyhsbZry4uJhIyiNHSM0ESuxNZB2yrLl4K2uzTOEbTpvyx1xra&#xA;6ls2XUWijtJ7RbNHkFxBeGULIvIIy8fQNQy5T+cjYvbnz6VX62fgnoksXlLzRNHFJFpV08c0jQxM&#xA;sTkNIpZWQbdVMbVHahy454DqGHhy7m4vKHmmW6ubSLSLt7qzAN1CsMheMMKryAH7Q3Xx7YnPAAHi&#xA;FFfDl3NW3lfXZbe1vHsp4tNupUhS+aJvSq78AeVKdcTmiCRYsdFEDz6LdS8vX1pqOrWkSNdRaRO8&#xA;F1cIp4gLKYVdhvxDMNsMMoIB5cSmBBPk3L5V8yxQXU8ml3Sw2TcLuX0n4xMByIc02oDU+GAZoEgW&#xA;N14JdyaWn5b+arjTby6+oXKXNsYPSsvRcyTJOZAXX2T0vDvlctXAECxRtkMMq5JOPLmvmxnvxp1z&#xA;9StWMdxcek/CNlNGDGm3E9fDLfFhdWLLDgNXSvp3lm7v9D1DV4ri3WHThylt2k/0hhyReSxgE8ay&#xA;j4jQeGCeYRkI0d/kkQsE9yT5awTry75Zl1mO9uXu4bDT9PVGvL245cE9VuEahUV2LMem2U5c3BQq&#xA;yWcIW3P5N14ald2NhAdWNmFeW406tzCUYclYOg7+HXEaiNAn0337JOM3Q3Q7+WfMKaadTfTbldOC&#xA;q5uzE3pcWPEHnSnXbJeNC+GxaOA1dbKreT/Nazw27aReLPOjSwRGGQM6KKsVFKmld8Hj46viC+HL&#xA;uVLfyb5iaW0+s2Fxa2l1cpafXJIm9NXeT0tzsNm98B1EN6IJAtIxnuUR5Y1ifWL3S9OtpdQnsZXj&#xA;k9CNmNEk9PmVFaAnD40RESJq0cBugsh8seY51umi0u6cWJK3nGFz6TDqH22I8MJzQFbjdeA9yLHk&#xA;vX7gwDTbSfUPWtobmT0IZf3Yn5cFbkor/dn4h8J8ch+YgPqNbp8M9G5fIfmuOxsbv9HzONRmkt7e&#xA;FEcy+pEKkMlNqhWI/wBVvDEanHZF8l8KVckov9PvtPu5LO+gktrqI0kglUo61FRUHxBqMujISFg2&#xA;GBBHNH+VNbh0bWY7y4ha4tWjmt7mFDxYxTxNE/EnoQHqMrz4zONDmyhKjbI/8daLaaLcaLp0F19U&#xA;/R89nbTzFBK0tzcLM7SBDxVaJxAFcx/y0jLiNXYPyDZ4oAodyaz/AJq6LLqUNybS5ES6it7IP3fL&#xA;0v0aliwHxU5ckLeFO+VDRSAqx9Nf7K2fji/j+imHeUNdsNA83Wmrsks1laSyMqAL6pRkZFrvxr8Q&#xA;rvmXnxmeMx6lpxyEZWmHlTzZpGiaVdxtDdPd3UcsNxbq6GzuVeNli9dW+JfSLkjh19shnwSnIcqH&#xA;zHu97KExEJXqOuW0nlvTNEso3jit3kur93oPWupPhDAAn4Y4wFX6cshjPGZH3D3MDLYAJ/pPnjRr&#xA;Ly5BZvDc/pKDTdR0wOnD0f8ATZGljkryDgqzUO2UT00jO9q4on5NkcgArrRTiz/NrSowsUtrOiRp&#xA;ZOlykdtJMJ7SH0m/vxIoB6q4+JfpyqWhl39/f1PkzGcICL8ydMFvHcS2tw2piyTTGi5R/VfRS4E3&#xA;rBQFPq0WgFAK75M6SV1Yq78+THxh8eSMsfP0QTzZrLyjjeytJolvLIGuYrp0eJXWMFuKrDO1W6bU&#xA;G+Qlpvoj3c+6v7QyGX6j8nmObJxU/wDKHmdvL0up3Eak3F3Yva2zcI5FWRpY3DOkgKlaRnscoz4f&#xA;Eodxtsxz4bR1j5+vPq1+dSlmuL27udPmSZOKhY7GSRygA4hftjiAKZCWmFjh5AS+1kMp3vyTW4/M&#xA;fSbnWrG5mtrlrC3fU3lgqvW/uJpY24cuD8FlAZW2PyyoaSQiRYv0/YAyOUX8/tR0f5neWxqDzyWt&#xA;49t6Nogt+FsEd7RGTlwUKIWoRxeIjj040pkDo51Vi9+/r9/xZeNG0LbfmN5fh8viwFjOl00MEUrU&#xA;ikHKC5E4PrOfWIIqApNF7DfJHSTM7vb9le5AyiqSnR/O1jZeedT1u4tXuNJ1SW5a4sjTm0c0hmjB&#xA;341Vwp65bk05OIRB9UaYRyASJ6FMrb80Y30Ke1v4ZP0k314xzwx2ziQ35LOHeZHeMVah4faXbamV&#xA;nR+qxy27+jIZtt+e/wBrf/KwtDub7W3v0v1tdSl0+W3+rugkjFirVU8mpRmO1Pnj+VkBGqscX2r4&#xA;oJN3vTrz8yNHvNK1aG4spzd373rW0dY/ThN4/IMkqhJlpt6ibq53NK4x0khIUdhX2fZ+pTmBBYno&#xA;mswWGna1ayIzvqdqtvEy0orLPHLVqnpSPtmVkxmRie4/oaoyoHzSjLWDJPKXmTT9MtdR0/Uopnst&#xA;R9B/WtuBmimtZDJE6rKODDchlPUZj58RkQY8xf2tsJgWCy23/NfREvbofUZoLR2tZbaeOK0ef1bV&#xA;CpdkkQxKzk1DL9k9PDMU6KVDfffv6tozi0qf8x7cymUQTH/cQbARNw4fWDe/WeZC8V48fh2A+VMt&#xA;/KH/AGV/CqYeL936Uy1X81tMuTcSWsFzA91De1QJbRiK4u4PSVlkiVJHoftOxrQDYnfKoaKQq62r&#xA;v5As5ZwUPYfmL5fttBt7I2lyLtEsVnk4wuGazukuGb1WPrEPxIVK8V7DvkpaSZkTYrf7RXuQMoAr&#xA;3IHy7rWiS3nm+71CaS2tNRgdo0ieNLhvVu0fhGHPFmC9R4VyeXHICAG5Hy5MYSHqvqmifmppEuot&#xA;e3VndIbS9N9p0UMiUkb6tHbhLkmnaLkWFepGVnRSAoEbij872ZeOLtLX/MGyOmx2yQTRyrHpSMyc&#xA;VWunSSvJSjdG9Ucflln5U3f9b7aY+KK+X2Ir/lYehvewXbxXsMsGo6ncr6QgYG31LejLJyV2UqFZ&#xA;COJFd8j+VlVbfTHv/hT4ov4n7WK+cNasNY1uS9sLdra29OONI3O/7tApIQFljBpsimgzJwYzCNE2&#xA;WrJIE2Hp/wD1jb/n+lM1v+Gfjhcr9z+Ld/1jb/n+lMf8M/HCv7n8W7/rG3/P9KY/4Z+OFf3P4t3/&#xA;AFjb/n+lMf8ADPxwr+5/Fu/6xt/z/SmP+GfjhX9z+Ld/1jb/AJ/pTH/DPxwr+5/Fu/6xt/z/AEpj&#xA;/hn44V/c/i3f9Y2/5/pTH/DPxwr+5/Fu/wCsbf8AP9KY/wCGfjhX9z+Ld/1jb/n+lMf8M/HCv7n8&#xA;W7/rG3/P9KY/4Z+OFf3P4t3/AFjb/n+lMf8ADPxwr+5/Fu/6xt/z/SmP+GfjhX9z+Ld/1jb/AJ/p&#xA;TH/DPxwr+5/Fu/6xt/z/AEpj/hn44V/c/i3f9Y2/5/pTH/DPxwr+5/Fu/wCsbf8AP9KY/wCGfjhX&#xA;9z+Ld/1jb/n+lMf8M/HCv7n8W7/rG3/P9KY/4Z+OFf3P4t3/AFjb/n+lMf8ADPxwr+5/Fu/6xt/z&#xA;/SmP+GfjhX9z+Ld/1jb/AJ/pTH/DPxwr+5/Fu/6xt/z/AEpj/hn44V/c/i3f9Y2/5/pTH/DPxwr+&#xA;5/Fu/wCsbf8AP9KY/wCGfjhX9z+Ld/1jb/n+lMf8M/HCv7n8W7/rG3/P9KY/4Z+OFf3P4t3/AFjb&#xA;/n+lMf8ADPxwr+5/Fu/6xt/z/SmP+GfjhX9z+Ld/1jb/AJ/pTH/DPxwr+5/Fu/6xt/z/AEpj/hn4&#xA;4V/c/i3f9Y2/5/pTH/DPxwr+5/Fv/9k=</xmpGImg:image>
               </rdf:li>
            </rdf:Alt>
         </xmp:Thumbnails>
      </rdf:Description>
      <rdf:Description rdf:about=""
            xmlns:xmpMM="http://ns.adobe.com/xap/1.0/mm/"
            xmlns:stRef="http://ns.adobe.com/xap/1.0/sType/ResourceRef#"
            xmlns:stEvt="http://ns.adobe.com/xap/1.0/sType/ResourceEvent#">
         <xmpMM:InstanceID>xmp.iid:0380117407206811822AB51A6D4001DF</xmpMM:InstanceID>
         <xmpMM:DocumentID>xmp.did:0380117407206811822AB51A6D4001DF</xmpMM:DocumentID>
         <xmpMM:OriginalDocumentID>uuid:5D20892493BFDB11914A8590D31508C8</xmpMM:OriginalDocumentID>
         <xmpMM:RenditionClass>proof:pdf</xmpMM:RenditionClass>
         <xmpMM:DerivedFrom rdf:parseType="Resource">
            <stRef:instanceID>uuid:47196d6c-ba57-9242-9231-7a99ff26ff55</stRef:instanceID>
            <stRef:documentID>xmp.did:0280117407206811822AB51A6D4001DF</stRef:documentID>
            <stRef:originalDocumentID>uuid:5D20892493BFDB11914A8590D31508C8</stRef:originalDocumentID>
            <stRef:renditionClass>proof:pdf</stRef:renditionClass>
         </xmpMM:DerivedFrom>
         <xmpMM:History>
            <rdf:Seq>
               <rdf:li rdf:parseType="Resource">
                  <stEvt:action>saved</stEvt:action>
                  <stEvt:instanceID>xmp.iid:0280117407206811822AB51A6D4001DF</stEvt:instanceID>
                  <stEvt:when>2019-04-13T21:44:43+02:00</stEvt:when>
                  <stEvt:softwareAgent>Adobe Illustrator CS6 (Macintosh)</stEvt:softwareAgent>
                  <stEvt:changed>/</stEvt:changed>
               </rdf:li>
               <rdf:li rdf:parseType="Resource">
                  <stEvt:action>saved</stEvt:action>
                  <stEvt:instanceID>xmp.iid:0380117407206811822AB51A6D4001DF</stEvt:instanceID>
                  <stEvt:when>2019-04-13T21:54:54+02:00</stEvt:when>
                  <stEvt:softwareAgent>Adobe Illustrator CS6 (Macintosh)</stEvt:softwareAgent>
                  <stEvt:changed>/</stEvt:changed>
               </rdf:li>
            </rdf:Seq>
         </xmpMM:History>
      </rdf:Description>
      <rdf:Description rdf:about=""
            xmlns:illustrator="http://ns.adobe.com/illustrator/1.0/">
         <illustrator:StartupProfile>Print</illustrator:StartupProfile>
      </rdf:Description>
      <rdf:Description rdf:about=""
            xmlns:xmpTPg="http://ns.adobe.com/xap/1.0/t/pg/"
            xmlns:stDim="http://ns.adobe.com/xap/1.0/sType/Dimensions#"
            xmlns:xmpG="http://ns.adobe.com/xap/1.0/g/">
         <xmpTPg:HasVisibleOverprint>False</xmpTPg:HasVisibleOverprint>
         <xmpTPg:HasVisibleTransparency>False</xmpTPg:HasVisibleTransparency>
         <xmpTPg:NPages>1</xmpTPg:NPages>
         <xmpTPg:MaxPageSize rdf:parseType="Resource">
            <stDim:w>400.000000</stDim:w>
            <stDim:h>28.055176</stDim:h>
            <stDim:unit>Pixels</stDim:unit>
         </xmpTPg:MaxPageSize>
         <xmpTPg:PlateNames>
            <rdf:Seq>
               <rdf:li>Cyan</rdf:li>
               <rdf:li>Magenta</rdf:li>
            </rdf:Seq>
         </xmpTPg:PlateNames>
         <xmpTPg:SwatchGroups>
            <rdf:Seq>
               <rdf:li rdf:parseType="Resource">
                  <xmpG:groupName>Default Swatch Group</xmpG:groupName>
                  <xmpG:groupType>0</xmpG:groupType>
               </rdf:li>
            </rdf:Seq>
         </xmpTPg:SwatchGroups>
      </rdf:Description>
      <rdf:Description rdf:about=""
            xmlns:pdf="http://ns.adobe.com/pdf/1.3/">
         <pdf:Producer>Adobe PDF library 10.01</pdf:Producer>
      </rdf:Description>
   </rdf:RDF>
</x:xmpmeta>
                                                                                                    
                                                                                                    
                                                                                                    
                                                                                                    
                                                                                                    
                                                                                                    
                                                                                                    
                                                                                                    
                                                                                                    
                                                                                                    
                                                                                                    
                                                                                                    
                                                                                                    
                                                                                                    
                                                                                                    
                                                                                                    
                                                                                                    
                                                                                                    
                                                                                                    
                                                                                                    
                           
<?xpacket end="w"?>
	</metadata>
<g id="Layer_1_1_">
</g>
<g id="Layer_2">
	<rect x="-67.332" y="-2.361" fill="#4362AC" width="400" height="28.055"/>
	<g enable-background="new    ">
		<path fill="#FFFFFF" d="M-49.064,5.212v8.161c0,1.298-0.415,2.325-1.246,3.083s-1.937,1.137-3.317,1.137
			c-1.398,0-2.508-0.373-3.33-1.12c-0.822-0.746-1.233-1.782-1.233-3.107V5.212h2.114v8.17c0,0.816,0.207,1.439,0.621,1.87
			c0.414,0.431,1.023,0.646,1.829,0.646c1.633,0,2.449-0.861,2.449-2.584V5.212H-49.064z"/>
		<path fill="#FFFFFF" d="M-45.105,8.349l0.059,1.049c0.671-0.811,1.552-1.216,2.642-1.216c1.89,0,2.852,1.082,2.886,3.247v5.997
			h-2.039v-5.88c0-0.576-0.125-1.003-0.373-1.279c-0.249-0.277-0.656-0.416-1.221-0.416c-0.822,0-1.434,0.373-1.837,1.116v6.459
			h-2.038V8.349H-45.105z"/>
		<path fill="#FFFFFF" d="M-37.438,5.992c0-0.313,0.1-0.573,0.298-0.78c0.199-0.207,0.482-0.311,0.852-0.311
			s0.654,0.104,0.855,0.311c0.201,0.207,0.302,0.467,0.302,0.78c0,0.308-0.101,0.563-0.302,0.768s-0.486,0.306-0.855,0.306
			s-0.653-0.102-0.852-0.306C-37.339,6.556-37.438,6.3-37.438,5.992z M-35.274,17.425h-2.039V8.349h2.039V17.425z"/>
		<path fill="#FFFFFF" d="M-30.501,6.143v2.206h1.602V9.86h-1.602v5.065c0,0.347,0.068,0.598,0.206,0.751
			c0.137,0.154,0.381,0.23,0.734,0.23c0.235,0,0.472-0.027,0.713-0.084V17.4c-0.464,0.129-0.912,0.193-1.342,0.193
			c-1.565,0-2.349-0.864-2.349-2.592V9.86h-1.493V8.349h1.493V6.143H-30.501z"/>
		<path fill="#FFFFFF" d="M-17.676,17.425h-2.03V7.614l-2.995,1.021V6.923l4.765-1.753h0.26V17.425z"/>
		<path fill="#FFFFFF" d="M-11.075,10.387h1.241c0.626-0.005,1.123-0.168,1.489-0.486c0.366-0.318,0.549-0.78,0.549-1.384
			c0-0.582-0.152-1.033-0.458-1.354C-8.557,6.841-9.022,6.68-9.649,6.68c-0.548,0-0.998,0.158-1.351,0.474
			c-0.352,0.316-0.528,0.729-0.528,1.237h-2.038c0-0.626,0.166-1.196,0.499-1.711c0.333-0.515,0.797-0.916,1.392-1.204
			c0.596-0.288,1.263-0.432,2.001-0.432c1.219,0,2.177,0.306,2.873,0.918c0.696,0.612,1.044,1.464,1.044,2.554
			c0,0.548-0.175,1.064-0.524,1.548c-0.35,0.483-0.801,0.849-1.355,1.095c0.671,0.229,1.181,0.59,1.531,1.082
			s0.524,1.079,0.524,1.762c0,1.096-0.376,1.968-1.128,2.616c-0.752,0.649-1.74,0.974-2.965,0.974c-1.174,0-2.136-0.313-2.886-0.939
			s-1.124-1.46-1.124-2.5h2.039c0,0.537,0.18,0.973,0.541,1.309c0.36,0.336,0.846,0.503,1.455,0.503
			c0.632,0,1.129-0.167,1.493-0.503c0.363-0.336,0.545-0.822,0.545-1.459c0-0.644-0.19-1.139-0.571-1.485
			c-0.38-0.347-0.945-0.52-1.694-0.52h-1.199V10.387z"/>
		<path fill="#FFFFFF" d="M4.46,6.345l-4.882,11.081h-2.139L2.313,6.848h-6.316V5.212H4.46V6.345z"/>
		<path fill="#FFFFFF" d="M13.058,6.143v2.206h1.602V9.86h-1.602v5.065c0,0.347,0.068,0.598,0.206,0.751
			c0.137,0.154,0.381,0.23,0.734,0.23c0.235,0,0.472-0.027,0.713-0.084V17.4c-0.464,0.129-0.912,0.193-1.342,0.193
			c-1.565,0-2.349-0.864-2.349-2.592V9.86H9.526V8.349h1.493V6.143H13.058z"/>
		<path fill="#FFFFFF" d="M18.225,9.339c0.666-0.772,1.507-1.158,2.525-1.158c1.935,0,2.916,1.104,2.944,3.313v5.931h-2.039v-5.854
			c0-0.627-0.136-1.07-0.407-1.33c-0.271-0.26-0.67-0.391-1.195-0.391c-0.816,0-1.426,0.364-1.829,1.091v6.484h-2.038V4.541h2.038
			V9.339z"/>
		<path fill="#FFFFFF" d="M29.751,17.593c-1.292,0-2.339-0.407-3.142-1.221c-0.803-0.813-1.204-1.897-1.204-3.25v-0.252
			c0-0.906,0.175-1.716,0.524-2.429c0.349-0.713,0.84-1.268,1.472-1.665s1.337-0.596,2.114-0.596c1.235,0,2.19,0.394,2.864,1.183
			s1.011,1.904,1.011,3.347v0.821h-5.93c0.062,0.75,0.312,1.343,0.75,1.778c0.439,0.437,0.991,0.654,1.657,0.654
			c0.934,0,1.694-0.377,2.282-1.132l1.099,1.049c-0.363,0.542-0.849,0.963-1.455,1.262C31.187,17.444,30.506,17.593,29.751,17.593z
			 M29.507,9.817c-0.559,0-1.011,0.196-1.354,0.588s-0.563,0.937-0.659,1.636h3.884v-0.151c-0.045-0.683-0.227-1.198-0.545-1.548
			C30.514,9.993,30.072,9.817,29.507,9.817z"/>
		<path fill="#FFFFFF" d="M34.59,12.803c0-0.889,0.176-1.69,0.528-2.402c0.353-0.714,0.847-1.262,1.485-1.645
			c0.638-0.383,1.37-0.575,2.198-0.575c1.225,0,2.219,0.394,2.982,1.183s1.176,1.834,1.237,3.137l0.008,0.479
			c0,0.895-0.172,1.694-0.516,2.398c-0.344,0.705-0.836,1.25-1.477,1.636s-1.38,0.579-2.219,0.579c-1.28,0-2.305-0.427-3.074-1.279
			s-1.153-1.989-1.153-3.41V12.803z M36.629,12.98c0,0.934,0.193,1.665,0.579,2.193s0.923,0.792,1.61,0.792
			c0.688,0,1.223-0.268,1.606-0.805c0.383-0.537,0.575-1.322,0.575-2.357c0-0.917-0.197-1.644-0.591-2.181
			c-0.395-0.537-0.93-0.806-1.606-0.806c-0.666,0-1.194,0.265-1.585,0.793S36.629,11.928,36.629,12.98z"/>
		<path fill="#FFFFFF" d="M49.505,10.211c-0.269-0.045-0.545-0.066-0.831-0.066c-0.934,0-1.563,0.357-1.887,1.073v6.207h-2.039
			V8.349h1.946l0.05,1.015c0.492-0.789,1.174-1.183,2.046-1.183c0.291,0,0.531,0.039,0.722,0.117L49.505,10.211z"/>
		<path fill="#FFFFFF" d="M53.967,14.506l1.845-6.157h2.173l-3.607,10.452c-0.554,1.526-1.493,2.29-2.818,2.29
			c-0.297,0-0.624-0.051-0.981-0.152v-1.584l0.386,0.024c0.514,0,0.902-0.094,1.162-0.28c0.26-0.188,0.466-0.502,0.617-0.943
			l0.293-0.779l-3.188-9.027h2.198L53.967,14.506z"/>
	</g>
	<g enable-background="new    ">
		<path fill="#FFFFFF" d="M80.321,12.896v4.529h-2.123V5.212h4.672c1.364,0,2.448,0.355,3.25,1.066
			C86.923,6.99,87.325,7.93,87.325,9.1c0,1.198-0.393,2.13-1.179,2.796c-0.786,0.667-1.886,1-3.3,1H80.321z M80.321,11.184h2.55
			c0.755,0,1.331-0.177,1.728-0.532c0.397-0.354,0.596-0.868,0.596-1.539c0-0.66-0.202-1.187-0.604-1.582
			c-0.403-0.394-0.957-0.597-1.661-0.608h-2.608V11.184z"/>
		<path fill="#FFFFFF" d="M90.99,9.339c0.666-0.772,1.507-1.158,2.525-1.158c1.935,0,2.916,1.104,2.944,3.313v5.931h-2.039v-5.854
			c0-0.627-0.136-1.07-0.407-1.33c-0.271-0.26-0.67-0.391-1.195-0.391c-0.816,0-1.426,0.364-1.829,1.091v6.484h-2.038V4.541h2.038
			V9.339z"/>
		<path fill="#FFFFFF" d="M103.271,10.211c-0.269-0.045-0.545-0.066-0.831-0.066c-0.934,0-1.563,0.357-1.887,1.073v6.207h-2.039
			V8.349h1.946l0.05,1.015c0.492-0.789,1.174-1.183,2.046-1.183c0.291,0,0.531,0.039,0.722,0.117L103.271,10.211z"/>
		<path fill="#FFFFFF" d="M109.729,17.425c-0.089-0.173-0.168-0.456-0.235-0.848c-0.649,0.677-1.443,1.016-2.382,1.016
			c-0.912,0-1.655-0.26-2.231-0.78c-0.576-0.521-0.864-1.163-0.864-1.93c0-0.967,0.359-1.709,1.078-2.227
			c0.718-0.518,1.746-0.776,3.083-0.776h1.25v-0.595c0-0.47-0.131-0.847-0.394-1.129s-0.663-0.423-1.199-0.423
			c-0.464,0-0.845,0.117-1.141,0.348s-0.444,0.527-0.444,0.885h-2.039c0-0.497,0.165-0.963,0.495-1.396
			c0.33-0.433,0.778-0.773,1.346-1.019c0.567-0.246,1.201-0.369,1.9-0.369c1.062,0,1.91,0.267,2.542,0.801
			c0.632,0.534,0.957,1.286,0.973,2.252v4.094c0,0.816,0.115,1.468,0.344,1.954v0.143H109.729z M107.49,15.958
			c0.403,0,0.781-0.098,1.137-0.294c0.355-0.195,0.622-0.458,0.801-0.788v-1.711h-1.099c-0.755,0-1.323,0.131-1.703,0.394
			c-0.38,0.263-0.57,0.635-0.57,1.116c0,0.392,0.13,0.703,0.39,0.935C106.706,15.841,107.054,15.958,107.49,15.958z"/>
		<path fill="#FFFFFF" d="M118.688,14.959c0-0.363-0.15-0.641-0.449-0.831c-0.299-0.189-0.796-0.357-1.489-0.503
			s-1.272-0.33-1.736-0.554c-1.018-0.492-1.526-1.205-1.526-2.139c0-0.783,0.33-1.438,0.99-1.963
			c0.66-0.526,1.499-0.789,2.517-0.789c1.084,0,1.961,0.269,2.629,0.805c0.668,0.537,1.002,1.232,1.002,2.089h-2.038
			c0-0.392-0.146-0.718-0.437-0.978c-0.291-0.26-0.677-0.39-1.157-0.39c-0.448,0-0.812,0.103-1.095,0.31
			c-0.283,0.207-0.424,0.484-0.424,0.831c0,0.313,0.131,0.557,0.395,0.729c0.263,0.174,0.794,0.349,1.594,0.524
			c0.799,0.176,1.427,0.386,1.883,0.629c0.456,0.243,0.794,0.536,1.015,0.877c0.221,0.341,0.332,0.755,0.332,1.241
			c0,0.816-0.339,1.478-1.015,1.983c-0.677,0.507-1.563,0.76-2.659,0.76c-0.744,0-1.406-0.135-1.988-0.403
			c-0.582-0.268-1.035-0.637-1.359-1.106c-0.325-0.47-0.487-0.977-0.487-1.519h1.98c0.028,0.481,0.209,0.852,0.545,1.111
			s0.78,0.391,1.334,0.391c0.537,0,0.945-0.103,1.225-0.307C118.548,15.556,118.688,15.29,118.688,14.959z"/>
		<path fill="#FFFFFF" d="M127.89,17.425c-0.089-0.173-0.168-0.456-0.235-0.848c-0.649,0.677-1.443,1.016-2.382,1.016
			c-0.912,0-1.655-0.26-2.231-0.78c-0.576-0.521-0.864-1.163-0.864-1.93c0-0.967,0.359-1.709,1.078-2.227
			c0.718-0.518,1.746-0.776,3.083-0.776h1.25v-0.595c0-0.47-0.131-0.847-0.394-1.129s-0.663-0.423-1.199-0.423
			c-0.464,0-0.845,0.117-1.141,0.348s-0.444,0.527-0.444,0.885h-2.039c0-0.497,0.165-0.963,0.495-1.396
			c0.33-0.433,0.778-0.773,1.346-1.019c0.567-0.246,1.201-0.369,1.9-0.369c1.062,0,1.91,0.267,2.542,0.801
			c0.632,0.534,0.957,1.286,0.973,2.252v4.094c0,0.816,0.115,1.468,0.344,1.954v0.143H127.89z M125.65,15.958
			c0.403,0,0.781-0.098,1.137-0.294c0.355-0.195,0.622-0.458,0.801-0.788v-1.711h-1.099c-0.755,0-1.323,0.131-1.703,0.394
			c-0.38,0.263-0.57,0.635-0.57,1.116c0,0.392,0.13,0.703,0.39,0.935C124.866,15.841,125.214,15.958,125.65,15.958z"/>
		<path fill="#FFFFFF" d="M133.93,17.425h-2.039V4.541h2.039V17.425z"/>
		<path fill="#FFFFFF" d="M143.626,14.841l1.92-6.492h2.105l-3.146,9.076h-1.77l-3.171-9.076h2.114L143.626,14.841z"/>
		<path fill="#FFFFFF" d="M152.92,17.593c-1.292,0-2.339-0.407-3.142-1.221c-0.803-0.813-1.204-1.897-1.204-3.25v-0.252
			c0-0.906,0.175-1.716,0.524-2.429c0.349-0.713,0.84-1.268,1.472-1.665s1.337-0.596,2.114-0.596c1.235,0,2.19,0.394,2.864,1.183
			s1.011,1.904,1.011,3.347v0.821h-5.93c0.062,0.75,0.312,1.343,0.75,1.778c0.439,0.437,0.991,0.654,1.657,0.654
			c0.934,0,1.694-0.377,2.282-1.132l1.099,1.049c-0.363,0.542-0.849,0.963-1.455,1.262C154.356,17.444,153.675,17.593,152.92,17.593
			z M152.677,9.817c-0.559,0-1.011,0.196-1.354,0.588s-0.563,0.937-0.659,1.636h3.884v-0.151c-0.045-0.683-0.227-1.198-0.545-1.548
			C153.684,9.993,153.242,9.817,152.677,9.817z"/>
		<path fill="#FFFFFF" d="M162.894,10.211c-0.269-0.045-0.545-0.066-0.831-0.066c-0.934,0-1.563,0.357-1.887,1.073v6.207h-2.039
			V8.349h1.946l0.05,1.015c0.492-0.789,1.174-1.183,2.046-1.183c0.291,0,0.531,0.039,0.722,0.117L162.894,10.211z"/>
		<path fill="#FFFFFF" d="M172.145,12.98c0,1.409-0.314,2.53-0.943,3.363s-1.494,1.25-2.596,1.25c-1.062,0-1.891-0.383-2.483-1.149
			l-0.101,0.981h-1.846V4.541h2.039v4.681c0.587-0.693,1.379-1.04,2.373-1.04c1.107,0,1.977,0.411,2.609,1.233
			c0.631,0.822,0.947,1.972,0.947,3.447V12.98z M170.108,12.803c0-0.984-0.174-1.722-0.521-2.214
			c-0.346-0.492-0.85-0.739-1.51-0.739c-0.883,0-1.504,0.387-1.861,1.158v3.741c0.363,0.788,0.99,1.183,1.879,1.183
			c0.637,0,1.129-0.237,1.477-0.713c0.346-0.476,0.525-1.194,0.537-2.156V12.803z"/>
		<path fill="#FFFFFF" d="M178.94,14.959c0-0.363-0.149-0.641-0.449-0.831c-0.299-0.189-0.795-0.357-1.488-0.503
			s-1.272-0.33-1.736-0.554c-1.019-0.492-1.527-1.205-1.527-2.139c0-0.783,0.33-1.438,0.99-1.963
			c0.66-0.526,1.499-0.789,2.517-0.789c1.085,0,1.961,0.269,2.63,0.805c0.668,0.537,1.002,1.232,1.002,2.089h-2.038
			c0-0.392-0.146-0.718-0.437-0.978s-0.677-0.39-1.157-0.39c-0.447,0-0.812,0.103-1.095,0.31s-0.424,0.484-0.424,0.831
			c0,0.313,0.132,0.557,0.395,0.729c0.263,0.174,0.794,0.349,1.594,0.524s1.427,0.386,1.883,0.629s0.794,0.536,1.015,0.877
			c0.222,0.341,0.332,0.755,0.332,1.241c0,0.816-0.339,1.478-1.016,1.983c-0.676,0.507-1.562,0.76-2.658,0.76
			c-0.744,0-1.407-0.135-1.988-0.403c-0.582-0.268-1.035-0.637-1.359-1.106s-0.486-0.977-0.486-1.519h1.979
			c0.028,0.481,0.21,0.852,0.546,1.111c0.335,0.26,0.779,0.391,1.333,0.391c0.537,0,0.945-0.103,1.225-0.307
			C178.8,15.556,178.94,15.29,178.94,14.959z"/>
		<path fill="#FFFFFF" d="M192.386,17.425h-2.03V7.614l-2.994,1.021V6.923l4.765-1.753h0.26V17.425z"/>
	</g>
	<g enable-background="new    ">
		<path fill="#FFFFFF" d="M223.832,15.84c-0.441,0.575-1.054,1.012-1.837,1.309c-0.783,0.296-1.672,0.444-2.667,0.444
			c-1.023,0-1.93-0.232-2.718-0.696c-0.789-0.464-1.397-1.128-1.825-1.992s-0.649-1.872-0.667-3.024v-0.956
			c0-1.845,0.442-3.287,1.326-4.324c0.883-1.038,2.116-1.556,3.699-1.556c1.358,0,2.438,0.337,3.237,1.011s1.28,1.643,1.442,2.906
			h-2.08c-0.234-1.47-1.088-2.206-2.558-2.206c-0.951,0-1.674,0.342-2.169,1.027s-0.751,1.689-0.768,3.013v0.938
			c0,1.318,0.278,2.342,0.835,3.071c0.557,0.729,1.329,1.094,2.319,1.094c1.085,0,1.856-0.246,2.315-0.738V12.77h-2.517v-1.61h4.63
			V15.84z"/>
		<path fill="#FFFFFF" d="M229.963,17.593c-1.292,0-2.339-0.407-3.141-1.221c-0.803-0.813-1.204-1.897-1.204-3.25v-0.252
			c0-0.906,0.175-1.716,0.524-2.429s0.84-1.268,1.472-1.665s1.337-0.596,2.114-0.596c1.235,0,2.19,0.394,2.864,1.183
			s1.011,1.904,1.011,3.347v0.821h-5.931c0.062,0.75,0.312,1.343,0.751,1.778c0.439,0.437,0.991,0.654,1.657,0.654
			c0.934,0,1.694-0.377,2.281-1.132l1.099,1.049c-0.363,0.542-0.849,0.963-1.455,1.262
			C231.399,17.444,230.718,17.593,229.963,17.593z M229.72,9.817c-0.56,0-1.011,0.196-1.354,0.588s-0.563,0.937-0.658,1.636h3.884
			v-0.151c-0.045-0.683-0.227-1.198-0.546-1.548C230.727,9.993,230.285,9.817,229.72,9.817z"/>
		<path fill="#FFFFFF" d="M237.077,8.349l0.059,1.049c0.672-0.811,1.552-1.216,2.643-1.216c1.891,0,2.853,1.082,2.886,3.247v5.997
			h-2.038v-5.88c0-0.576-0.125-1.003-0.374-1.279c-0.248-0.277-0.655-0.416-1.22-0.416c-0.822,0-1.435,0.373-1.837,1.116v6.459
			h-2.039V8.349H237.077z"/>
		<path fill="#FFFFFF" d="M248.736,17.593c-1.292,0-2.339-0.407-3.141-1.221c-0.803-0.813-1.204-1.897-1.204-3.25v-0.252
			c0-0.906,0.175-1.716,0.524-2.429s0.84-1.268,1.472-1.665s1.337-0.596,2.114-0.596c1.235,0,2.19,0.394,2.864,1.183
			s1.011,1.904,1.011,3.347v0.821h-5.931c0.062,0.75,0.312,1.343,0.751,1.778c0.439,0.437,0.991,0.654,1.657,0.654
			c0.934,0,1.694-0.377,2.281-1.132l1.099,1.049c-0.363,0.542-0.849,0.963-1.455,1.262
			C250.171,17.444,249.491,17.593,248.736,17.593z M248.493,9.817c-0.56,0-1.011,0.196-1.354,0.588s-0.563,0.937-0.658,1.636h3.884
			v-0.151c-0.045-0.683-0.227-1.198-0.546-1.548C249.5,9.993,249.057,9.817,248.493,9.817z"/>
		<path fill="#FFFFFF" d="M258.709,10.211c-0.269-0.045-0.545-0.066-0.83-0.066c-0.934,0-1.563,0.357-1.888,1.073v6.207h-2.038
			V8.349h1.946l0.05,1.015c0.492-0.789,1.175-1.183,2.047-1.183c0.291,0,0.531,0.039,0.722,0.117L258.709,10.211z"/>
		<path fill="#FFFFFF" d="M265.167,17.425c-0.089-0.173-0.167-0.456-0.234-0.848c-0.648,0.677-1.442,1.016-2.382,1.016
			c-0.912,0-1.656-0.26-2.231-0.78c-0.576-0.521-0.864-1.163-0.864-1.93c0-0.967,0.359-1.709,1.078-2.227s1.746-0.776,3.082-0.776
			h1.25v-0.595c0-0.47-0.131-0.847-0.394-1.129c-0.264-0.282-0.663-0.423-1.2-0.423c-0.464,0-0.844,0.117-1.141,0.348
			c-0.296,0.231-0.444,0.527-0.444,0.885h-2.038c0-0.497,0.164-0.963,0.494-1.396c0.33-0.433,0.779-0.773,1.347-1.019
			s1.201-0.369,1.9-0.369c1.062,0,1.909,0.267,2.541,0.801c0.632,0.534,0.956,1.286,0.973,2.252v4.094
			c0,0.816,0.115,1.468,0.345,1.954v0.143H265.167z M262.928,15.958c0.402,0,0.781-0.098,1.137-0.294
			c0.355-0.195,0.622-0.458,0.801-0.788v-1.711h-1.099c-0.755,0-1.322,0.131-1.703,0.394c-0.38,0.263-0.57,0.635-0.57,1.116
			c0,0.392,0.13,0.703,0.391,0.935C262.144,15.841,262.492,15.958,262.928,15.958z"/>
		<path fill="#FFFFFF" d="M271.208,17.425h-2.038V4.541h2.038V17.425z"/>
		<path fill="#FFFFFF" d="M285.652,12.98c0,1.403-0.319,2.523-0.956,3.359c-0.638,0.836-1.493,1.254-2.567,1.254
			c-0.995,0-1.792-0.327-2.391-0.981v4.303H277.7V8.349h1.879l0.084,0.923c0.599-0.727,1.412-1.09,2.441-1.09
			c1.106,0,1.975,0.413,2.604,1.237c0.629,0.825,0.943,1.97,0.943,3.435V12.98z M283.622,12.803c0-0.905-0.18-1.624-0.541-2.155
			c-0.36-0.531-0.876-0.798-1.548-0.798c-0.833,0-1.432,0.345-1.795,1.032v4.026c0.369,0.705,0.974,1.057,1.812,1.057
			c0.648,0,1.156-0.261,1.522-0.784C283.439,14.659,283.622,13.866,283.622,12.803z"/>
		<path fill="#FFFFFF" d="M286.995,12.803c0-0.889,0.176-1.69,0.528-2.402c0.352-0.714,0.847-1.262,1.484-1.645
			c0.638-0.383,1.37-0.575,2.197-0.575c1.226,0,2.219,0.394,2.982,1.183s1.176,1.834,1.237,3.137l0.009,0.479
			c0,0.895-0.173,1.694-0.517,2.398c-0.344,0.705-0.836,1.25-1.476,1.636c-0.641,0.386-1.38,0.579-2.219,0.579
			c-1.281,0-2.306-0.427-3.074-1.279c-0.77-0.853-1.153-1.989-1.153-3.41V12.803z M289.033,12.98c0,0.934,0.192,1.665,0.578,2.193
			c0.387,0.528,0.923,0.792,1.611,0.792c0.688,0,1.223-0.268,1.606-0.805c0.383-0.537,0.574-1.322,0.574-2.357
			c0-0.917-0.197-1.644-0.592-2.181c-0.394-0.537-0.93-0.806-1.606-0.806c-0.665,0-1.193,0.265-1.585,0.793
			S289.033,11.928,289.033,12.98z"/>
		<path fill="#FFFFFF" d="M297.161,5.992c0-0.313,0.099-0.573,0.298-0.78c0.198-0.207,0.482-0.311,0.851-0.311
			c0.369,0,0.654,0.104,0.856,0.311c0.201,0.207,0.302,0.467,0.302,0.78c0,0.308-0.101,0.563-0.302,0.768
			c-0.202,0.204-0.487,0.306-0.856,0.306c-0.368,0-0.652-0.102-0.851-0.306C297.259,6.556,297.161,6.3,297.161,5.992z
			 M299.325,17.425h-2.038V8.349h2.038V17.425z"/>
		<path fill="#FFFFFF" d="M303.435,8.349l0.059,1.049c0.672-0.811,1.552-1.216,2.643-1.216c1.891,0,2.853,1.082,2.886,3.247v5.997
			h-2.038v-5.88c0-0.576-0.125-1.003-0.374-1.279c-0.248-0.277-0.655-0.416-1.22-0.416c-0.822,0-1.435,0.373-1.837,1.116v6.459
			h-2.039V8.349H303.435z"/>
		<path fill="#FFFFFF" d="M313.652,6.143v2.206h1.602V9.86h-1.602v5.065c0,0.347,0.068,0.598,0.205,0.751
			c0.138,0.154,0.382,0.23,0.734,0.23c0.234,0,0.473-0.027,0.713-0.084V17.4c-0.464,0.129-0.911,0.193-1.342,0.193
			c-1.566,0-2.349-0.864-2.349-2.592V9.86h-1.493V8.349h1.493V6.143H313.652z"/>
		<path fill="#FFFFFF" d="M321.897,14.959c0-0.363-0.149-0.641-0.449-0.831c-0.299-0.189-0.795-0.357-1.488-0.503
			s-1.272-0.33-1.736-0.554c-1.019-0.492-1.527-1.205-1.527-2.139c0-0.783,0.33-1.438,0.99-1.963
			c0.66-0.526,1.499-0.789,2.517-0.789c1.085,0,1.961,0.269,2.63,0.805c0.668,0.537,1.002,1.232,1.002,2.089h-2.038
			c0-0.392-0.146-0.718-0.437-0.978s-0.677-0.39-1.157-0.39c-0.447,0-0.812,0.103-1.095,0.31s-0.424,0.484-0.424,0.831
			c0,0.313,0.132,0.557,0.395,0.729c0.263,0.174,0.794,0.349,1.594,0.524s1.427,0.386,1.883,0.629s0.794,0.536,1.015,0.877
			c0.222,0.341,0.332,0.755,0.332,1.241c0,0.816-0.339,1.478-1.016,1.983c-0.676,0.507-1.562,0.76-2.658,0.76
			c-0.744,0-1.407-0.135-1.988-0.403c-0.582-0.268-1.035-0.637-1.359-1.106s-0.486-0.977-0.486-1.519h1.979
			c0.028,0.481,0.21,0.852,0.546,1.111c0.335,0.26,0.779,0.391,1.333,0.391c0.537,0,0.945-0.103,1.225-0.307
			C321.757,15.556,321.897,15.29,321.897,14.959z"/>
	</g>
</g>
</svg>
