<?xml version="1.0" encoding="utf-8"?>
<!-- Generator: Adobe Illustrator 16.0.0, SVG Export Plug-In . SVG Version: 6.00 Build 0)  -->
<!DOCTYPE svg PUBLIC "-//W3C//DTD SVG 1.1//EN" "http://www.w3.org/Graphics/SVG/1.1/DTD/svg11.dtd">
<svg version="1.1" id="Layer_1" xmlns="http://www.w3.org/2000/svg" xmlns:xlink="http://www.w3.org/1999/xlink" x="0px" y="0px"
	 width="711.5px" height="38.193px" viewBox="0 0 711.5 38.193" enable-background="new 0 0 711.5 38.193" xml:space="preserve">
<metadata><?xpacket begin="﻿" id="W5M0MpCehiHzreSzNTczkc9d"?>
<x:xmpmeta xmlns:x="adobe:ns:meta/" x:xmptk="Adobe XMP Core 5.3-c011 66.145661, 2012/02/06-14:56:27        ">
   <rdf:RDF xmlns:rdf="http://www.w3.org/1999/02/22-rdf-syntax-ns#">
      <rdf:Description rdf:about=""
            xmlns:dc="http://purl.org/dc/elements/1.1/">
         <dc:format>image/svg+xml</dc:format>
         <dc:title>
            <rdf:Alt>
               <rdf:li xml:lang="x-default">howtouse7</rdf:li>
            </rdf:Alt>
         </dc:title>
      </rdf:Description>
      <rdf:Description rdf:about=""
            xmlns:xmp="http://ns.adobe.com/xap/1.0/"
            xmlns:xmpGImg="http://ns.adobe.com/xap/1.0/g/img/">
         <xmp:MetadataDate>2019-04-13T23:19:23+02:00</xmp:MetadataDate>
         <xmp:ModifyDate>2019-04-13T23:19:23+02:00</xmp:ModifyDate>
         <xmp:CreateDate>2019-04-13T23:19:23+02:00</xmp:CreateDate>
         <xmp:CreatorTool>Adobe Illustrator CS6 (Macintosh)</xmp:CreatorTool>
         <xmp:Thumbnails>
            <rdf:Alt>
               <rdf:li rdf:parseType="Resource">
                  <xmpGImg:width>256</xmpGImg:width>
                  <xmpGImg:height>16</xmpGImg:height>
                  <xmpGImg:format>JPEG</xmpGImg:format>
                  <xmpGImg:image>/9j/4AAQSkZJRgABAgEASABIAAD/7QAsUGhvdG9zaG9wIDMuMAA4QklNA+0AAAAAABAASAAAAAEA&#xA;AQBIAAAAAQAB/+4ADkFkb2JlAGTAAAAAAf/bAIQABgQEBAUEBgUFBgkGBQYJCwgGBggLDAoKCwoK&#xA;DBAMDAwMDAwQDA4PEA8ODBMTFBQTExwbGxscHx8fHx8fHx8fHwEHBwcNDA0YEBAYGhURFRofHx8f&#xA;Hx8fHx8fHx8fHx8fHx8fHx8fHx8fHx8fHx8fHx8fHx8fHx8fHx8fHx8fHx8f/8AAEQgAEAEAAwER&#xA;AAIRAQMRAf/EAaIAAAAHAQEBAQEAAAAAAAAAAAQFAwIGAQAHCAkKCwEAAgIDAQEBAQEAAAAAAAAA&#xA;AQACAwQFBgcICQoLEAACAQMDAgQCBgcDBAIGAnMBAgMRBAAFIRIxQVEGE2EicYEUMpGhBxWxQiPB&#xA;UtHhMxZi8CRygvElQzRTkqKyY3PCNUQnk6OzNhdUZHTD0uIIJoMJChgZhJRFRqS0VtNVKBry4/PE&#xA;1OT0ZXWFlaW1xdXl9WZ2hpamtsbW5vY3R1dnd4eXp7fH1+f3OEhYaHiImKi4yNjo+Ck5SVlpeYmZ&#xA;qbnJ2en5KjpKWmp6ipqqusra6voRAAICAQIDBQUEBQYECAMDbQEAAhEDBCESMUEFURNhIgZxgZEy&#xA;obHwFMHR4SNCFVJicvEzJDRDghaSUyWiY7LCB3PSNeJEgxdUkwgJChgZJjZFGidkdFU38qOzwygp&#xA;0+PzhJSktMTU5PRldYWVpbXF1eX1RlZmdoaWprbG1ub2R1dnd4eXp7fH1+f3OEhYaHiImKi4yNjo&#xA;+DlJWWl5iZmpucnZ6fkqOkpaanqKmqq6ytrq+v/aAAwDAQACEQMRAD8A9TKqsoZgCSK74qhnvbRH&#xA;ZGjIZTQDiDXelR9O2KuW+sWjaQCqqQpPHuagU+kUxVoahYkVCmu1Bx3NRyH3jFV0l7ZpIY2X4wQC&#xA;AtaVFfwGKrDqWnilRSvT4fAn+mKt/XrUwtKsZZVYK3wgb9/uG+KtNqVgAx4khSQSF8CB/HFV019Z&#xA;xMVKbg7/AA/5IY0+g4q0NQsCen8orx/nG2Kq9u9vPEJY1HE1pUUO22Kqnpx/yj7hirvTj/lH3DFX&#xA;enH/ACj7hirvTj/lH3DFXenH/KPuGKu9OP8AlH3DFXenH/KPuGKu9OP+UfcMVd6cf8o+4Yq704/5&#xA;R9wxV3px/wAo+4Yq704/5R9wxV3px/yj7hirvTj/AJR9wxVxAWhUU3AIHuaYqx/zrro0nTJJ2Zkh&#xA;iiknuHjBZ/TiWpChdyT7ZdiiOZcXUzIqI6vLrT80NBuZZxwmKgxizZFMjXBkEQKqAKBledVpy965&#xA;cMgcQ4SiNI/Mjyrq2pR6dYzyS3Mqeso9NgPTKNJzNe3FQf8AZL44RMFEsUgLKGg/NbyjOheOSdkV&#xA;HkZxCzAcEeULVa7skTFfHB4gScMlh/N3ySrcHuZFYRmanpk/u1QSMw41BopPT+VqdMfEC+BJkXk3&#xA;z/YapOZNKM7QxKrzGSMpGQzMvDf9r4D+vE1MJBljNvUxyUUAqB0pT+OYbtFJ7aB2LPByJoTWhBp7&#xA;Vpiq4xxn/dVPiD7UFWHQmh3xVoQwggiAAjcGi7d8Vb9OPkW9Ecj1ai1NPpxVwiiAoIAAOlAvv7+5&#xA;xVwjjC8RCAv8tFp0p4+GKu9KKjD0BRjVhRdz774q16MNWb0KlzViQpJ2p3PhirhDCDUW4BqD0XqO&#xA;n3YqvQBFCpHxUdAOIH68Vb5N/Ifw/riruTfyH8P64q7k38h/D+uKu5N/Ifw/riruTfyH8P64q7k3&#xA;8h/D+uKu5N/Ifw/riruTfyH8P64q7k38h/D+uKu5N/Ifw/riruTfyH8P64q7k38h/D+uKu5N/Ifw&#xA;/riruTfyH8P64q7duooBvv12+WKpb5i0K31mxa2mRJFZWRo5VDRujijI4Nag5ZjnXuac2LiG3MMN&#xA;P5XaZ6Rg/Q1mYCOJj4RcCDx/ZI/4rX7hl3HBxfByoi38gJbXH1i3023hn4lfURY1PFkjjKinYpBG&#xA;tPBRj4kUHBkQsX5WaVDG0cWh2UcT/ajWOIIfhZd1G32XYfTjxwT4WX8FVi/LWyiK+no9ovBeC0SL&#xA;ZeDpx+XGZx/sj44+JBHg5Ex8v+QrTTXAhtILG2qC8UCqvPiSQCFFO5yMsoA2Zw08ibk//9k=</xmpGImg:image>
               </rdf:li>
            </rdf:Alt>
         </xmp:Thumbnails>
      </rdf:Description>
      <rdf:Description rdf:about=""
            xmlns:xmpMM="http://ns.adobe.com/xap/1.0/mm/"
            xmlns:stRef="http://ns.adobe.com/xap/1.0/sType/ResourceRef#"
            xmlns:stEvt="http://ns.adobe.com/xap/1.0/sType/ResourceEvent#">
         <xmpMM:InstanceID>xmp.iid:0414C7A31B206811822AB51A6D4001DF</xmpMM:InstanceID>
         <xmpMM:DocumentID>xmp.did:0414C7A31B206811822AB51A6D4001DF</xmpMM:DocumentID>
         <xmpMM:OriginalDocumentID>uuid:5D20892493BFDB11914A8590D31508C8</xmpMM:OriginalDocumentID>
         <xmpMM:RenditionClass>proof:pdf</xmpMM:RenditionClass>
         <xmpMM:DerivedFrom rdf:parseType="Resource">
            <stRef:instanceID>uuid:6b65d480-e5a5-3049-bc11-353266b86888</stRef:instanceID>
            <stRef:documentID>xmp.did:0A80117407206811822AB51A6D4001DF</stRef:documentID>
            <stRef:originalDocumentID>uuid:5D20892493BFDB11914A8590D31508C8</stRef:originalDocumentID>
            <stRef:renditionClass>proof:pdf</stRef:renditionClass>
         </xmpMM:DerivedFrom>
         <xmpMM:History>
            <rdf:Seq>
               <rdf:li rdf:parseType="Resource">
                  <stEvt:action>saved</stEvt:action>
                  <stEvt:instanceID>xmp.iid:0280117407206811822AB51A6D4001DF</stEvt:instanceID>
                  <stEvt:when>2019-04-13T21:44:43+02:00</stEvt:when>
                  <stEvt:softwareAgent>Adobe Illustrator CS6 (Macintosh)</stEvt:softwareAgent>
                  <stEvt:changed>/</stEvt:changed>
               </rdf:li>
               <rdf:li rdf:parseType="Resource">
                  <stEvt:action>saved</stEvt:action>
                  <stEvt:instanceID>xmp.iid:0414C7A31B206811822AB51A6D4001DF</stEvt:instanceID>
                  <stEvt:when>2019-04-13T23:19:23+02:00</stEvt:when>
                  <stEvt:softwareAgent>Adobe Illustrator CS6 (Macintosh)</stEvt:softwareAgent>
                  <stEvt:changed>/</stEvt:changed>
               </rdf:li>
            </rdf:Seq>
         </xmpMM:History>
      </rdf:Description>
      <rdf:Description rdf:about=""
            xmlns:illustrator="http://ns.adobe.com/illustrator/1.0/">
         <illustrator:StartupProfile>Print</illustrator:StartupProfile>
      </rdf:Description>
      <rdf:Description rdf:about=""
            xmlns:xmpTPg="http://ns.adobe.com/xap/1.0/t/pg/"
            xmlns:stDim="http://ns.adobe.com/xap/1.0/sType/Dimensions#"
            xmlns:xmpG="http://ns.adobe.com/xap/1.0/g/">
         <xmpTPg:HasVisibleOverprint>False</xmpTPg:HasVisibleOverprint>
         <xmpTPg:HasVisibleTransparency>False</xmpTPg:HasVisibleTransparency>
         <xmpTPg:NPages>1</xmpTPg:NPages>
         <xmpTPg:MaxPageSize rdf:parseType="Resource">
            <stDim:w>711.500000</stDim:w>
            <stDim:h>38.193359</stDim:h>
            <stDim:unit>Pixels</stDim:unit>
         </xmpTPg:MaxPageSize>
         <xmpTPg:PlateNames>
            <rdf:Seq>
               <rdf:li>Cyan</rdf:li>
               <rdf:li>Magenta</rdf:li>
               <rdf:li>Yellow</rdf:li>
               <rdf:li>Black</rdf:li>
            </rdf:Seq>
         </xmpTPg:PlateNames>
         <xmpTPg:SwatchGroups>
            <rdf:Seq>
               <rdf:li rdf:parseType="Resource">
                  <xmpG:groupName>Default Swatch Group</xmpG:groupName>
                  <xmpG:groupType>0</xmpG:groupType>
               </rdf:li>
            </rdf:Seq>
         </xmpTPg:SwatchGroups>
      </rdf:Description>
      <rdf:Description rdf:about=""
            xmlns:pdf="http://ns.adobe.com/pdf/1.3/">
         <pdf:Producer>Adobe PDF library 10.01</pdf:Producer>
      </rdf:Description>
   </rdf:RDF>
</x:xmpmeta>
                                                                                                    
                                                                                                    
                                                                                                    
                                                                                                    
                                                                                                    
                                                                                                    
                                                                                                    
                                                                                                    
                                                                                                    
                                                                                                    
                                                                                                    
                                                                                                    
                                                                                                    
                                                                                                    
                                                                                                    
                                                                                                    
                                                                                                    
                                                                                                    
                                                                                                    
                                                                                                    
                           
<?xpacket end="w"?>
	</metadata>
<g id="Layer_2">
</g>
<g id="Layer_4">
	<path fill="none" stroke="#CFCFCF" stroke-miterlimit="10" d="M574.833,19.097c0,10.27-8.326,18.596-18.597,18.596H19.097
		C8.826,37.693,0.5,29.367,0.5,19.097l0,0C0.5,8.826,8.826,0.5,19.097,0.5h537.139C566.507,0.5,574.833,8.826,574.833,19.097
		L574.833,19.097z"/>
	<g enable-background="new    ">
		<path fill="#CFCFCF" d="M29.331,13.483L28.97,15.54h1.547l-0.196,1.123h-1.539l-0.887,5.284c-0.016,0.137-0.018,0.262-0.008,0.377
			c0.037,0.408,0.259,0.612,0.667,0.612c0.173,0,0.403-0.025,0.691-0.078l-0.11,1.186c-0.34,0.096-0.686,0.143-1.037,0.143
			c-0.565-0.012-0.989-0.22-1.272-0.624c-0.283-0.406-0.393-0.952-0.33-1.639l0.864-5.261h-1.5l0.196-1.123h1.5l0.361-2.057H29.331z
			"/>
		<path fill="#CFCFCF" d="M33.799,21.892l3.023-6.354h1.57l-5.041,9.909c-0.702,1.377-1.602,2.058-2.701,2.042
			c-0.193-0.006-0.479-0.053-0.855-0.142l0.125-1.179l0.369,0.039c0.45,0.021,0.839-0.08,1.166-0.302
			c0.327-0.223,0.616-0.583,0.868-1.08l0.51-0.974l-1.468-8.315h1.484L33.799,21.892z"/>
		<path fill="#CFCFCF" d="M45.906,19.827c-0.104,0.864-0.337,1.642-0.699,2.332c-0.361,0.691-0.809,1.208-1.343,1.551
			c-0.534,0.344-1.125,0.507-1.774,0.491c-0.984-0.021-1.738-0.354-2.261-0.997l-0.762,4.1h-1.421l2.042-11.764l1.288-0.008
			l-0.157,0.95c0.702-0.754,1.542-1.12,2.521-1.1c0.816,0.021,1.453,0.321,1.908,0.902s0.696,1.382,0.722,2.403
			c0.005,0.335-0.008,0.659-0.039,0.974L45.906,19.827z M44.509,19.667l0.039-0.659c0-0.763-0.145-1.348-0.436-1.753
			c-0.291-0.403-0.71-0.617-1.26-0.639c-0.822-0.021-1.531,0.368-2.128,1.168l-0.714,4.07c0.319,0.753,0.893,1.14,1.72,1.161
			c0.707,0.016,1.307-0.261,1.802-0.827C44.027,21.621,44.352,20.78,44.509,19.667z"/>
		<path fill="#CFCFCF" d="M50.719,24.193c-1.057-0.021-1.884-0.411-2.481-1.17c-0.597-0.759-0.848-1.73-0.754-2.913l0.039-0.338
			c0.089-0.843,0.339-1.612,0.75-2.31c0.411-0.696,0.912-1.221,1.504-1.573c0.591-0.354,1.23-0.521,1.916-0.507
			c0.874,0.021,1.56,0.312,2.057,0.871c0.498,0.562,0.77,1.319,0.817,2.277c0.016,0.34,0.005,0.681-0.032,1.021l-0.086,0.651h-5.551
			c-0.094,0.771,0.033,1.424,0.381,1.963c0.348,0.54,0.868,0.819,1.559,0.841c0.837,0.021,1.612-0.355,2.324-1.131l0.817,0.69
			c-0.356,0.514-0.815,0.915-1.378,1.206C52.037,24.063,51.41,24.203,50.719,24.193z M51.622,16.569
			c-0.586-0.016-1.098,0.183-1.535,0.597c-0.438,0.413-0.784,1.028-1.041,1.845l4.13,0.009l0.032-0.125
			c0.083-0.66-0.022-1.208-0.318-1.646C52.595,16.811,52.172,16.585,51.622,16.569z"/>
		<path fill="#CFCFCF" d="M62.372,21.892l3.023-6.354h1.57l-5.041,9.909c-0.702,1.377-1.602,2.058-2.701,2.042
			c-0.193-0.006-0.479-0.053-0.855-0.142l0.125-1.179l0.369,0.039c0.45,0.021,0.839-0.08,1.166-0.302
			c0.327-0.223,0.616-0.583,0.868-1.08l0.51-0.974l-1.468-8.315h1.484L62.372,21.892z"/>
		<path fill="#CFCFCF" d="M71.503,15.384c0.712,0.011,1.322,0.204,1.83,0.581c0.507,0.377,0.883,0.896,1.126,1.56
			c0.244,0.662,0.326,1.386,0.248,2.171l-0.016,0.173c-0.1,0.827-0.346,1.574-0.738,2.241c-0.393,0.668-0.9,1.188-1.523,1.559
			c-0.623,0.372-1.306,0.547-2.049,0.526c-0.707-0.011-1.315-0.204-1.825-0.581c-0.511-0.377-0.883-0.89-1.119-1.539
			c-0.235-0.649-0.319-1.363-0.251-2.144c0.078-0.881,0.316-1.671,0.714-2.371c0.398-0.701,0.91-1.245,1.535-1.63
			C70.06,15.544,70.749,15.362,71.503,15.384z M68.613,19.937c-0.037,0.33-0.037,0.673,0,1.027c0.052,0.618,0.237,1.11,0.554,1.478
			c0.316,0.366,0.739,0.558,1.268,0.573c0.471,0.016,0.905-0.102,1.303-0.351c0.398-0.249,0.733-0.624,1.005-1.127
			c0.272-0.502,0.447-1.06,0.526-1.672c0.042-0.481,0.05-0.888,0.023-1.218c-0.062-0.633-0.254-1.133-0.573-1.499
			c-0.319-0.366-0.743-0.562-1.272-0.581c-0.733-0.017-1.355,0.271-1.869,0.863c-0.514,0.592-0.83,1.365-0.95,2.323L68.613,19.937z"
			/>
		<path fill="#CFCFCF" d="M81.153,23.196c-0.665,0.686-1.51,1.018-2.536,0.997c-0.812-0.021-1.412-0.312-1.802-0.872
			c-0.39-0.561-0.535-1.324-0.436-2.292l0.911-5.489h1.421l-0.919,5.514c-0.026,0.229-0.031,0.454-0.016,0.675
			c0.026,0.377,0.139,0.673,0.338,0.888c0.199,0.215,0.476,0.329,0.832,0.345c1.016,0.032,1.801-0.379,2.355-1.231l1.068-6.188
			h1.421l-1.476,8.496h-1.343L81.153,23.196z"/>
		<path fill="#CFCFCF" d="M89.719,16.836l-0.667-0.069c-0.911,0-1.628,0.41-2.151,1.231l-1.044,6.038h-1.421l1.477-8.496
			l1.374-0.008l-0.212,0.989c0.602-0.79,1.311-1.175,2.127-1.153c0.173,0,0.398,0.039,0.675,0.117L89.719,16.836z"/>
		<path fill="#CFCFCF" d="M98.93,24.036c-0.037-0.151-0.055-0.301-0.055-0.447l0.023-0.447c-0.78,0.723-1.607,1.072-2.481,1.053
			c-0.749-0.011-1.357-0.247-1.826-0.711c-0.468-0.463-0.682-1.043-0.64-1.739c0.052-0.9,0.446-1.603,1.182-2.108
			c0.735-0.505,1.703-0.757,2.901-0.757l1.484,0.009l0.094-0.677c0.052-0.508-0.046-0.909-0.294-1.205
			c-0.249-0.296-0.622-0.448-1.119-0.459c-0.487-0.011-0.917,0.108-1.292,0.356c-0.375,0.249-0.604,0.577-0.687,0.985l-1.429,0.009
			c0.047-0.498,0.241-0.938,0.581-1.323s0.777-0.684,1.312-0.896c0.534-0.213,1.086-0.312,1.657-0.303
			c0.884,0.021,1.573,0.289,2.065,0.806c0.492,0.516,0.699,1.199,0.62,2.053l-0.691,4.209l-0.039,0.604
			c-0.011,0.288,0.021,0.573,0.094,0.855l-0.016,0.134H98.93z M96.7,22.936c0.456,0.011,0.886-0.099,1.292-0.325
			c0.406-0.228,0.755-0.543,1.048-0.946l0.306-1.751l-1.076-0.008c-0.895,0-1.581,0.142-2.057,0.424
			c-0.477,0.282-0.746,0.685-0.809,1.201c-0.047,0.398,0.045,0.729,0.278,0.993C95.916,22.789,96.255,22.927,96.7,22.936z"/>
		<path fill="#CFCFCF" d="M105.117,15.532l-0.204,1.076c0.764-0.838,1.633-1.246,2.607-1.226c0.801,0.021,1.393,0.299,1.774,0.832
			c0.382,0.534,0.523,1.285,0.424,2.253l-0.927,5.567h-1.421l0.935-5.585c0.031-0.256,0.034-0.494,0.008-0.714
			c-0.089-0.731-0.521-1.105-1.295-1.121c-0.854-0.016-1.602,0.439-2.246,1.364l-1.052,6.056h-1.421l1.477-8.496L105.117,15.532z"/>
		<path fill="#CFCFCF" d="M116.243,21.735c0.079-0.586-0.243-1-0.965-1.24l-1.477-0.432c-1.246-0.431-1.848-1.143-1.806-2.137
			c0.037-0.748,0.378-1.361,1.024-1.842c0.646-0.479,1.407-0.713,2.281-0.702c0.858,0.011,1.556,0.261,2.092,0.749
			c0.537,0.49,0.794,1.127,0.773,1.912l-1.413-0.008c0.01-0.424-0.123-0.77-0.4-1.036c-0.278-0.267-0.647-0.404-1.107-0.416
			c-0.492-0.011-0.916,0.109-1.272,0.361c-0.33,0.235-0.521,0.544-0.573,0.926c-0.068,0.492,0.233,0.853,0.903,1.076l0.714,0.196
			c0.974,0.251,1.665,0.578,2.073,0.98c0.408,0.403,0.597,0.903,0.565,1.5c-0.031,0.528-0.204,0.989-0.518,1.382
			c-0.314,0.394-0.733,0.692-1.256,0.898c-0.523,0.207-1.081,0.303-1.672,0.287c-0.9-0.011-1.644-0.273-2.23-0.789
			s-0.869-1.18-0.848-1.99l1.421,0.008c0,0.477,0.151,0.858,0.455,1.146c0.304,0.288,0.72,0.433,1.249,0.433
			c0.518,0.01,0.966-0.099,1.343-0.326C115.976,22.446,116.19,22.134,116.243,21.735z"/>
		<path fill="#CFCFCF" d="M126.725,22.026l2.708-6.486h1.468l-3.871,8.496h-1.154l-0.879-6.423l-3.062,6.423h-1.154l-0.919-8.496
			h1.358l0.519,6.329l3.015-6.329h1.146L126.725,22.026z"/>
		<path fill="#CFCFCF" d="M134.577,24.193c-1.057-0.021-1.884-0.411-2.481-1.17c-0.597-0.759-0.848-1.73-0.754-2.913l0.039-0.338
			c0.089-0.843,0.339-1.612,0.75-2.31c0.411-0.696,0.912-1.221,1.504-1.573c0.591-0.354,1.23-0.521,1.916-0.507
			c0.874,0.021,1.56,0.312,2.057,0.871c0.498,0.562,0.77,1.319,0.817,2.277c0.016,0.34,0.005,0.681-0.032,1.021l-0.086,0.651h-5.551
			c-0.094,0.771,0.033,1.424,0.381,1.963c0.348,0.54,0.868,0.819,1.559,0.841c0.837,0.021,1.612-0.355,2.324-1.131l0.817,0.69
			c-0.356,0.514-0.815,0.915-1.378,1.206C135.895,24.063,135.268,24.203,134.577,24.193z M135.479,16.569
			c-0.586-0.016-1.098,0.183-1.535,0.597c-0.438,0.413-0.784,1.028-1.041,1.845l4.13,0.009l0.032-0.125
			c0.083-0.66-0.022-1.208-0.318-1.646C136.452,16.811,136.029,16.585,135.479,16.569z"/>
		<path fill="#CFCFCF" d="M144.525,16.836l-0.667-0.069c-0.911,0-1.628,0.41-2.151,1.231l-1.044,6.038h-1.421l1.477-8.496
			l1.374-0.008l-0.212,0.989c0.602-0.79,1.311-1.175,2.127-1.153c0.173,0,0.398,0.039,0.675,0.117L144.525,16.836z"/>
		<path fill="#CFCFCF" d="M151.191,16.577c0.743-0.812,1.599-1.207,2.567-1.186c0.795,0.01,1.386,0.283,1.771,0.819
			c0.385,0.536,0.527,1.289,0.428,2.257l-0.927,5.567h-1.421l0.935-5.591c0.031-0.256,0.034-0.494,0.008-0.714
			c-0.089-0.733-0.521-1.107-1.295-1.123c-0.869-0.021-1.618,0.435-2.246,1.366l-1.052,6.062h-1.421l2.097-12.061h1.421
			L151.191,16.577z"/>
		<path fill="#CFCFCF" d="M160.88,24.193c-1.057-0.021-1.884-0.411-2.481-1.17s-0.848-1.73-0.754-2.913l0.039-0.338
			c0.089-0.843,0.339-1.612,0.75-2.31c0.411-0.696,0.912-1.221,1.504-1.573c0.591-0.354,1.23-0.521,1.916-0.507
			c0.874,0.021,1.56,0.312,2.057,0.871c0.498,0.562,0.77,1.319,0.817,2.277c0.016,0.34,0.005,0.681-0.032,1.021l-0.086,0.651h-5.551
			c-0.094,0.771,0.033,1.424,0.381,1.963c0.348,0.54,0.868,0.819,1.559,0.841c0.837,0.021,1.612-0.355,2.324-1.131l0.817,0.69
			c-0.356,0.514-0.815,0.915-1.378,1.206C162.198,24.063,161.571,24.203,160.88,24.193z M161.783,16.569
			c-0.586-0.016-1.098,0.183-1.535,0.597c-0.438,0.413-0.784,1.028-1.041,1.845l4.13,0.009l0.032-0.125
			c0.083-0.66-0.022-1.208-0.318-1.646C162.756,16.811,162.333,16.585,161.783,16.569z"/>
		<path fill="#CFCFCF" d="M170.829,16.836l-0.667-0.069c-0.911,0-1.628,0.41-2.151,1.231l-1.044,6.038h-1.421l1.477-8.496
			l1.374-0.008l-0.212,0.989c0.602-0.79,1.311-1.175,2.127-1.153c0.173,0,0.398,0.039,0.675,0.117L170.829,16.836z"/>
		<path fill="#CFCFCF" d="M174.574,24.193c-1.057-0.021-1.884-0.411-2.481-1.17c-0.597-0.759-0.848-1.73-0.754-2.913l0.039-0.338
			c0.089-0.843,0.339-1.612,0.75-2.31c0.411-0.696,0.912-1.221,1.504-1.573c0.591-0.354,1.23-0.521,1.916-0.507
			c0.874,0.021,1.56,0.312,2.057,0.871c0.498,0.562,0.77,1.319,0.817,2.277c0.016,0.34,0.005,0.681-0.032,1.021l-0.086,0.651h-5.551
			c-0.094,0.771,0.033,1.424,0.381,1.963c0.348,0.54,0.868,0.819,1.559,0.841c0.837,0.021,1.612-0.355,2.324-1.131l0.817,0.69
			c-0.356,0.514-0.815,0.915-1.378,1.206C175.892,24.063,175.265,24.203,174.574,24.193z M175.477,16.569
			c-0.586-0.016-1.098,0.183-1.535,0.597c-0.438,0.413-0.784,1.028-1.041,1.845l4.13,0.009l0.032-0.125
			c0.083-0.66-0.022-1.208-0.318-1.646C176.449,16.811,176.026,16.585,175.477,16.569z"/>
		<path fill="#CFCFCF" d="M190.874,19.827c-0.104,0.864-0.337,1.642-0.699,2.332c-0.361,0.691-0.809,1.208-1.343,1.551
			c-0.534,0.344-1.125,0.507-1.774,0.491c-0.984-0.021-1.738-0.354-2.261-0.997l-0.762,4.1h-1.421l2.042-11.764l1.288-0.008
			l-0.157,0.95c0.702-0.754,1.542-1.12,2.521-1.1c0.816,0.021,1.453,0.321,1.908,0.902s0.696,1.382,0.722,2.403
			c0.005,0.335-0.008,0.659-0.039,0.974L190.874,19.827z M189.477,19.667l0.039-0.659c0-0.763-0.145-1.348-0.436-1.753
			c-0.291-0.403-0.71-0.617-1.26-0.639c-0.822-0.021-1.531,0.368-2.128,1.168l-0.714,4.07c0.319,0.753,0.893,1.14,1.72,1.161
			c0.707,0.016,1.307-0.261,1.802-0.827C188.995,21.621,189.319,20.78,189.477,19.667z"/>
		<path fill="#CFCFCF" d="M193.551,24.036h-1.413l2.088-12.061h1.421L193.551,24.036z"/>
		<path fill="#CFCFCF" d="M199.55,24.193c-1.057-0.021-1.884-0.411-2.481-1.17c-0.597-0.759-0.848-1.73-0.754-2.913l0.039-0.338
			c0.089-0.843,0.339-1.612,0.75-2.31c0.411-0.696,0.912-1.221,1.504-1.573c0.591-0.354,1.23-0.521,1.916-0.507
			c0.874,0.021,1.56,0.312,2.057,0.871c0.498,0.562,0.77,1.319,0.817,2.277c0.016,0.34,0.005,0.681-0.032,1.021l-0.086,0.651h-5.551
			c-0.094,0.771,0.033,1.424,0.381,1.963c0.348,0.54,0.868,0.819,1.559,0.841c0.837,0.021,1.612-0.355,2.324-1.131l0.817,0.69
			c-0.356,0.514-0.815,0.915-1.378,1.206C200.868,24.063,200.241,24.203,199.55,24.193z M200.453,16.569
			c-0.586-0.016-1.098,0.183-1.535,0.597c-0.438,0.413-0.784,1.028-1.041,1.845l4.13,0.009l0.032-0.125
			c0.083-0.66-0.022-1.208-0.318-1.646C201.426,16.811,201.003,16.585,200.453,16.569z"/>
		<path fill="#CFCFCF" d="M209.412,24.036c-0.037-0.151-0.055-0.301-0.055-0.447l0.023-0.447c-0.78,0.723-1.607,1.072-2.481,1.053
			c-0.749-0.011-1.357-0.247-1.826-0.711c-0.468-0.463-0.682-1.043-0.64-1.739c0.052-0.9,0.446-1.603,1.182-2.108
			c0.735-0.505,1.703-0.757,2.901-0.757L210,18.887l0.094-0.677c0.052-0.508-0.046-0.909-0.294-1.205
			c-0.249-0.296-0.622-0.448-1.119-0.459c-0.487-0.011-0.917,0.108-1.292,0.356c-0.375,0.249-0.604,0.577-0.687,0.985l-1.429,0.009
			c0.047-0.498,0.241-0.938,0.581-1.323s0.777-0.684,1.312-0.896c0.534-0.213,1.086-0.312,1.657-0.303
			c0.884,0.021,1.573,0.289,2.065,0.806c0.492,0.516,0.699,1.199,0.62,2.053l-0.691,4.209l-0.039,0.604
			c-0.011,0.288,0.021,0.573,0.094,0.855l-0.016,0.134H209.412z M207.182,22.936c0.456,0.011,0.886-0.099,1.292-0.325
			c0.406-0.228,0.755-0.543,1.048-0.946l0.306-1.751l-1.076-0.008c-0.895,0-1.581,0.142-2.057,0.424
			c-0.477,0.282-0.746,0.685-0.809,1.201c-0.047,0.398,0.045,0.729,0.278,0.993C206.398,22.789,206.737,22.927,207.182,22.936z"/>
		<path fill="#CFCFCF" d="M218.041,21.735c0.079-0.586-0.243-1-0.965-1.24l-1.477-0.432c-1.246-0.431-1.848-1.143-1.806-2.137
			c0.037-0.748,0.378-1.361,1.024-1.842c0.646-0.479,1.407-0.713,2.281-0.702c0.858,0.011,1.556,0.261,2.092,0.749
			c0.537,0.49,0.794,1.127,0.773,1.912l-1.413-0.008c0.01-0.424-0.123-0.77-0.4-1.036c-0.278-0.267-0.647-0.404-1.107-0.416
			c-0.492-0.011-0.916,0.109-1.272,0.361c-0.33,0.235-0.521,0.544-0.573,0.926c-0.068,0.492,0.233,0.853,0.903,1.076l0.714,0.196
			c0.974,0.251,1.665,0.578,2.073,0.98c0.408,0.403,0.597,0.903,0.565,1.5c-0.031,0.528-0.204,0.989-0.518,1.382
			c-0.314,0.394-0.733,0.692-1.256,0.898c-0.523,0.207-1.081,0.303-1.672,0.287c-0.9-0.011-1.644-0.273-2.23-0.789
			s-0.869-1.18-0.848-1.99l1.421,0.008c0,0.477,0.151,0.858,0.455,1.146c0.304,0.288,0.72,0.433,1.249,0.433
			c0.518,0.01,0.966-0.099,1.343-0.326C217.774,22.446,217.989,22.134,218.041,21.735z"/>
		<path fill="#CFCFCF" d="M224.574,24.193c-1.057-0.021-1.884-0.411-2.481-1.17c-0.597-0.759-0.848-1.73-0.754-2.913l0.039-0.338
			c0.089-0.843,0.339-1.612,0.75-2.31c0.411-0.696,0.912-1.221,1.504-1.573c0.591-0.354,1.23-0.521,1.916-0.507
			c0.874,0.021,1.56,0.312,2.057,0.871c0.498,0.562,0.77,1.319,0.817,2.277c0.016,0.34,0.005,0.681-0.032,1.021l-0.086,0.651h-5.551
			c-0.094,0.771,0.033,1.424,0.381,1.963c0.348,0.54,0.868,0.819,1.559,0.841c0.837,0.021,1.612-0.355,2.324-1.131l0.817,0.69
			c-0.356,0.514-0.815,0.915-1.378,1.206C225.892,24.063,225.265,24.203,224.574,24.193z M225.477,16.569
			c-0.586-0.016-1.098,0.183-1.535,0.597c-0.438,0.413-0.784,1.028-1.041,1.845l4.13,0.009l0.032-0.125
			c0.083-0.66-0.022-1.208-0.318-1.646C226.45,16.811,226.027,16.585,225.477,16.569z"/>
	</g>
	<path fill="#ACD8E5" d="M711.5,19.097c0,10.27-8.326,18.596-18.596,18.596h-85.81c-10.271,0-18.597-8.326-18.597-18.596l0,0
		c0-10.271,8.326-18.599,18.597-18.599h85.81C703.174,0.5,711.5,8.826,711.5,19.097L711.5,19.097z"/>
	<g enable-background="new    ">
		<path fill="#1D1D1B" d="M602.877,22.471c0-0.38-0.155-0.666-0.467-0.864c-0.312-0.197-0.827-0.372-1.548-0.523
			c-0.723-0.15-1.323-0.343-1.807-0.575c-1.059-0.512-1.588-1.254-1.588-2.226c0-0.812,0.343-1.494,1.029-2.041
			c0.686-0.547,1.559-0.82,2.617-0.82c1.128,0,2.039,0.279,2.733,0.838c0.695,0.56,1.043,1.282,1.043,2.173h-2.119
			c0-0.406-0.151-0.745-0.454-1.017c-0.303-0.271-0.703-0.406-1.203-0.406c-0.465,0-0.847,0.107-1.14,0.323
			c-0.294,0.215-0.439,0.503-0.439,0.863c0,0.326,0.136,0.579,0.409,0.759c0.272,0.181,0.826,0.362,1.658,0.546
			c0.831,0.184,1.483,0.401,1.959,0.654c0.474,0.253,0.825,0.557,1.055,0.911s0.346,0.785,0.346,1.291
			c0,0.85-0.353,1.537-1.057,2.062c-0.703,0.526-1.625,0.79-2.767,0.79c-0.772,0-1.463-0.14-2.065-0.419
			c-0.605-0.278-1.076-0.663-1.414-1.15c-0.338-0.489-0.506-1.017-0.506-1.579h2.059c0.029,0.5,0.22,0.885,0.567,1.154
			c0.348,0.271,0.812,0.406,1.388,0.406c0.559,0,0.982-0.105,1.273-0.317C602.732,23.092,602.877,22.814,602.877,22.471z"/>
		<path fill="#1D1D1B" d="M608.896,16.626c0.691-0.803,1.567-1.204,2.627-1.204c2.012,0,3.031,1.149,3.062,3.446v6.168h-2.12v-6.09
			c0-0.651-0.141-1.112-0.423-1.383s-0.696-0.405-1.243-0.405c-0.85,0-1.482,0.378-1.901,1.134v6.744h-2.119v-13.4h2.119
			L608.896,16.626L608.896,16.626z"/>
		<path fill="#1D1D1B" d="M616.33,20.229c0-0.925,0.184-1.758,0.549-2.5c0.367-0.741,0.882-1.312,1.545-1.71
			c0.662-0.398,1.425-0.599,2.285-0.599c1.273,0,2.309,0.41,3.102,1.23c0.795,0.82,1.224,1.907,1.287,3.263l0.01,0.497
			c0,0.931-0.18,1.763-0.536,2.495c-0.358,0.733-0.87,1.3-1.536,1.701c-0.666,0.4-1.436,0.603-2.309,0.603
			c-1.332,0-2.396-0.442-3.196-1.331c-0.801-0.887-1.199-2.067-1.199-3.546L616.33,20.229L616.33,20.229z M618.449,20.412
			c0,0.972,0.201,1.732,0.603,2.281c0.401,0.55,0.96,0.825,1.675,0.825c0.717,0,1.272-0.279,1.672-0.838
			c0.398-0.56,0.598-1.375,0.598-2.451c0-0.954-0.205-1.71-0.615-2.27c-0.409-0.559-0.967-0.838-1.671-0.838
			c-0.69,0-1.242,0.275-1.647,0.825C618.653,18.497,618.449,19.319,618.449,20.412z"/>
		<path fill="#1D1D1B" d="M635.191,22.113l1.5-6.517h2.067l-2.574,9.438h-1.743l-2.024-6.481l-1.989,6.481h-1.744l-2.582-9.438
			h2.066l1.527,6.446l1.937-6.446h1.597L635.191,22.113z"/>
		<path fill="#1D1D1B" d="M650.267,25.036c-0.093-0.181-0.175-0.474-0.243-0.881c-0.676,0.703-1.501,1.056-2.479,1.056
			c-0.948,0-1.722-0.271-2.32-0.812c-0.6-0.541-0.897-1.21-0.897-2.007c0-1.007,0.373-1.778,1.121-2.316
			c0.746-0.538,1.814-0.807,3.205-0.807h1.301V18.65c0-0.489-0.137-0.88-0.41-1.174c-0.272-0.294-0.688-0.44-1.248-0.44
			c-0.481,0-0.878,0.121-1.186,0.362c-0.31,0.241-0.463,0.548-0.463,0.92h-2.12c0-0.519,0.171-1.002,0.515-1.452
			c0.344-0.451,0.812-0.805,1.4-1.061c0.589-0.257,1.249-0.385,1.977-0.385c1.104,0,1.985,0.278,2.644,0.833
			c0.656,0.557,0.993,1.337,1.012,2.344v4.258c0,0.849,0.119,1.525,0.356,2.032v0.147L650.267,25.036L650.267,25.036z
			 M647.938,23.51c0.42,0,0.812-0.102,1.183-0.306c0.369-0.203,0.646-0.477,0.834-0.82v-1.778h-1.144
			c-0.784,0-1.376,0.137-1.771,0.41c-0.396,0.272-0.594,0.659-0.594,1.159c0,0.407,0.136,0.731,0.405,0.974
			C647.121,23.388,647.484,23.51,647.938,23.51z"/>
		<path fill="#1D1D1B" d="M656.26,15.596l0.062,1.091c0.697-0.845,1.612-1.267,2.748-1.267c1.965,0,2.965,1.126,3,3.377v6.237
			h-2.119V18.92c0-0.6-0.13-1.043-0.389-1.331c-0.26-0.288-0.683-0.432-1.271-0.432c-0.854,0-1.492,0.387-1.91,1.16v6.718h-2.12
			v-9.438H656.26z"/>
		<path fill="#1D1D1B" d="M669.521,22.471c0-0.38-0.156-0.666-0.468-0.864c-0.312-0.197-0.828-0.372-1.549-0.523
			c-0.722-0.15-1.323-0.343-1.807-0.575c-1.06-0.512-1.588-1.254-1.588-2.226c0-0.812,0.344-1.494,1.029-2.041
			c0.687-0.547,1.56-0.82,2.617-0.82c1.128,0,2.04,0.279,2.735,0.838c0.693,0.56,1.042,1.282,1.042,2.173h-2.12
			c0-0.406-0.151-0.745-0.453-1.017c-0.303-0.271-0.704-0.406-1.204-0.406c-0.466,0-0.845,0.107-1.139,0.323
			c-0.294,0.215-0.44,0.503-0.44,0.863c0,0.326,0.138,0.579,0.41,0.759c0.273,0.181,0.826,0.362,1.657,0.546
			s1.483,0.401,1.958,0.654s0.826,0.557,1.057,0.911c0.229,0.354,0.344,0.785,0.344,1.291c0,0.85-0.352,1.537-1.055,2.062
			c-0.704,0.526-1.626,0.79-2.766,0.79c-0.773,0-1.463-0.14-2.068-0.419c-0.604-0.278-1.076-0.663-1.413-1.15
			c-0.337-0.489-0.506-1.017-0.506-1.579h2.061c0.027,0.5,0.217,0.885,0.565,1.154c0.35,0.271,0.812,0.406,1.387,0.406
			c0.56,0,0.983-0.105,1.273-0.317C669.375,23.092,669.521,22.814,669.521,22.471z"/>
		<path fill="#1D1D1B" d="M681.743,22.113l1.501-6.517h2.066l-2.572,9.438h-1.746l-2.023-6.481l-1.987,6.481h-1.746l-2.582-9.438
			h2.067l1.526,6.446l1.937-6.446h1.598L681.743,22.113z"/>
		<path fill="#1D1D1B" d="M690.887,25.211c-1.344,0-2.434-0.424-3.268-1.27c-0.834-0.848-1.252-1.975-1.252-3.381v-0.263
			c0-0.941,0.182-1.783,0.545-2.524s0.874-1.318,1.531-1.731c0.656-0.413,1.391-0.62,2.198-0.62c1.285,0,2.277,0.41,2.979,1.23
			s1.051,1.979,1.051,3.479v0.855h-6.168c0.064,0.779,0.324,1.396,0.781,1.85c0.457,0.453,1.031,0.682,1.723,0.682
			c0.973,0,1.764-0.394,2.373-1.179l1.145,1.091c-0.379,0.563-0.884,1.002-1.515,1.312
			C692.379,25.054,691.672,25.211,690.887,25.211z M690.633,17.123c-0.581,0-1.051,0.204-1.408,0.611
			c-0.356,0.407-0.586,0.974-0.686,1.701h4.039v-0.157c-0.046-0.71-0.234-1.246-0.566-1.609
			C691.68,17.306,691.221,17.123,690.633,17.123z"/>
		<path fill="#1D1D1B" d="M701.26,17.533c-0.278-0.046-0.566-0.069-0.863-0.069c-0.973,0-1.627,0.372-1.964,1.116v6.456h-2.12
			v-9.438h2.024l0.052,1.056c0.513-0.82,1.223-1.23,2.129-1.23c0.304,0,0.554,0.041,0.75,0.122L701.26,17.533z"/>
	</g>
</g>
</svg>
