<?xml version="1.0" encoding="utf-8"?>
<!-- Generator: Adobe Illustrator 16.0.0, SVG Export Plug-In . SVG Version: 6.00 Build 0)  -->
<!DOCTYPE svg PUBLIC "-//W3C//DTD SVG 1.1//EN" "http://www.w3.org/Graphics/SVG/1.1/DTD/svg11.dtd">
<svg version="1.1" id="Layer_1" xmlns="http://www.w3.org/2000/svg" xmlns:xlink="http://www.w3.org/1999/xlink" x="0px" y="0px"
	 width="860px" height="71.239px" viewBox="1.5 0 860 71.239" enable-background="new 1.5 0 860 71.239" xml:space="preserve">
<metadata><?xpacket begin="﻿" id="W5M0MpCehiHzreSzNTczkc9d"?>
<x:xmpmeta xmlns:x="adobe:ns:meta/" x:xmptk="Adobe XMP Core 5.3-c011 66.145661, 2012/02/06-14:56:27        ">
   <rdf:RDF xmlns:rdf="http://www.w3.org/1999/02/22-rdf-syntax-ns#">
      <rdf:Description rdf:about=""
            xmlns:dc="http://purl.org/dc/elements/1.1/">
         <dc:format>image/svg+xml</dc:format>
         <dc:title>
            <rdf:Alt>
               <rdf:li xml:lang="x-default">howtouse7</rdf:li>
            </rdf:Alt>
         </dc:title>
      </rdf:Description>
      <rdf:Description rdf:about=""
            xmlns:xmp="http://ns.adobe.com/xap/1.0/"
            xmlns:xmpGImg="http://ns.adobe.com/xap/1.0/g/img/">
         <xmp:MetadataDate>2019-04-14T01:28:07+02:00</xmp:MetadataDate>
         <xmp:ModifyDate>2019-04-14T01:28:07+02:00</xmp:ModifyDate>
         <xmp:CreateDate>2019-04-14T01:28:07+02:00</xmp:CreateDate>
         <xmp:CreatorTool>Adobe Illustrator CS6 (Macintosh)</xmp:CreatorTool>
         <xmp:Thumbnails>
            <rdf:Alt>
               <rdf:li rdf:parseType="Resource">
                  <xmpGImg:width>256</xmpGImg:width>
                  <xmpGImg:height>24</xmpGImg:height>
                  <xmpGImg:format>JPEG</xmpGImg:format>
                  <xmpGImg:image>/9j/4AAQSkZJRgABAgEASABIAAD/7QAsUGhvdG9zaG9wIDMuMAA4QklNA+0AAAAAABAASAAAAAEA&#xA;AQBIAAAAAQAB/+4ADkFkb2JlAGTAAAAAAf/bAIQABgQEBAUEBgUFBgkGBQYJCwgGBggLDAoKCwoK&#xA;DBAMDAwMDAwQDA4PEA8ODBMTFBQTExwbGxscHx8fHx8fHx8fHwEHBwcNDA0YEBAYGhURFRofHx8f&#xA;Hx8fHx8fHx8fHx8fHx8fHx8fHx8fHx8fHx8fHx8fHx8fHx8fHx8fHx8fHx8f/8AAEQgAGAEAAwER&#xA;AAIRAQMRAf/EAaIAAAAHAQEBAQEAAAAAAAAAAAQFAwIGAQAHCAkKCwEAAgIDAQEBAQEAAAAAAAAA&#xA;AQACAwQFBgcICQoLEAACAQMDAgQCBgcDBAIGAnMBAgMRBAAFIRIxQVEGE2EicYEUMpGhBxWxQiPB&#xA;UtHhMxZi8CRygvElQzRTkqKyY3PCNUQnk6OzNhdUZHTD0uIIJoMJChgZhJRFRqS0VtNVKBry4/PE&#xA;1OT0ZXWFlaW1xdXl9WZ2hpamtsbW5vY3R1dnd4eXp7fH1+f3OEhYaHiImKi4yNjo+Ck5SVlpeYmZ&#xA;qbnJ2en5KjpKWmp6ipqqusra6voRAAICAQIDBQUEBQYECAMDbQEAAhEDBCESMUEFURNhIgZxgZEy&#xA;obHwFMHR4SNCFVJicvEzJDRDghaSUyWiY7LCB3PSNeJEgxdUkwgJChgZJjZFGidkdFU38qOzwygp&#xA;0+PzhJSktMTU5PRldYWVpbXF1eX1RlZmdoaWprbG1ub2R1dnd4eXp7fH1+f3OEhYaHiImKi4yNjo&#xA;+DlJWWl5iZmpucnZ6fkqOkpaanqKmqq6ytrq+v/aAAwDAQACEQMRAD8ACaXN+W0ulRnU9WWC+dVV&#xA;lhZ+SP60isz1R0K+k8bUU1PEiqk79JPNPi9NV8P1utjAVur6lf8A5XrrN6NOu4201oa2TSyzHjML&#xA;njQ0VH4tB8W9aDvyyMMk+EWRfw7v1qYxvbk3eaj+V51OGKG5hFi9w/qzxSzrwhEI4V9USMQZmbon&#xA;Lio7nGOSfDzF15fjkpjG+SKm/wCVMzXk8keuyW9u93KIYAzFUtgD6ZDNDI+56Vqw2B7tkRnygfw8&#xA;u8c/myMIX1SfzE3kO3sLafRtTM800jI8cs0TUSNRWQqqxsvqO9FVhtxPUEHLcWYkkSphOAra0VoW&#xA;p/lh+jIItYmH12QTmeeOR19OisIuhdSSSCPg7bntkcmSd+kivgmMY1uFeGP8ontS8nmGSO4CNSOp&#xA;ariMcekFADJXavTvtvE58l8o/P8Aanw4+bV/J+Ua3iwWusyPZpBK/wBaUkyNOODJGwdEFD8agqq9&#xA;icY5slWeG77/ANqmEb6qzf8AKnA80Ca45TnE0V40jV40YOoQW2+9K8gPEfZKuPHy8/T9n6/x9zwR&#xA;8/x8Eg1S+8mxR38OnXqTmO8T6hcyOQ8lqUk58loqghgnUA75fDKdrI5b+9hKPOkT5Xu/IMlrfjXt&#xA;Rjt5qL9Ucc5Gpwk5emI2VefPh/efDSu3hHNllY4a+YTCA6ppOn5OiQrD5hmKCB3DE1rMZGCR/wBw&#xA;poEAJNPiJ/ZplQz5e6Pz/ayOOPmtKflVKbCG11v47q9RLszTBDBaj1Azeo0UcW9Urs1KfMYfHmLu&#xA;th9vzXw4tqfyhSitrbyq/rcmDsHTgf3XH9yF+PvUNUb/AAHbHxsn9H7P1/jzXgj5pZ5gl/L2Kwil&#xA;0XV/XvTIiywSN8Pp+iOb1ZI9/VrtU7ZZizSJ9VV+PNjKArZj36R0/wD5aov+DX+uX+JHvDXwnud+&#xA;kdP/AOWqL/g1/rj4ke8Lwnud+kdP/wCWqL/g1/rj4ke8Lwnud+kdP/5aov8Ag1/rj4ke8Lwnud+k&#xA;dP8A+WqL/g1/rj4ke8Lwnud+kdP/AOWqL/g1/rj4ke8Lwnud+kdP/wCWqL/g1/rj4ke8Lwnud+kd&#xA;P/5aov8Ag1/rj4ke8Lwnud+kdP8A+WqL/g1/rj4ke8Lwnud+kdP/AOWqL/g1/rj4ke8Lwnud+kdP&#xA;/wCWqL/g1/rj4ke8Lwnud+kdP/5aov8Ag1/rj4ke8Lwnud+kdP8A+WqL/g1/rj4ke8Lwnud+kdP/&#xA;AOWqL/g1/rj4ke8Lwnud+kdP/wCWqL/g1/rj4ke8Lwnud+kdP/5aov8Ag1/rj4ke8Lwnud+kdP8A&#xA;+WqL/g1/rj4ke8Lwnuem+SPJ3lrVdCS71C2uZbkyOpeG9s4Fop2+CZg+YeozzjKgR8i3Y8cSN0v/&#xA;ADC8s6Fo0Nk2mQTwtM0glM91bXNQoWlBbs3Hr3yelzSnfF9xH3oywA5MLzMaXYq7FXYqi9JsP0jq&#xA;lnYeqIPrc0cAmYEhfUYLUhdz1yM5cMSe5MRZpm0n5ParPc20Gm3ttL6qP67zF4uDxl/2ShPFxH8P&#xA;f+YDMMa6IBJBbvAPRL5vyu123tY7u6u7K2t3tnu2lkkkoiI0K8WKxt8R+spTjUdakEZMayJNAHnX&#xA;3/qY+CUj8zeW77y5qz6XfSRSXUaq8ggYuq8xyUEkLvxofpy7DlGSPEOTCcDE0Uqy1i7FXYq7FUTp&#xA;mnXOpajbafagG4u5FhiDHivJzQVORnMRBJ6JAs0ySP8ALPzBI4CzWnptPJb+t6p4cooGuHavH7Ii&#xA;XlX3p1rTHOrh5/g02eCUPJ5B1aISGW4th6KhpVWQsRy9UhRReJJW3kYfFTbrUishqYnv/H9qPCKL&#xA;H5X6/Jc+lby27Rk3HGSR/TAFvMsPx1BVWZpFoAx675D85Ct76fanwSkWs+X77SEsnumjZb6FbiEx&#xA;ktRWAPFiQByFd6Vy/HlE7rowlEhLMsYuxV2KuxVtEZ3VFpyYgCpCip23JoB9OJV7Uv5Al/LVtEl5&#xA;EmtySCa7uWDNGE4ECGPj2BNS3fNP/KfrO3pcz8r6fN5R5n0GbQNeu9HmlWeS0ZVaVAQrckD7A/62&#xA;bTDk44iXe4s48JpK8sYuxV2KuxVm3kT8rb/zfp1xfW19FapbzeiUkVmJPENX4f8AWzD1OsGIgEW3&#xA;YsJmLTb81vyvt/Ldtb6vp8qC0l4Q3NqzUKzcd2i5GrK1CSvVfl0q0WsOQmJ5ss+Hh3Cd6F5G/NbR&#xA;dPFjaWukyQqzOGnWOV6t1+JlrlOTU4JmyZNkceQCtlDzF+W/5oeYVt47630uFYGYo1vwh+3QHlwX&#xA;fpksWrw47oyRPDOXOkn/AOVBeef9+WX/ACOf/qnlv8p4vNh+Vk7/AJUF55/35Zf8jn/6p4/yni81&#xA;/Kyd/wAqC88/78sv+Rz/APVPH+U8Xmv5WTv+VBeef9+WX/I5/wDqnj/KeLzX8rJa35D+fY2VkNoz&#xA;DcMkxBBHzUY/yli81/LTVv8AlTf5n8w/rx8weQb601QTXetP8o4Pz+H8Bfy81v8Aypb8yuKqZISi&#xA;jiENySvEkMVoRShYA0w/yhh/AX8vNdf/AJMfmTqN9Le3rW0tzcNyllaYCp6dFWgA8AMEdfhiKF0p&#xA;08ybKn/yoLzz/vyy/wCRz/8AVPD/ACni81/Kyd/yoLzz/vyy/wCRz/8AVPH+U8Xmv5WTv+VBeef9&#xA;+WX/ACOf/qnj/KeLzX8rJ3/KgvPP+/LL/kc//VPH+U8Xmv5WTX/KifP8MiSQta+opDK8c7KVINQQ&#xA;Sq7/ACx/lLEe9fy00V/yqX82OfP66OfLny+uPXmK/FXx+I75H87g7vsT4GRZ/wAqe/NKsjfWUrMv&#xA;CY/W2q61rxbxFT3w/nsHd9i+BNcPyj/NcOji8AeLn6bC8eq+oavxPbkfteOD89g7vsXwMihcfkp+&#xA;ZFyIxcSQzCFRHF6lyX4IOirUGg9hkh2hhHL7kHTzLX/Kg/PP+/LL/kc//VPH+U8Xmv5WTv8AlQXn&#xA;n/fll/yOf/qnj/KeLzX8rJ3/ACoLzz/vyy/5HP8A9U8f5Txea/lZO/5UF55/35Zf8jn/AOqeP8p4&#xA;vNfyslr/AJC+elFQbNz4LM38UGP8pYvNfy0k+l8h/m9L5bt9BeaH0LOYS2s63LLIqBSvpEgbpvVa&#xA;9PlSlI1OnEzLv8mfhZOGkjb8jPzBuJWlne2MjbtJJOzM3brxY5d/KOIcr+TD8tN3/KgvPP8Avyy/&#xA;5HP/ANU8f5Txea/lZO/5UF55/wB+WX/I5/8Aqnj/ACni81/Kyd/yoLzz/vyy/wCRz/8AVPH+U8Xm&#xA;v5WTv+VBeef9+WX/ACOf/qnj/KeLzX8rJUg/Jj8zLUMltPFEhNSIrpkBPStABgOvwnn9yjTzCY+Z&#xA;/wAtfzV8x3UU2oG2MdtGsVtAJ/gjRQBtUbs1Ks3f7srw6vBjG1sp4ckub//Z</xmpGImg:image>
               </rdf:li>
            </rdf:Alt>
         </xmp:Thumbnails>
      </rdf:Description>
      <rdf:Description rdf:about=""
            xmlns:xmpMM="http://ns.adobe.com/xap/1.0/mm/"
            xmlns:stRef="http://ns.adobe.com/xap/1.0/sType/ResourceRef#"
            xmlns:stEvt="http://ns.adobe.com/xap/1.0/sType/ResourceEvent#">
         <xmpMM:InstanceID>xmp.iid:1F0DCB3120206811822AB51A6D4001DF</xmpMM:InstanceID>
         <xmpMM:DocumentID>xmp.did:1F0DCB3120206811822AB51A6D4001DF</xmpMM:DocumentID>
         <xmpMM:OriginalDocumentID>uuid:5D20892493BFDB11914A8590D31508C8</xmpMM:OriginalDocumentID>
         <xmpMM:RenditionClass>proof:pdf</xmpMM:RenditionClass>
         <xmpMM:DerivedFrom rdf:parseType="Resource">
            <stRef:instanceID>uuid:16860d8f-57a0-874f-ac80-4fda96556570</stRef:instanceID>
            <stRef:documentID>xmp.did:0A80117407206811822AB51A6D4001DF</stRef:documentID>
            <stRef:originalDocumentID>uuid:5D20892493BFDB11914A8590D31508C8</stRef:originalDocumentID>
            <stRef:renditionClass>proof:pdf</stRef:renditionClass>
         </xmpMM:DerivedFrom>
         <xmpMM:History>
            <rdf:Seq>
               <rdf:li rdf:parseType="Resource">
                  <stEvt:action>saved</stEvt:action>
                  <stEvt:instanceID>xmp.iid:0280117407206811822AB51A6D4001DF</stEvt:instanceID>
                  <stEvt:when>2019-04-13T21:44:43+02:00</stEvt:when>
                  <stEvt:softwareAgent>Adobe Illustrator CS6 (Macintosh)</stEvt:softwareAgent>
                  <stEvt:changed>/</stEvt:changed>
               </rdf:li>
               <rdf:li rdf:parseType="Resource">
                  <stEvt:action>saved</stEvt:action>
                  <stEvt:instanceID>xmp.iid:1F0DCB3120206811822AB51A6D4001DF</stEvt:instanceID>
                  <stEvt:when>2019-04-14T01:28:07+02:00</stEvt:when>
                  <stEvt:softwareAgent>Adobe Illustrator CS6 (Macintosh)</stEvt:softwareAgent>
                  <stEvt:changed>/</stEvt:changed>
               </rdf:li>
            </rdf:Seq>
         </xmpMM:History>
      </rdf:Description>
      <rdf:Description rdf:about=""
            xmlns:illustrator="http://ns.adobe.com/illustrator/1.0/">
         <illustrator:StartupProfile>Print</illustrator:StartupProfile>
      </rdf:Description>
      <rdf:Description rdf:about=""
            xmlns:xmpTPg="http://ns.adobe.com/xap/1.0/t/pg/"
            xmlns:stDim="http://ns.adobe.com/xap/1.0/sType/Dimensions#"
            xmlns:xmpG="http://ns.adobe.com/xap/1.0/g/">
         <xmpTPg:HasVisibleOverprint>False</xmpTPg:HasVisibleOverprint>
         <xmpTPg:HasVisibleTransparency>False</xmpTPg:HasVisibleTransparency>
         <xmpTPg:NPages>1</xmpTPg:NPages>
         <xmpTPg:MaxPageSize rdf:parseType="Resource">
            <stDim:w>860.000000</stDim:w>
            <stDim:h>71.238770</stDim:h>
            <stDim:unit>Pixels</stDim:unit>
         </xmpTPg:MaxPageSize>
         <xmpTPg:PlateNames>
            <rdf:Seq>
               <rdf:li>Cyan</rdf:li>
               <rdf:li>Magenta</rdf:li>
               <rdf:li>Yellow</rdf:li>
               <rdf:li>Black</rdf:li>
            </rdf:Seq>
         </xmpTPg:PlateNames>
         <xmpTPg:SwatchGroups>
            <rdf:Seq>
               <rdf:li rdf:parseType="Resource">
                  <xmpG:groupName>Default Swatch Group</xmpG:groupName>
                  <xmpG:groupType>0</xmpG:groupType>
               </rdf:li>
            </rdf:Seq>
         </xmpTPg:SwatchGroups>
      </rdf:Description>
      <rdf:Description rdf:about=""
            xmlns:pdf="http://ns.adobe.com/pdf/1.3/">
         <pdf:Producer>Adobe PDF library 10.01</pdf:Producer>
      </rdf:Description>
   </rdf:RDF>
</x:xmpmeta>
                                                                                                    
                                                                                                    
                                                                                                    
                                                                                                    
                                                                                                    
                                                                                                    
                                                                                                    
                                                                                                    
                                                                                                    
                                                                                                    
                                                                                                    
                                                                                                    
                                                                                                    
                                                                                                    
                                                                                                    
                                                                                                    
                                                                                                    
                                                                                                    
                                                                                                    
                                                                                                    
                           
<?xpacket end="w"?>
	</metadata>
<g id="Layer_9">
	<rect fill="#4362AA" width="861.5" height="71.234"/>
</g>
<g id="Layer_2">
	<g>
		<rect x="811.423" y="27.055" fill="#4362AA" width="50.077" height="44.18"/>
		<polygon fill="#FFFFFF" points="819.411,55.444 836.46,55.444 836.46,66.192 853.511,49.143 836.46,32.095 836.46,42.842 
			819.411,42.842 		"/>
	</g>
</g>
<g id="Layer_3">
	<g>
		<rect x="636.724" y="27.055" fill="#4362AA" width="50.077" height="44.182"/>
		<polygon fill="#FFFFFF" points="678.812,42.846 661.762,42.846 661.762,32.1 644.713,49.148 661.762,66.197 661.762,55.448 
			678.812,55.448 		"/>
	</g>
</g>
<g id="Layer_5">
	<g>
		<rect x="390.632" y="27.055" fill="#4362AA" width="121.47" height="44.184"/>
		<g enable-background="new    ">
			<path fill="#FFFFFF" d="M405.106,56.27c-1.582,0-2.865-0.498-3.849-1.494c-0.982-0.998-1.475-2.324-1.475-3.982v-0.309
				c0-1.109,0.214-2.1,0.643-2.973c0.428-0.875,1.029-1.555,1.803-2.041c0.774-0.486,1.638-0.729,2.59-0.729
				c1.514,0,2.683,0.481,3.508,1.448c0.826,0.966,1.238,2.332,1.238,4.099v1.008H402.3c0.075,0.918,0.381,1.645,0.919,2.178
				c0.538,0.535,1.214,0.801,2.029,0.801c1.144,0,2.076-0.461,2.795-1.387l1.346,1.285c-0.444,0.664-1.04,1.18-1.782,1.547
				C406.864,56.086,406.031,56.27,405.106,56.27z M404.808,46.747c-0.685,0-1.237,0.238-1.659,0.719
				c-0.422,0.479-0.69,1.146-0.807,2.005h4.757v-0.187c-0.055-0.836-0.276-1.467-0.668-1.896
				C406.041,46.959,405.5,46.747,404.808,46.747z"/>
			<path fill="#FFFFFF" d="M416.545,48.606l2.117-3.658h2.773l-3.4,5.477l3.514,5.642h-2.753l-2.219-3.803l-2.209,3.803h-2.774
				l3.515-5.642l-3.391-5.477h2.753L416.545,48.606z"/>
			<path fill="#FFFFFF" d="M429.083,56.27c-1.582,0-2.865-0.498-3.848-1.494c-0.983-0.998-1.476-2.324-1.476-3.982v-0.309
				c0-1.109,0.214-2.1,0.644-2.973c0.428-0.875,1.028-1.555,1.803-2.041s1.637-0.729,2.589-0.729c1.514,0,2.684,0.481,3.509,1.448
				c0.825,0.966,1.238,2.332,1.238,4.099v1.008h-7.264c0.075,0.918,0.381,1.645,0.919,2.178c0.538,0.535,1.214,0.801,2.028,0.801
				c1.145,0,2.076-0.461,2.794-1.387l1.347,1.285c-0.445,0.664-1.039,1.18-1.782,1.547C430.842,56.086,430.008,56.27,429.083,56.27z
				 M428.786,46.747c-0.686,0-1.238,0.238-1.66,0.719c-0.421,0.479-0.69,1.146-0.806,2.005h4.757v-0.187
				c-0.055-0.836-0.277-1.467-0.668-1.896S429.477,46.747,428.786,46.747z"/>
			<path fill="#FFFFFF" d="M442.352,47.229c-0.327-0.055-0.668-0.082-1.017-0.082c-1.144,0-1.915,0.438-2.312,1.314v7.604h-2.497
				V44.948h2.384l0.062,1.244c0.604-0.967,1.438-1.449,2.507-1.449c0.355,0,0.65,0.047,0.885,0.143L442.352,47.229z"/>
			<path fill="#FFFFFF" d="M449.353,54.276c0.623,0,1.141-0.18,1.553-0.543c0.41-0.363,0.629-0.812,0.655-1.346h2.354
				c-0.027,0.691-0.243,1.336-0.647,1.936c-0.403,0.6-0.951,1.074-1.644,1.424c-0.692,0.351-1.438,0.523-2.24,0.523
				c-1.555,0-2.787-0.504-3.698-1.51c-0.91-1.008-1.365-2.398-1.365-4.172v-0.258c0-1.691,0.451-3.045,1.354-4.062
				c0.904-1.018,2.138-1.525,3.699-1.525c1.322,0,2.398,0.385,3.23,1.156c0.833,0.77,1.27,1.781,1.311,3.035h-2.354
				c-0.026-0.637-0.243-1.16-0.651-1.572c-0.406-0.41-0.926-0.615-1.556-0.615c-0.81,0-1.433,0.293-1.87,0.877
				c-0.438,0.586-0.661,1.476-0.668,2.666v0.402c0,1.205,0.217,2.104,0.651,2.695C447.902,53.981,448.53,54.276,449.353,54.276z"/>
			<path fill="#FFFFFF" d="M456.856,42.061c0-0.383,0.121-0.703,0.363-0.955c0.244-0.254,0.593-0.381,1.043-0.381
				c0.453,0,0.803,0.127,1.05,0.381c0.245,0.252,0.368,0.572,0.368,0.955c0,0.377-0.123,0.689-0.368,0.939
				c-0.247,0.25-0.597,0.375-1.05,0.375c-0.45,0-0.799-0.125-1.043-0.375C456.979,42.75,456.856,42.438,456.856,42.061z
				 M459.508,56.065h-2.497V44.948h2.497V56.065z"/>
			<path fill="#FFFFFF" d="M469.508,53.043c0-0.445-0.183-0.783-0.549-1.019c-0.367-0.231-0.975-0.438-1.824-0.614
				c-0.849-0.178-1.559-0.404-2.127-0.679c-1.246-0.604-1.869-1.478-1.869-2.621c0-0.959,0.404-1.76,1.212-2.403
				c0.81-0.644,1.836-0.965,3.083-0.965c1.328,0,2.402,0.327,3.222,0.985c0.818,0.657,1.228,1.51,1.228,2.56h-2.497
				c0-0.48-0.178-0.879-0.533-1.197c-0.356-0.318-0.829-0.479-1.418-0.479c-0.549,0-0.995,0.127-1.342,0.382
				c-0.346,0.254-0.519,0.592-0.519,1.018c0,0.383,0.161,0.682,0.482,0.893c0.322,0.213,0.974,0.428,1.951,0.643
				c0.98,0.218,1.749,0.474,2.308,0.771c0.559,0.297,0.973,0.654,1.243,1.072s0.405,0.926,0.405,1.521c0,1-0.415,1.811-1.243,2.43
				s-1.914,0.93-3.257,0.93c-0.911,0-1.723-0.164-2.435-0.494c-0.713-0.328-1.269-0.779-1.664-1.355
				c-0.398-0.573-0.598-1.194-0.598-1.858h2.426c0.033,0.59,0.257,1.043,0.668,1.36c0.409,0.318,0.955,0.479,1.633,0.479
				c0.658,0,1.158-0.125,1.5-0.375C469.337,53.776,469.508,53.448,469.508,53.043z"/>
			<path fill="#FFFFFF" d="M480.084,56.27c-1.582,0-2.864-0.498-3.848-1.494c-0.982-0.998-1.476-2.324-1.476-3.982v-0.309
				c0-1.109,0.215-2.1,0.644-2.973c0.428-0.875,1.028-1.555,1.803-2.041s1.638-0.729,2.59-0.729c1.514,0,2.685,0.481,3.508,1.448
				c0.826,0.966,1.238,2.332,1.238,4.099v1.008h-7.264c0.076,0.918,0.382,1.645,0.92,2.178c0.537,0.535,1.214,0.801,2.029,0.801
				c1.144,0,2.074-0.461,2.795-1.387l1.346,1.285c-0.445,0.664-1.04,1.18-1.783,1.547C481.843,56.086,481.01,56.27,480.084,56.27z
				 M479.787,46.747c-0.687,0-1.238,0.238-1.66,0.719c-0.421,0.479-0.689,1.146-0.807,2.005h4.758v-0.187
				c-0.057-0.836-0.277-1.467-0.668-1.896S480.479,46.747,479.787,46.747z"/>
			<path fill="#FFFFFF" d="M493.764,53.043c0-0.445-0.184-0.783-0.55-1.019c-0.366-0.231-0.975-0.438-1.823-0.614
				c-0.85-0.179-1.559-0.404-2.127-0.679c-1.247-0.604-1.869-1.478-1.869-2.621c0-0.959,0.402-1.76,1.212-2.403
				c0.809-0.644,1.836-0.965,3.081-0.965c1.329,0,2.402,0.327,3.222,0.985c0.819,0.657,1.229,1.51,1.229,2.56h-2.496
				c0-0.48-0.179-0.879-0.534-1.197s-0.828-0.479-1.418-0.479c-0.549,0-0.994,0.127-1.341,0.382c-0.347,0.254-0.52,0.592-0.52,1.018
				c0,0.383,0.161,0.682,0.481,0.893c0.322,0.213,0.974,0.428,1.953,0.643c0.979,0.218,1.748,0.474,2.308,0.771
				c0.558,0.297,0.973,0.654,1.242,1.072c0.271,0.418,0.405,0.926,0.405,1.521c0,1-0.414,1.811-1.242,2.43
				c-0.829,0.619-1.916,0.93-3.258,0.93c-0.911,0-1.723-0.164-2.436-0.494c-0.712-0.328-1.268-0.779-1.664-1.355
				c-0.396-0.573-0.596-1.194-0.596-1.858h2.425c0.034,0.59,0.257,1.043,0.668,1.36c0.411,0.318,0.955,0.479,1.634,0.479
				c0.657,0,1.157-0.125,1.5-0.375C493.592,53.776,493.764,53.448,493.764,53.043z"/>
		</g>
	</g>
</g>
<g id="Layer_6">
	<g>
		<rect x="174.7" y="27.055" fill="#4362AA" width="91.311" height="44.18"/>
		<g enable-background="new    ">
			<path fill="#FFFFFF" d="M189.702,41.415v2.765h1.829v2.401h-1.829v5.086c0,0.418,0.075,0.709,0.226,0.873
				c0.15,0.166,0.449,0.248,0.894,0.248c0.342,0,0.63-0.021,0.863-0.062v2.478c-0.623,0.198-1.274,0.297-1.952,0.297
				c-1.192,0-2.072-0.279-2.64-0.842c-0.569-0.562-0.853-1.414-0.853-2.56v-5.519h-1.418v-2.401h1.418v-2.765H189.702z"/>
			<path fill="#FFFFFF" d="M197.33,45.37c0.74-0.932,1.685-1.397,2.835-1.397c1.226,0,2.151,0.362,2.774,1.09
				s0.942,1.799,0.956,3.215v7.019h-3.473V48.36c0-0.59-0.12-1.023-0.359-1.301c-0.24-0.277-0.647-0.416-1.223-0.416
				c-0.712,0-1.216,0.227-1.51,0.678v7.973h-3.462V39.512h3.462V45.37z"/>
			<path fill="#FFFFFF" d="M212.252,55.499c-1.706,0-3.086-0.508-4.141-1.524c-1.055-1.017-1.582-2.341-1.582-3.972v-0.287
				c0-1.137,0.21-2.141,0.632-3.01c0.421-0.871,1.036-1.543,1.844-2.02s1.767-0.715,2.876-0.715c1.562,0,2.794,0.484,3.699,1.455
				c0.904,0.969,1.356,2.32,1.356,4.053v1.346h-6.883c0.123,0.623,0.394,1.113,0.812,1.469c0.417,0.357,0.959,0.535,1.624,0.535
				c1.096,0,1.952-0.385,2.568-1.149l1.582,1.868c-0.431,0.597-1.042,1.07-1.834,1.425
				C214.014,55.323,213.163,55.499,212.252,55.499z M211.861,46.643c-1.014,0-1.617,0.672-1.808,2.014h3.493v-0.268
				c0.014-0.555-0.127-0.984-0.421-1.289S212.409,46.643,211.861,46.643z"/>
			<path fill="#FFFFFF" d="M218.944,49.633c0-1.109,0.216-2.098,0.647-2.965c0.432-0.865,1.051-1.531,1.859-1.998
				c0.808-0.465,1.757-0.699,2.846-0.699c1.664,0,2.976,0.516,3.935,1.547c0.958,1.031,1.438,2.434,1.438,4.207v0.123
				c0,1.734-0.481,3.109-1.443,4.125c-0.962,1.018-2.266,1.525-3.909,1.525c-1.583,0-2.853-0.474-3.812-1.422
				c-0.959-0.949-1.476-2.234-1.551-3.857L218.944,49.633z M222.407,49.848c0,1.027,0.161,1.781,0.483,2.262
				c0.322,0.479,0.798,0.719,1.428,0.719c1.233,0,1.863-0.949,1.89-2.846v-0.35c0-1.994-0.637-2.99-1.911-2.99
				c-1.158,0-1.785,0.859-1.88,2.578L222.407,49.848z"/>
			<path fill="#FFFFFF" d="M238.973,47.311l-1.141-0.082c-1.089,0-1.788,0.342-2.096,1.027v7.037h-3.462V44.178h3.247l0.113,1.428
				c0.582-1.09,1.394-1.635,2.435-1.635c0.37,0,0.692,0.041,0.966,0.123L238.973,47.311z"/>
			<path fill="#FFFFFF" d="M245.717,50.444l1.849-6.266h3.709l-4.531,12.975l-0.195,0.473c-0.644,1.439-1.781,2.158-3.411,2.158
				c-0.452,0-0.928-0.068-1.428-0.205v-2.467h0.452c0.486,0,0.858-0.07,1.115-0.211c0.257-0.141,0.447-0.393,0.57-0.756l0.277-0.74
				l-3.863-11.227h3.699L245.717,50.444z"/>
		</g>
	</g>
</g>
<g id="Layer_7">
	<g>
		<rect y="27.055" fill="#4362AA" width="50.078" height="44.182"/>
		<path fill="#FFFFFF" d="M40.993,61.958H9.084v-5.742h31.909V61.958z M40.993,46.275H9.084v5.743h31.909V46.275z M40.993,36.334
			H9.084v5.742h31.909V36.334z"/>
	</g>
</g>
<g id="Layer_8">
	<rect fill="#4362AA" width="401.501" height="28.161"/>
	<g enable-background="new    ">
		<path fill="#FFFFFF" d="M15.922,7.602v8.192c0,1.302-0.417,2.333-1.25,3.094c-0.833,0.761-1.944,1.141-3.33,1.141
			c-1.403,0-2.518-0.374-3.343-1.124c-0.825-0.749-1.238-1.789-1.238-3.119V7.602h2.122v8.2c0,0.82,0.208,1.445,0.623,1.878
			c0.415,0.433,1.027,0.648,1.835,0.648c1.639,0,2.458-0.864,2.458-2.594V7.602H15.922z"/>
		<path fill="#FFFFFF" d="M19.896,10.75l0.059,1.053c0.673-0.813,1.558-1.221,2.652-1.221c1.897,0,2.862,1.086,2.896,3.258v6.021
			h-2.046v-5.902c0-0.578-0.125-1.006-0.375-1.284c-0.25-0.277-0.658-0.416-1.225-0.416c-0.825,0-1.44,0.373-1.844,1.119v6.483
			h-2.046v-9.11L19.896,10.75L19.896,10.75z"/>
		<path fill="#FFFFFF" d="M27.592,8.385c0-0.314,0.1-0.575,0.299-0.783c0.199-0.208,0.484-0.312,0.854-0.312
			s0.657,0.104,0.859,0.312s0.303,0.469,0.303,0.783c0,0.309-0.101,0.565-0.303,0.771c-0.202,0.204-0.489,0.307-0.859,0.307
			c-0.371,0-0.656-0.103-0.854-0.307C27.691,8.95,27.592,8.693,27.592,8.385z M29.764,19.86h-2.046v-9.11h2.046V19.86z"/>
		<path fill="#FFFFFF" d="M34.555,8.536v2.214h1.608v1.516h-1.608v5.086c0,0.348,0.069,0.599,0.207,0.753
			c0.137,0.155,0.383,0.231,0.737,0.231c0.235,0,0.474-0.027,0.715-0.084v1.583c-0.466,0.129-0.915,0.193-1.347,0.193
			c-1.571,0-2.357-0.867-2.357-2.602v-5.161h-1.5V10.75h1.499V8.536H34.555z"/>
		<path fill="#FFFFFF" d="M47.429,19.86h-2.038v-9.849l-3.006,1.024V9.319l4.782-1.76h0.261L47.429,19.86L47.429,19.86z"/>
		<path fill="#FFFFFF" d="M54.055,12.796h1.246c0.628-0.005,1.127-0.168,1.495-0.488c0.367-0.319,0.551-0.782,0.551-1.389
			c0-0.584-0.153-1.037-0.459-1.36c-0.306-0.322-0.773-0.483-1.402-0.483c-0.55,0-1.002,0.158-1.355,0.476
			c-0.353,0.318-0.53,0.73-0.53,1.241h-2.046c0-0.628,0.167-1.201,0.501-1.717c0.333-0.517,0.8-0.92,1.397-1.209
			c0.597-0.289,1.267-0.434,2.008-0.434c1.224,0,2.185,0.308,2.883,0.922c0.699,0.615,1.048,1.47,1.048,2.564
			c0,0.55-0.175,1.067-0.526,1.553c-0.351,0.486-0.804,0.853-1.36,1.1c0.673,0.229,1.186,0.592,1.537,1.086
			c0.351,0.494,0.526,1.083,0.526,1.768c0,1.101-0.377,1.977-1.132,2.627c-0.755,0.651-1.747,0.977-2.976,0.977
			c-1.179,0-2.145-0.313-2.896-0.942c-0.752-0.629-1.128-1.465-1.128-2.509h2.046c0,0.538,0.181,0.977,0.543,1.313
			c0.362,0.336,0.849,0.505,1.46,0.505c0.634,0,1.134-0.169,1.499-0.505c0.365-0.337,0.547-0.825,0.547-1.466
			c0-0.646-0.19-1.142-0.572-1.49s-0.949-0.521-1.701-0.521h-1.204V12.796z"/>
		<path fill="#FFFFFF" d="M69.648,8.738l-4.9,11.122h-2.147l4.892-10.617h-6.34V7.602h8.495V8.738z"/>
		<path fill="#FFFFFF" d="M78.278,8.536v2.214h1.608v1.516h-1.608v5.086c0,0.348,0.069,0.599,0.207,0.753
			c0.137,0.155,0.383,0.231,0.737,0.231c0.235,0,0.474-0.027,0.715-0.084v1.583c-0.466,0.129-0.915,0.193-1.347,0.193
			c-1.571,0-2.357-0.867-2.357-2.602v-5.161h-1.499V10.75h1.499V8.536H78.278z"/>
		<path fill="#FFFFFF" d="M83.465,11.744c0.667-0.775,1.512-1.162,2.534-1.162c1.942,0,2.927,1.108,2.955,3.325v5.953h-2.046v-5.877
			c0-0.629-0.136-1.073-0.408-1.334c-0.272-0.262-0.672-0.392-1.2-0.392c-0.82,0-1.432,0.364-1.835,1.094v6.509h-2.046V6.928h2.046
			V11.744z"/>
		<path fill="#FFFFFF" d="M95.033,20.028c-1.296,0-2.348-0.408-3.153-1.225c-0.806-0.816-1.208-1.904-1.208-3.263v-0.253
			c0-0.909,0.175-1.722,0.526-2.438c0.351-0.715,0.843-1.272,1.478-1.671c0.635-0.399,1.341-0.598,2.122-0.598
			c1.241,0,2.199,0.396,2.875,1.188c0.676,0.791,1.015,1.911,1.015,3.359v0.825h-5.953c0.062,0.752,0.313,1.347,0.753,1.784
			c0.44,0.438,0.995,0.657,1.663,0.657c0.937,0,1.701-0.379,2.29-1.137l1.103,1.053c-0.365,0.544-0.852,0.967-1.461,1.267
			C96.475,19.879,95.791,20.028,95.033,20.028z M94.789,12.224c-0.561,0-1.015,0.196-1.36,0.59
			c-0.345,0.393-0.565,0.939-0.661,1.642h3.898v-0.151c-0.045-0.686-0.228-1.203-0.547-1.554
			C95.799,12.399,95.356,12.224,94.789,12.224z"/>
		<path fill="#FFFFFF" d="M99.891,15.221c0-0.892,0.177-1.696,0.531-2.412c0.354-0.716,0.85-1.266,1.49-1.65
			c0.64-0.384,1.375-0.576,2.206-0.576c1.229,0,2.227,0.396,2.993,1.188c0.767,0.791,1.18,1.841,1.242,3.148l0.008,0.479
			c0,0.898-0.172,1.701-0.518,2.408c-0.345,0.708-0.839,1.255-1.482,1.643c-0.643,0.387-1.385,0.58-2.227,0.58
			c-1.286,0-2.314-0.428-3.086-1.283c-0.772-0.856-1.158-1.997-1.158-3.423L99.891,15.221L99.891,15.221z M101.937,15.397
			c0,0.938,0.194,1.672,0.581,2.202c0.387,0.53,0.926,0.796,1.617,0.796c0.691,0,1.228-0.27,1.612-0.809
			c0.384-0.539,0.577-1.327,0.577-2.366c0-0.92-0.198-1.649-0.593-2.188c-0.396-0.539-0.934-0.809-1.613-0.809
			c-0.668,0-1.198,0.266-1.591,0.796C102.134,13.55,101.937,14.343,101.937,15.397z"/>
		<path fill="#FFFFFF" d="M114.861,12.619c-0.27-0.045-0.547-0.067-0.833-0.067c-0.938,0-1.569,0.359-1.895,1.078v6.23h-2.046v-9.11
			h1.954l0.05,1.02c0.494-0.792,1.179-1.188,2.055-1.188c0.292,0,0.533,0.039,0.724,0.118L114.861,12.619z"/>
		<path fill="#FFFFFF" d="M119.341,16.931l1.853-6.181h2.181l-3.621,10.491c-0.556,1.532-1.499,2.299-2.829,2.299
			c-0.298,0-0.626-0.051-0.985-0.152v-1.591l0.387,0.025c0.517,0,0.905-0.094,1.167-0.282c0.261-0.188,0.467-0.503,0.619-0.946
			l0.294-0.782l-3.199-9.062h2.206L119.341,16.931z"/>
	</g>
	<g enable-background="new    ">
		<path fill="#FFFFFF" d="M145.793,15.313v4.547h-2.13V7.602h4.69c1.369,0,2.457,0.356,3.262,1.07
			c0.806,0.714,1.208,1.658,1.208,2.832c0,1.202-0.395,2.138-1.183,2.807c-0.788,0.669-1.893,1.003-3.313,1.003L145.793,15.313
			L145.793,15.313z M145.793,13.596h2.56c0.758,0,1.335-0.178,1.734-0.534c0.398-0.356,0.598-0.871,0.598-1.545
			c0-0.662-0.202-1.191-0.606-1.587c-0.404-0.396-0.959-0.6-1.667-0.61h-2.618L145.793,13.596L145.793,13.596z"/>
		<path fill="#FFFFFF" d="M156.503,11.744c0.667-0.775,1.512-1.162,2.534-1.162c1.942,0,2.927,1.108,2.955,3.325v5.953h-2.046
			v-5.877c0-0.629-0.136-1.073-0.408-1.334c-0.272-0.262-0.672-0.392-1.2-0.392c-0.82,0-1.432,0.364-1.835,1.094v6.509h-2.046V6.928
			h2.046V11.744L156.503,11.744z"/>
		<path fill="#FFFFFF" d="M168.829,12.619c-0.27-0.045-0.547-0.067-0.833-0.067c-0.938,0-1.569,0.359-1.895,1.078v6.23h-2.046v-9.11
			h1.954l0.05,1.02c0.494-0.792,1.179-1.188,2.055-1.188c0.292,0,0.533,0.039,0.724,0.118L168.829,12.619z"/>
		<path fill="#FFFFFF" d="M175.312,19.86c-0.09-0.174-0.168-0.457-0.236-0.851c-0.651,0.68-1.448,1.019-2.391,1.019
			c-0.915,0-1.662-0.261-2.24-0.782c-0.578-0.522-0.867-1.168-0.867-1.937c0-0.972,0.36-1.717,1.082-2.235
			c0.721-0.52,1.752-0.779,3.094-0.779h1.254v-0.598c0-0.472-0.132-0.849-0.396-1.133c-0.264-0.283-0.665-0.425-1.204-0.425
			c-0.466,0-0.848,0.116-1.145,0.35c-0.298,0.232-0.446,0.529-0.446,0.888h-2.046c0-0.499,0.165-0.967,0.497-1.401
			c0.331-0.436,0.782-0.776,1.351-1.023c0.57-0.247,1.206-0.37,1.907-0.37c1.066,0,1.917,0.268,2.551,0.804
			c0.634,0.536,0.96,1.29,0.977,2.261v4.109c0,0.819,0.115,1.473,0.345,1.961v0.144h-2.087V19.86z M173.064,18.387
			c0.404,0,0.784-0.098,1.141-0.295c0.356-0.196,0.625-0.46,0.804-0.791v-1.718h-1.103c-0.758,0-1.328,0.132-1.709,0.396
			c-0.382,0.265-0.573,0.638-0.573,1.12c0,0.393,0.13,0.706,0.392,0.938C172.276,18.271,172.626,18.387,173.064,18.387z"/>
		<path fill="#FFFFFF" d="M184.304,17.385c0-0.364-0.15-0.643-0.451-0.833c-0.3-0.191-0.798-0.359-1.494-0.506
			c-0.696-0.146-1.277-0.331-1.743-0.556c-1.021-0.493-1.532-1.209-1.532-2.146c0-0.786,0.331-1.442,0.994-1.971
			c0.662-0.527,1.504-0.791,2.526-0.791c1.089,0,1.969,0.27,2.64,0.809c0.67,0.538,1.006,1.237,1.006,2.096h-2.046
			c0-0.393-0.146-0.72-0.438-0.98c-0.292-0.26-0.679-0.392-1.162-0.392c-0.449,0-0.815,0.104-1.099,0.312
			c-0.283,0.208-0.425,0.485-0.425,0.834c0,0.314,0.132,0.559,0.396,0.732c0.264,0.173,0.797,0.349,1.6,0.526
			c0.803,0.177,1.433,0.387,1.891,0.631c0.457,0.244,0.797,0.538,1.019,0.88c0.222,0.343,0.333,0.758,0.333,1.246
			c0,0.819-0.34,1.483-1.019,1.991c-0.679,0.508-1.569,0.762-2.669,0.762c-0.747,0-1.412-0.135-1.995-0.403
			c-0.584-0.27-1.039-0.641-1.364-1.111c-0.325-0.472-0.488-0.979-0.488-1.524h1.987c0.028,0.482,0.21,0.854,0.547,1.115
			c0.336,0.262,0.783,0.392,1.338,0.392c0.539,0,0.949-0.103,1.229-0.307C184.164,17.984,184.304,17.716,184.304,17.385z"/>
		<path fill="#FFFFFF" d="M193.541,19.86c-0.09-0.174-0.168-0.457-0.236-0.851c-0.651,0.68-1.448,1.019-2.391,1.019
			c-0.915,0-1.662-0.261-2.24-0.782c-0.578-0.522-0.867-1.168-0.867-1.937c0-0.972,0.36-1.717,1.082-2.235
			c0.721-0.52,1.752-0.779,3.094-0.779h1.254v-0.598c0-0.472-0.132-0.849-0.396-1.133c-0.264-0.283-0.665-0.425-1.204-0.425
			c-0.466,0-0.848,0.116-1.145,0.35c-0.298,0.232-0.446,0.529-0.446,0.888H188c0-0.499,0.165-0.967,0.497-1.401
			c0.331-0.436,0.782-0.776,1.351-1.023c0.57-0.247,1.206-0.37,1.907-0.37c1.066,0,1.917,0.268,2.551,0.804
			c0.634,0.536,0.96,1.29,0.977,2.261v4.109c0,0.819,0.115,1.473,0.345,1.961v0.144h-2.087V19.86z M191.292,18.387
			c0.404,0,0.784-0.098,1.141-0.295c0.356-0.196,0.625-0.46,0.804-0.791v-1.718h-1.103c-0.758,0-1.328,0.132-1.709,0.396
			c-0.382,0.265-0.573,0.638-0.573,1.12c0,0.393,0.13,0.706,0.392,0.938C190.505,18.271,190.854,18.387,191.292,18.387z"/>
		<path fill="#FFFFFF" d="M199.603,19.86h-2.046V6.928h2.046V19.86z"/>
		<path fill="#FFFFFF" d="M209.335,17.268l1.928-6.518h2.113l-3.157,9.11h-1.777l-3.183-9.11h2.122L209.335,17.268z"/>
		<path fill="#FFFFFF" d="M218.665,20.028c-1.296,0-2.348-0.408-3.153-1.225c-0.806-0.816-1.208-1.904-1.208-3.263v-0.253
			c0-0.909,0.175-1.722,0.526-2.438c0.351-0.715,0.843-1.272,1.478-1.671c0.635-0.399,1.341-0.598,2.122-0.598
			c1.241,0,2.199,0.396,2.875,1.188c0.676,0.791,1.015,1.911,1.015,3.359v0.825h-5.953c0.062,0.752,0.313,1.347,0.753,1.784
			c0.44,0.438,0.995,0.657,1.663,0.657c0.937,0,1.701-0.379,2.29-1.137l1.103,1.053c-0.365,0.544-0.852,0.967-1.461,1.267
			C220.106,19.879,219.422,20.028,218.665,20.028z M218.42,12.224c-0.561,0-1.015,0.196-1.36,0.59
			c-0.345,0.393-0.565,0.939-0.661,1.642h3.898v-0.151c-0.045-0.686-0.228-1.203-0.547-1.554
			C219.431,12.399,218.987,12.224,218.42,12.224z"/>
		<path fill="#FFFFFF" d="M228.675,12.619c-0.27-0.045-0.547-0.067-0.833-0.067c-0.938,0-1.569,0.359-1.895,1.078v6.23h-2.046v-9.11
			h1.954l0.05,1.02c0.494-0.792,1.179-1.188,2.055-1.188c0.292,0,0.533,0.039,0.724,0.118L228.675,12.619z"/>
		<path fill="#FFFFFF" d="M237.962,15.397c0,1.415-0.315,2.54-0.947,3.377c-0.632,0.836-1.5,1.254-2.606,1.254
			c-1.067,0-1.897-0.384-2.492-1.153l-0.101,0.985h-1.853V6.928h2.046v4.698c0.589-0.696,1.384-1.044,2.383-1.044
			c1.111,0,1.984,0.412,2.619,1.237c0.635,0.825,0.951,1.979,0.951,3.461V15.397z M235.917,15.221c0-0.987-0.174-1.729-0.522-2.223
			c-0.348-0.493-0.853-0.74-1.516-0.74c-0.887,0-1.51,0.387-1.869,1.161v3.756c0.365,0.791,0.994,1.187,1.886,1.187
			c0.64,0,1.134-0.238,1.482-0.716c0.348-0.477,0.527-1.198,0.539-2.163V15.221z"/>
		<path fill="#FFFFFF" d="M244.782,17.385c0-0.364-0.15-0.643-0.451-0.833c-0.3-0.191-0.798-0.359-1.494-0.506
			c-0.696-0.146-1.277-0.331-1.743-0.556c-1.021-0.493-1.532-1.209-1.532-2.146c0-0.786,0.331-1.442,0.994-1.971
			c0.662-0.527,1.504-0.791,2.526-0.791c1.089,0,1.969,0.27,2.64,0.809c0.67,0.538,1.006,1.237,1.006,2.096h-2.046
			c0-0.393-0.146-0.72-0.438-0.98c-0.292-0.26-0.679-0.392-1.162-0.392c-0.449,0-0.815,0.104-1.099,0.312
			c-0.283,0.208-0.425,0.485-0.425,0.834c0,0.314,0.132,0.559,0.396,0.732c0.264,0.173,0.797,0.349,1.6,0.526
			c0.803,0.177,1.433,0.387,1.891,0.631c0.457,0.244,0.797,0.538,1.019,0.88c0.222,0.343,0.333,0.758,0.333,1.246
			c0,0.819-0.34,1.483-1.019,1.991c-0.679,0.508-1.569,0.762-2.669,0.762c-0.747,0-1.412-0.135-1.995-0.403
			c-0.584-0.27-1.039-0.641-1.364-1.111c-0.325-0.472-0.488-0.979-0.488-1.524h1.987c0.028,0.482,0.21,0.854,0.547,1.115
			c0.336,0.262,0.783,0.392,1.338,0.392c0.539,0,0.949-0.103,1.229-0.307C244.642,17.984,244.782,17.716,244.782,17.385z"/>
		<path fill="#FFFFFF" d="M258.279,19.86h-2.038v-9.849l-3.006,1.024V9.319l4.782-1.76h0.261L258.279,19.86L258.279,19.86z"/>
	</g>
	<g enable-background="new    ">
		<path fill="#FFFFFF" d="M292.255,18.269c-0.444,0.579-1.058,1.017-1.844,1.313c-0.786,0.298-1.678,0.446-2.677,0.446
			c-1.027,0-1.937-0.232-2.728-0.698s-1.402-1.133-1.831-2c-0.43-0.867-0.653-1.879-0.669-3.035v-0.96
			c0-1.853,0.443-3.299,1.33-4.34c0.887-1.041,2.125-1.562,3.713-1.562c1.364,0,2.447,0.339,3.25,1.015
			c0.802,0.677,1.285,1.649,1.448,2.918h-2.088c-0.236-1.477-1.092-2.215-2.568-2.215c-0.955,0-1.68,0.344-2.177,1.03
			c-0.497,0.688-0.753,1.695-0.77,3.024v0.942c0,1.323,0.279,2.351,0.837,3.083c0.559,0.731,1.334,1.098,2.328,1.098
			c1.089,0,1.864-0.247,2.324-0.741v-2.399h-2.526v-1.616h4.648V18.269L292.255,18.269z"/>
		<path fill="#FFFFFF" d="M298.41,20.028c-1.296,0-2.348-0.408-3.153-1.225c-0.806-0.816-1.208-1.904-1.208-3.263v-0.253
			c0-0.909,0.175-1.722,0.526-2.438c0.351-0.715,0.843-1.272,1.478-1.671c0.635-0.399,1.341-0.598,2.122-0.598
			c1.241,0,2.199,0.396,2.875,1.188c0.676,0.791,1.015,1.911,1.015,3.359v0.825h-5.953c0.062,0.752,0.313,1.347,0.753,1.784
			c0.44,0.438,0.995,0.657,1.663,0.657c0.937,0,1.701-0.379,2.29-1.137l1.103,1.053c-0.365,0.544-0.852,0.967-1.461,1.267
			C299.851,19.879,299.167,20.028,298.41,20.028z M298.166,12.224c-0.561,0-1.015,0.196-1.36,0.59
			c-0.345,0.393-0.565,0.939-0.661,1.642h3.898v-0.151c-0.045-0.686-0.228-1.203-0.547-1.554
			C299.176,12.399,298.732,12.224,298.166,12.224z"/>
		<path fill="#FFFFFF" d="M305.55,10.75l0.059,1.053c0.673-0.813,1.558-1.221,2.652-1.221c1.897,0,2.862,1.086,2.896,3.258v6.021
			h-2.046v-5.902c0-0.578-0.125-1.006-0.375-1.284c-0.25-0.277-0.658-0.416-1.225-0.416c-0.825,0-1.44,0.373-1.844,1.119v6.483
			h-2.046v-9.11L305.55,10.75L305.55,10.75z"/>
		<path fill="#FFFFFF" d="M317.253,20.028c-1.296,0-2.348-0.408-3.153-1.225c-0.806-0.816-1.208-1.904-1.208-3.263v-0.253
			c0-0.909,0.175-1.722,0.526-2.438c0.351-0.715,0.843-1.272,1.478-1.671c0.635-0.399,1.341-0.598,2.122-0.598
			c1.241,0,2.199,0.396,2.875,1.188c0.676,0.791,1.015,1.911,1.015,3.359v0.825h-5.953c0.062,0.752,0.313,1.347,0.753,1.784
			c0.44,0.438,0.995,0.657,1.663,0.657c0.937,0,1.701-0.379,2.29-1.137l1.103,1.053c-0.365,0.544-0.852,0.967-1.461,1.267
			C318.694,19.879,318.011,20.028,317.253,20.028z M317.009,12.224c-0.561,0-1.015,0.196-1.36,0.59
			c-0.345,0.393-0.565,0.939-0.661,1.642h3.898v-0.151c-0.045-0.686-0.228-1.203-0.547-1.554
			C318.019,12.399,317.576,12.224,317.009,12.224z"/>
		<path fill="#FFFFFF" d="M327.264,12.619c-0.27-0.045-0.547-0.067-0.833-0.067c-0.938,0-1.569,0.359-1.895,1.078v6.23h-2.046v-9.11
			h1.954l0.05,1.02c0.494-0.792,1.179-1.188,2.055-1.188c0.292,0,0.533,0.039,0.724,0.118L327.264,12.619z"/>
		<path fill="#FFFFFF" d="M333.747,19.86c-0.09-0.174-0.168-0.457-0.236-0.851c-0.651,0.68-1.448,1.019-2.391,1.019
			c-0.915,0-1.662-0.261-2.24-0.782c-0.578-0.522-0.867-1.168-0.867-1.937c0-0.972,0.36-1.717,1.082-2.235
			c0.721-0.52,1.752-0.779,3.094-0.779h1.254v-0.598c0-0.472-0.132-0.849-0.396-1.133c-0.264-0.283-0.665-0.425-1.204-0.425
			c-0.466,0-0.848,0.116-1.145,0.35c-0.298,0.232-0.446,0.529-0.446,0.888h-2.046c0-0.499,0.165-0.967,0.497-1.401
			c0.331-0.436,0.782-0.776,1.351-1.023c0.57-0.247,1.206-0.37,1.907-0.37c1.066,0,1.917,0.268,2.551,0.804
			c0.634,0.536,0.96,1.29,0.977,2.261v4.109c0,0.819,0.115,1.473,0.345,1.961v0.144h-2.087V19.86z M331.499,18.387
			c0.404,0,0.784-0.098,1.141-0.295c0.356-0.196,0.625-0.46,0.804-0.791v-1.718h-1.103c-0.758,0-1.328,0.132-1.709,0.396
			c-0.382,0.265-0.573,0.638-0.573,1.12c0,0.393,0.13,0.706,0.392,0.938C330.711,18.271,331.061,18.387,331.499,18.387z"/>
		<path fill="#FFFFFF" d="M339.809,19.86h-2.046V6.928h2.046V19.86z"/>
		<path fill="#FFFFFF" d="M354.308,15.397c0,1.409-0.32,2.533-0.96,3.372c-0.64,0.84-1.499,1.259-2.576,1.259
			c-1,0-1.799-0.328-2.4-0.984v4.319h-2.046V10.75h1.886l0.084,0.927c0.601-0.729,1.417-1.095,2.45-1.095
			c1.111,0,1.983,0.414,2.614,1.242c0.631,0.827,0.947,1.977,0.947,3.447L354.308,15.397L354.308,15.397z M352.271,15.221
			c0-0.909-0.181-1.63-0.543-2.163c-0.362-0.533-0.88-0.8-1.554-0.8c-0.836,0-1.437,0.345-1.802,1.035v4.041
			c0.371,0.708,0.977,1.062,1.819,1.062c0.651,0,1.161-0.263,1.528-0.787C352.086,17.083,352.271,16.288,352.271,15.221z"/>
		<path fill="#FFFFFF" d="M355.655,15.221c0-0.892,0.177-1.696,0.531-2.412c0.354-0.716,0.85-1.266,1.49-1.65
			c0.64-0.384,1.375-0.576,2.206-0.576c1.229,0,2.227,0.396,2.993,1.188c0.767,0.791,1.18,1.841,1.242,3.148l0.008,0.479
			c0,0.898-0.172,1.701-0.518,2.408c-0.345,0.708-0.839,1.255-1.482,1.643c-0.643,0.387-1.385,0.58-2.227,0.58
			c-1.286,0-2.314-0.428-3.086-1.283c-0.772-0.856-1.158-1.997-1.158-3.423L355.655,15.221L355.655,15.221z M357.701,15.397
			c0,0.938,0.194,1.672,0.581,2.202c0.387,0.53,0.926,0.796,1.617,0.796s1.228-0.27,1.612-0.809
			c0.384-0.539,0.577-1.327,0.577-2.366c0-0.92-0.198-1.649-0.593-2.188c-0.396-0.539-0.934-0.809-1.613-0.809
			c-0.668,0-1.198,0.266-1.591,0.796C357.897,13.55,357.701,14.343,357.701,15.397z"/>
		<path fill="#FFFFFF" d="M365.859,8.385c0-0.314,0.1-0.575,0.299-0.783c0.199-0.208,0.484-0.312,0.854-0.312
			c0.37,0,0.657,0.104,0.859,0.312s0.303,0.469,0.303,0.783c0,0.309-0.101,0.565-0.303,0.771c-0.202,0.204-0.489,0.307-0.859,0.307
			c-0.371,0-0.656-0.103-0.854-0.307C365.959,8.95,365.859,8.693,365.859,8.385z M368.032,19.86h-2.046v-9.11h2.046V19.86z"/>
		<path fill="#FFFFFF" d="M372.157,10.75l0.059,1.053c0.673-0.813,1.558-1.221,2.652-1.221c1.897,0,2.862,1.086,2.896,3.258v6.021
			h-2.046v-5.902c0-0.578-0.125-1.006-0.375-1.284c-0.25-0.277-0.658-0.416-1.225-0.416c-0.825,0-1.44,0.373-1.844,1.119v6.483
			h-2.046v-9.11L372.157,10.75L372.157,10.75z"/>
		<path fill="#FFFFFF" d="M382.413,8.536v2.214h1.608v1.516h-1.608v5.086c0,0.348,0.069,0.599,0.207,0.753
			c0.137,0.155,0.383,0.231,0.737,0.231c0.235,0,0.474-0.027,0.715-0.084v1.583c-0.466,0.129-0.915,0.193-1.347,0.193
			c-1.571,0-2.357-0.867-2.357-2.602v-5.161h-1.499V10.75h1.499V8.536H382.413z"/>
		<path fill="#FFFFFF" d="M390.689,17.385c0-0.364-0.15-0.643-0.451-0.833c-0.3-0.191-0.798-0.359-1.494-0.506
			c-0.696-0.146-1.277-0.331-1.743-0.556c-1.021-0.493-1.532-1.209-1.532-2.146c0-0.786,0.331-1.442,0.994-1.971
			c0.662-0.527,1.504-0.791,2.526-0.791c1.089,0,1.969,0.27,2.64,0.809c0.67,0.538,1.006,1.237,1.006,2.096h-2.046
			c0-0.393-0.146-0.72-0.438-0.98c-0.292-0.26-0.679-0.392-1.162-0.392c-0.449,0-0.815,0.104-1.099,0.312
			c-0.283,0.208-0.425,0.485-0.425,0.834c0,0.314,0.132,0.559,0.396,0.732c0.264,0.173,0.797,0.349,1.6,0.526
			c0.803,0.177,1.433,0.387,1.891,0.631c0.457,0.244,0.797,0.538,1.019,0.88c0.222,0.343,0.333,0.758,0.333,1.246
			c0,0.819-0.34,1.483-1.019,1.991c-0.679,0.508-1.569,0.762-2.669,0.762c-0.747,0-1.412-0.135-1.995-0.403
			c-0.584-0.27-1.039-0.641-1.364-1.111c-0.325-0.472-0.488-0.979-0.488-1.524h1.987c0.028,0.482,0.21,0.854,0.547,1.115
			c0.336,0.262,0.783,0.392,1.338,0.392c0.539,0,0.949-0.103,1.229-0.307C390.548,17.984,390.689,17.716,390.689,17.385z"/>
	</g>
</g>
<g id="Layer_10">
	<rect y="25.666" width="861.5" height="1"/>
</g>
<g id="Layer_4">
</g>
</svg>
