<?xml version="1.0" encoding="utf-8"?>
<!-- Generator: Adobe Illustrator 16.0.0, SVG Export Plug-In . SVG Version: 6.00 Build 0)  -->
<!DOCTYPE svg PUBLIC "-//W3C//DTD SVG 1.1//EN" "http://www.w3.org/Graphics/SVG/1.1/DTD/svg11.dtd">
<svg version="1.1" id="Layer_1" xmlns="http://www.w3.org/2000/svg" xmlns:xlink="http://www.w3.org/1999/xlink" x="0px" y="0px"
	 width="711px" height="98.335px" viewBox="0 0 711 98.335" enable-background="new 0 0 711 98.335" xml:space="preserve">
<metadata><?xpacket begin="﻿" id="W5M0MpCehiHzreSzNTczkc9d"?>
<x:xmpmeta xmlns:x="adobe:ns:meta/" x:xmptk="Adobe XMP Core 5.3-c011 66.145661, 2012/02/06-14:56:27        ">
   <rdf:RDF xmlns:rdf="http://www.w3.org/1999/02/22-rdf-syntax-ns#">
      <rdf:Description rdf:about=""
            xmlns:dc="http://purl.org/dc/elements/1.1/">
         <dc:format>image/svg+xml</dc:format>
         <dc:title>
            <rdf:Alt>
               <rdf:li xml:lang="x-default">howtouse7</rdf:li>
            </rdf:Alt>
         </dc:title>
      </rdf:Description>
      <rdf:Description rdf:about=""
            xmlns:xmp="http://ns.adobe.com/xap/1.0/"
            xmlns:xmpGImg="http://ns.adobe.com/xap/1.0/g/img/">
         <xmp:MetadataDate>2019-04-13T23:21:30+02:00</xmp:MetadataDate>
         <xmp:ModifyDate>2019-04-13T23:21:30+02:00</xmp:ModifyDate>
         <xmp:CreateDate>2019-04-13T23:21:30+02:00</xmp:CreateDate>
         <xmp:CreatorTool>Adobe Illustrator CS6 (Macintosh)</xmp:CreatorTool>
         <xmp:Thumbnails>
            <rdf:Alt>
               <rdf:li rdf:parseType="Resource">
                  <xmpGImg:width>256</xmpGImg:width>
                  <xmpGImg:height>36</xmpGImg:height>
                  <xmpGImg:format>JPEG</xmpGImg:format>
                  <xmpGImg:image>/9j/4AAQSkZJRgABAgEASABIAAD/7QAsUGhvdG9zaG9wIDMuMAA4QklNA+0AAAAAABAASAAAAAEA&#xA;AQBIAAAAAQAB/+4ADkFkb2JlAGTAAAAAAf/bAIQABgQEBAUEBgUFBgkGBQYJCwgGBggLDAoKCwoK&#xA;DBAMDAwMDAwQDA4PEA8ODBMTFBQTExwbGxscHx8fHx8fHx8fHwEHBwcNDA0YEBAYGhURFRofHx8f&#xA;Hx8fHx8fHx8fHx8fHx8fHx8fHx8fHx8fHx8fHx8fHx8fHx8fHx8fHx8fHx8f/8AAEQgAJAEAAwER&#xA;AAIRAQMRAf/EAaIAAAAHAQEBAQEAAAAAAAAAAAQFAwIGAQAHCAkKCwEAAgIDAQEBAQEAAAAAAAAA&#xA;AQACAwQFBgcICQoLEAACAQMDAgQCBgcDBAIGAnMBAgMRBAAFIRIxQVEGE2EicYEUMpGhBxWxQiPB&#xA;UtHhMxZi8CRygvElQzRTkqKyY3PCNUQnk6OzNhdUZHTD0uIIJoMJChgZhJRFRqS0VtNVKBry4/PE&#xA;1OT0ZXWFlaW1xdXl9WZ2hpamtsbW5vY3R1dnd4eXp7fH1+f3OEhYaHiImKi4yNjo+Ck5SVlpeYmZ&#xA;qbnJ2en5KjpKWmp6ipqqusra6voRAAICAQIDBQUEBQYECAMDbQEAAhEDBCESMUEFURNhIgZxgZEy&#xA;obHwFMHR4SNCFVJicvEzJDRDghaSUyWiY7LCB3PSNeJEgxdUkwgJChgZJjZFGidkdFU38qOzwygp&#xA;0+PzhJSktMTU5PRldYWVpbXF1eX1RlZmdoaWprbG1ub2R1dnd4eXp7fH1+f3OEhYaHiImKi4yNjo&#xA;+DlJWWl5iZmpucnZ6fkqOkpaanqKmqq6ytrq+v/aAAwDAQACEQMRAD8A9O5JqWmRA4QsA7fZUnc0&#xA;8Biq7FUj1bzx5P0e+ew1TWLSzvI4VuJLeaVVdYXkWFXYE/CGkkVVr1J2xTSeYodirsVUprm2haNJ&#xA;pUjaZuEKuwUu9K8VB6mg6DFVXFXYq7FXYqhJtX0yHUrfS5bqNNRu0kltrRmAkkSKnqMq9SF5CuKo&#xA;vFUFpmtaTqn1v9HXcV39RuZLK89Fg/pXMNPUhenR05CoxSjcUOJAFTsB1OKoDSdf0PWLeO40q/t7&#xA;6GVPVikt5UkDR8inMcSfh5KRXxxSj8UOxV2KqN7e2ljZXF7eTJb2drG81zPIQqRxxqWd2J6BVFTi&#xA;rdrdW93bQ3VtIs1tcIssEyGqujjkrKR1BBqMVVcVdirsVdirHdW81/VLpbeKEMVuPQkLstaei8lQ&#xA;gbmN1FCRQ5g5tZwyoDrX2EtUstFfY+alvL63t0g4rcpyRi6HieJfixVmoxWnwdevYVw49ZxSArn+&#xA;PwExyWW7TzXFMkoe3KzQwSTsisrV9NVcqOjdHADUpWo7Yw1gN7bgX8lGRRl84LIkgsYBK9VjgmLq&#xA;YjI7OADxNaUiY7fLInXXfCL7u7r+ooOXuRuheYE1R3iEfCSGOOSRqrQ+qvIcVBJHvXp75bp9SMm1&#xA;cgPtZQnxJvmUzSq6t75736zGlVhKiNa0LD9qnbeuBkEwt1pGRxZfiOzHkevzOFBfP35g/lL5m1Hz&#xA;N+Yep6fp9zcHVItFXSG+sDhMY7uCa8UI8lKRiGo5Db9nrgSCnH5Zab5jm/OfzasurXN95X8uTTpp&#xA;6meV4vrOpcJWgbkxD/VVV04mvEnFTye3YWL5d856n51uPzyu/Lml6vffpm4vS+nNDeObG3tP0aTE&#xA;ktmjUUxzSBy5Wh371wM+jfl78sPzfU6BqHmePVtVbRtctbj6lLexmSOIwuLqaOQ3k3qIZlj68TTl&#xA;xWjsMVt9Q4WDw3/nKPW9U0fTdAu4dQurXTC1/Hd2tjdmzuJrhrX/AENwylS6Qy1Z0B3r0wFlFJ/y&#xA;98sfnaPOPljVr261BtGaz0+S8nnvgbT6oNNjWW3ksmf1TcG4qS5H2vixU0+isLF49+dvk/8AMLWt&#xA;d0+98mK8N5b6TqFul/HKsJjlnktyI1cspR5Y0dVYfZO9RgZBgN/5F/5yHfQbJLabWOCXN82l2Q1e&#xA;JLy0SQw/Umv7jmFuERRJ8C9Om1cU2E//ACq8jfmXoP5q6rqXmCzuJdA1HU9XuLdoLgJbx3MzIy3s&#xA;turjmlxGOCVBKkVoOuKCX0BhYvIPzE8v/mhefmz5a1HQWvj5btzai9SC8WC1ULO7XDSR+ohJ9NhU&#xA;NFJzGwpiyDHvyQ/LXzj5b826bquvadeL9Z0P6vc3LXYkSC7iuZQYpYvUaoaHgy0BWpJ+1ywKS+gM&#xA;LF4F+ami/mwv5h6lrumyainlO30qcs8V+sNrGqWMnqOIlkDcvW4/AYWJpyDr+yGQYXpHlL8/dW8h&#xA;x3mmXurRaXevpN5bwNqKzXs0JsSbqeFzcQlYpJmR1hMqnp3XFOyN1ryb/wA5D3GoSx3Ueo3tlNoc&#xA;mnXC/XIminefSHgYSQ/Wmj5i6+0Qhq3x89xiuz0/8gvL3nby/pWpaf5vguTqIa2a3vpbj1rd7YW6&#xA;rHbwRhiITbEFHAUV8T2KC9VxYuxV2KuxVaY42NSoJ8SB2/28FBXemla8RWtenfrjQVsKo3AAPt9+&#xA;GlaEUQ2CKKew7YKC05Y0X7KgfIUxACrsKoeS/to5vRdiHFAdjQculTimldWVhVSCOlR7YoQtxq+l&#xA;W05t7i9ghnCGUxSSoj+mv2n4kg8R3OKrBq+iR1AvbZKlyR6sY3RQ8nf9lXDN7GuKWv0/oXpGX9I2&#xA;vpBBKZPWj4+mzcFevKnEt8IPjiqO4ry5UHKlK96YoSHzX530PytJpK6szxrrF4mn20qheCSupblK&#xA;zMoVAFNWxTSZ/pjSOYT69b8y6RBfVSvqSisaUr9pxuo74qi2VWFGAIqDQ77g1H44oSrzT5o0jyxo&#xA;d3rOqy8LW0ieVkUr6kgjUuViVivJuKnauKVS28x6HParcfXYYl9CK5kjlkRHjjmUMjSKW+CvIdcV&#xA;VZNc0WN/Tk1C2R+RTg00YPJW4MtCeob4SPHFURbXVtdQJcWsyT28grHNEwdGHTZlqDihVxVAnXdE&#xA;EBnOoWwgWQwmUzR8BKASY+VacqA7dcUouGaGeJJoXWWGQBo5EIZWU7ggjYg4oXkgCp2A6nFUFHre&#xA;iyxRyxX9s8UvqelIs0ZVvRBMnEg0PACreHfFKE0vzX5Y1nUb/SdO1CC9vNOEf163jPLis6B0Nfss&#xA;GVv2SfA4qm6IiIqIoVFACqBQADoAMUISTWNIiLiW+t4zGzJIGlQFWRebKanYqnxH23xVVtL6yvYj&#xA;LZ3EdzECVMkLrIvIdRVSRXFVfFXYq7FXYq7FXYq7FXYq7FXYql1zpks120wZQpKHvUcfbp9+CmQK&#xA;NhRkQhgqmpNEFBuf14UPFPO35Da95l/M648zve2K6Tc8IXiCNFdC2ayazuI2ZIz6nIPUcn6fDsMF&#xA;JBYzp3/OLXmy006+WTXLO7vrnTJIIfrCPLAl/NcxF5OLxt+7NpbpHWlQ29KDGl4kPB/zjzrtprvl&#xA;DSJ0+sW0d1dS6/eWqn6kdLW5jvYLWRnER5m4QgIq9+XbGk2+ncLB55+cv5dat530/RYdNNgZNK1A&#xA;X0lvqiu9tMqxOnpusYYkMXFfbFILzzyb+RmpaP8Amh5e9cT3Gj6Dpltc6teOvC1udWthLFaejU83&#xA;9GObb4fh47n4qYE2+hsLF5P+d/5P6z5+utLutNubFWsra9tJLfUkkeNfriKFnh9MHjLGyChI8D2x&#xA;ZAsQH/OMGqyaxqNxc6nZtbXVvqHp3CrL9akn1C0WBIZy1U+r2si84qb+wwUtoO0/5xX1+NblrzWb&#xA;a/luWspHFx6jrz9ZLjUQQU3WaSIcNvnTGl4nsX5U+Sb3yZ5Xk0S6mhlAvbu5tlt+QijhuJTIkahg&#xA;tOPLoBTCgllGp2X17Tbuy9RofrUMkPrJ9tPUUryX3FajFD5+8uf84v6rYm0TU7vTLixi1PS7m706&#xA;KOX6vc22nQ3EUjzJIH5TzfWASNl+144KZcT2D8rvKd/5R8g6P5c1CeO5u9OieOWeEsY25Su68eYV&#xA;qBWA6YUFM/N+hPr/AJV1fQ0uGtH1OzntFuU6xmaMoG26gV3HcYq8IsP+cafOem2iXFhqelQakJLm&#xA;P6mqXAsVt7rTjp0jr1k9Z0b1G7csFJtn35T/AJU6p5I1u+up20+a0vtM0q1MkCOtwlzYWkdtPQlV&#xA;UxTPGZOtS3UYUEvUMUPAPzE/JXzpc3/mfVrC5tLrSrj9J6pbWCJMb97m70iSy9FQAYz8fHiOpwMg&#xA;WVfkH+Wus+TtKv73VTbW8+tx2Mg0uzjeKK3+rWwjJdX39eQnlL25YQpL1XFi7FXYq7FXYq7FXYq7&#xA;FXYqxb/kIP8Ay7f8LlH7zydz/gP9J3/IQf8Al2/4XH955L/gP9J3/IQf+Xb/AIXH955L/gP9J3/I&#xA;Qf8Al2/4XH955L/gP9J3/IQf+Xb/AIXH955L/gP9J3/IQf8Al2/4XH955L/gP9J3/IQf+Xb/AIXH&#xA;955L/gP9J3/IQf8Al2/4XH955L/gP9J3/IQf+Xb/AIXH955L/gP9J3/IQf8Al2/4XH955L/gP9J3&#xA;/IQf+Xb/AIXH955L/gP9J3/IQf8Al2/4XH955L/gP9J3/IQf+Xb/AIXH955L/gP9J3/IQf8Al2/4&#xA;XH955L/gP9J3/IQf+Xb/AIXH955L/gP9J3/IQf8Al2/4XH955L/gP9J3/IQf+Xb/AIXH955L/gP9&#xA;J3/IQf8Al2/4XH955L/gP9J3/IQf+Xb/AIXH955L/gP9J3/IQf8Al2/4XH955L/gP9J3/IQf+Xb/&#xA;AIXH955L/gP9J3/IQf8Al2/4XH955L/gP9J3/IQf+Xb/AIXH955L/gP9J3/IQf8Al2/4XH955L/g&#xA;P9J3/IQf+Xb/AIXH955L/gP9J3/IQf8Al2/4XH955L/gP9J3/IQf+Xb/AIXH955L/gP9J3/IQf8A&#xA;l2/4XH955L/gP9J3/IQf+Xb/AIXH955L/gP9J3/IQf8Al2/4XH955L/gP9J3/IQf+Xb/AIXH955L&#xA;/gP9J3/IQf8Al2/4XH955L/gP9J//9k=</xmpGImg:image>
               </rdf:li>
            </rdf:Alt>
         </xmp:Thumbnails>
      </rdf:Description>
      <rdf:Description rdf:about=""
            xmlns:xmpMM="http://ns.adobe.com/xap/1.0/mm/"
            xmlns:stRef="http://ns.adobe.com/xap/1.0/sType/ResourceRef#"
            xmlns:stEvt="http://ns.adobe.com/xap/1.0/sType/ResourceEvent#">
         <xmpMM:InstanceID>xmp.iid:1E0DCB3120206811822AB51A6D4001DF</xmpMM:InstanceID>
         <xmpMM:DocumentID>xmp.did:1E0DCB3120206811822AB51A6D4001DF</xmpMM:DocumentID>
         <xmpMM:OriginalDocumentID>uuid:5D20892493BFDB11914A8590D31508C8</xmpMM:OriginalDocumentID>
         <xmpMM:RenditionClass>proof:pdf</xmpMM:RenditionClass>
         <xmpMM:DerivedFrom rdf:parseType="Resource">
            <stRef:instanceID>uuid:9841a9f5-2043-3f40-95be-a4dd3156c42f</stRef:instanceID>
            <stRef:documentID>xmp.did:0A80117407206811822AB51A6D4001DF</stRef:documentID>
            <stRef:originalDocumentID>uuid:5D20892493BFDB11914A8590D31508C8</stRef:originalDocumentID>
            <stRef:renditionClass>proof:pdf</stRef:renditionClass>
         </xmpMM:DerivedFrom>
         <xmpMM:History>
            <rdf:Seq>
               <rdf:li rdf:parseType="Resource">
                  <stEvt:action>saved</stEvt:action>
                  <stEvt:instanceID>xmp.iid:0280117407206811822AB51A6D4001DF</stEvt:instanceID>
                  <stEvt:when>2019-04-13T21:44:43+02:00</stEvt:when>
                  <stEvt:softwareAgent>Adobe Illustrator CS6 (Macintosh)</stEvt:softwareAgent>
                  <stEvt:changed>/</stEvt:changed>
               </rdf:li>
               <rdf:li rdf:parseType="Resource">
                  <stEvt:action>saved</stEvt:action>
                  <stEvt:instanceID>xmp.iid:1E0DCB3120206811822AB51A6D4001DF</stEvt:instanceID>
                  <stEvt:when>2019-04-13T23:21:30+02:00</stEvt:when>
                  <stEvt:softwareAgent>Adobe Illustrator CS6 (Macintosh)</stEvt:softwareAgent>
                  <stEvt:changed>/</stEvt:changed>
               </rdf:li>
            </rdf:Seq>
         </xmpMM:History>
      </rdf:Description>
      <rdf:Description rdf:about=""
            xmlns:illustrator="http://ns.adobe.com/illustrator/1.0/">
         <illustrator:StartupProfile>Print</illustrator:StartupProfile>
      </rdf:Description>
      <rdf:Description rdf:about=""
            xmlns:xmpTPg="http://ns.adobe.com/xap/1.0/t/pg/"
            xmlns:stDim="http://ns.adobe.com/xap/1.0/sType/Dimensions#"
            xmlns:xmpG="http://ns.adobe.com/xap/1.0/g/">
         <xmpTPg:HasVisibleOverprint>False</xmpTPg:HasVisibleOverprint>
         <xmpTPg:HasVisibleTransparency>False</xmpTPg:HasVisibleTransparency>
         <xmpTPg:NPages>1</xmpTPg:NPages>
         <xmpTPg:MaxPageSize rdf:parseType="Resource">
            <stDim:w>711.000000</stDim:w>
            <stDim:h>98.335449</stDim:h>
            <stDim:unit>Pixels</stDim:unit>
         </xmpTPg:MaxPageSize>
         <xmpTPg:PlateNames>
            <rdf:Seq>
               <rdf:li>Cyan</rdf:li>
               <rdf:li>Magenta</rdf:li>
               <rdf:li>Yellow</rdf:li>
               <rdf:li>Black</rdf:li>
            </rdf:Seq>
         </xmpTPg:PlateNames>
         <xmpTPg:SwatchGroups>
            <rdf:Seq>
               <rdf:li rdf:parseType="Resource">
                  <xmpG:groupName>Default Swatch Group</xmpG:groupName>
                  <xmpG:groupType>0</xmpG:groupType>
               </rdf:li>
            </rdf:Seq>
         </xmpTPg:SwatchGroups>
      </rdf:Description>
      <rdf:Description rdf:about=""
            xmlns:pdf="http://ns.adobe.com/pdf/1.3/">
         <pdf:Producer>Adobe PDF library 10.01</pdf:Producer>
      </rdf:Description>
   </rdf:RDF>
</x:xmpmeta>
                                                                                                    
                                                                                                    
                                                                                                    
                                                                                                    
                                                                                                    
                                                                                                    
                                                                                                    
                                                                                                    
                                                                                                    
                                                                                                    
                                                                                                    
                                                                                                    
                                                                                                    
                                                                                                    
                                                                                                    
                                                                                                    
                                                                                                    
                                                                                                    
                                                                                                    
                                                                                                    
                           
<?xpacket end="w"?>
	</metadata>
<g id="Layer_4">
	<rect x="0.5" y="94.167" fill="#E30613" width="710" height="4.168"/>
</g>
<g id="Layer_3">
	<rect fill="#F0F8F9" width="711" height="96.25"/>
</g>
<g id="Layer_1_1_">
	<g enable-background="new    ">
		<path fill="#D0D0D0" d="M38.628,35.441h-6.293L31.236,39H26.33l6.986-19.05h4.317L44.672,39H39.74L38.628,35.441z M33.434,31.896
			h4.095l-2.054-6.607L33.434,31.896z"/>
		<path fill="#D0D0D0" d="M48.598,24.281c0.698,0,1.277,0.207,1.74,0.621c0.462,0.415,0.694,0.944,0.694,1.59
			s-0.231,1.176-0.694,1.59s-1.042,0.621-1.74,0.621c-0.707,0-1.289-0.209-1.747-0.628s-0.687-0.946-0.687-1.583
			c0-0.637,0.229-1.164,0.687-1.583S47.891,24.281,48.598,24.281z M48.598,34.722c0.698,0,1.277,0.207,1.74,0.621
			c0.462,0.415,0.694,0.944,0.694,1.59s-0.231,1.176-0.694,1.59s-1.042,0.621-1.74,0.621c-0.707,0-1.289-0.209-1.747-0.628
			c-0.458-0.418-0.687-0.946-0.687-1.583c0-0.637,0.229-1.164,0.687-1.583S47.891,34.722,48.598,34.722z"/>
	</g>
	<g>
		<path fill="#67AC2B" d="M608.766,21.302c0.565,0,1.062-0.171,1.482-0.514c0.422-0.343,0.656-0.771,0.702-1.285h1.5
			c-0.028,0.531-0.212,1.037-0.549,1.517s-0.787,0.863-1.354,1.148c-0.562,0.285-1.158,0.428-1.786,0.428
			c-1.263,0-2.267-0.421-3.013-1.264c-0.745-0.842-1.118-1.995-1.118-3.458v-0.266c0-0.902,0.166-1.705,0.497-2.408
			c0.331-0.703,0.81-1.249,1.427-1.637c0.62-0.389,1.354-0.583,2.198-0.583c1.04,0,1.903,0.312,2.592,0.934
			c0.688,0.623,1.06,1.431,1.104,2.425h-1.5c-0.046-0.6-0.272-1.093-0.685-1.479c-0.405-0.385-0.911-0.578-1.513-0.578
			c-0.806,0-1.43,0.29-1.872,0.87c-0.44,0.58-0.664,1.418-0.664,2.515v0.3c0,1.068,0.222,1.891,0.659,2.468
			C607.32,21.013,607.948,21.302,608.766,21.302z"/>
		<path fill="#67AC2B" d="M615.955,22.424h-1.585V9.262h1.585V22.424z"/>
		<path fill="#67AC2B" d="M618.5,10.693c0-0.257,0.079-0.474,0.236-0.651c0.152-0.177,0.39-0.266,0.694-0.266
			c0.312,0,0.542,0.088,0.702,0.266c0.16,0.178,0.24,0.394,0.24,0.651c0,0.257-0.08,0.471-0.24,0.643
			c-0.158,0.172-0.394,0.257-0.702,0.257c-0.308,0-0.542-0.085-0.694-0.257C618.579,11.165,618.5,10.95,618.5,10.693z
			 M620.214,22.424h-1.585v-9.272h1.585V22.424z"/>
		<path fill="#67AC2B" d="M626.47,21.302c0.565,0,1.062-0.171,1.482-0.514c0.422-0.343,0.656-0.771,0.702-1.285h1.5
			c-0.028,0.531-0.212,1.037-0.549,1.517c-0.341,0.48-0.787,0.863-1.354,1.148c-0.562,0.285-1.158,0.428-1.786,0.428
			c-1.263,0-2.267-0.421-3.013-1.264c-0.745-0.842-1.118-1.995-1.118-3.458v-0.266c0-0.902,0.166-1.705,0.497-2.408
			c0.331-0.703,0.807-1.249,1.427-1.637c0.62-0.389,1.354-0.583,2.198-0.583c1.04,0,1.903,0.312,2.592,0.934
			c0.688,0.623,1.06,1.431,1.104,2.425h-1.5c-0.046-0.6-0.272-1.093-0.685-1.479c-0.406-0.385-0.913-0.578-1.513-0.578
			c-0.806,0-1.43,0.29-1.872,0.87c-0.443,0.58-0.664,1.418-0.664,2.515v0.3c0,1.068,0.22,1.891,0.659,2.468
			C625.024,21.013,625.652,21.302,626.47,21.302z"/>
		<path fill="#67AC2B" d="M634.523,18.131l-0.993,1.037v3.256h-1.586V9.262h1.586v7.96l0.848-1.02l2.888-3.051h1.933l-3.607,3.874
			l4.027,5.398h-1.859L634.523,18.131z"/>
		<path fill="#67AC2B" d="M647.327,10.907v2.245h1.729v1.226h-1.729v5.757c0,0.372,0.077,0.651,0.229,0.837
			c0.154,0.186,0.417,0.279,0.788,0.279c0.187,0,0.438-0.035,0.754-0.103v1.278c-0.416,0.114-0.818,0.17-1.217,0.17
			c-0.708,0-1.242-0.214-1.603-0.643c-0.359-0.429-0.539-1.037-0.539-1.825v-5.75h-1.688v-1.226h1.688v-2.245H647.327
			L647.327,10.907z"/>
		<path fill="#67AC2B" d="M650.317,17.703c0-0.908,0.178-1.725,0.531-2.451c0.356-0.726,0.854-1.286,1.491-1.68
			c0.641-0.394,1.363-0.591,2.185-0.591c1.263,0,2.279,0.437,3.062,1.311c0.779,0.874,1.17,2.037,1.17,3.488v0.111
			c0,0.903-0.173,1.712-0.519,2.43c-0.35,0.717-0.84,1.275-1.482,1.675c-0.642,0.4-1.381,0.6-2.215,0.6
			c-1.258,0-2.275-0.437-3.056-1.311c-0.779-0.874-1.169-2.031-1.169-3.471L650.317,17.703L650.317,17.703z M651.911,17.891
			c0,1.028,0.238,1.854,0.715,2.477c0.479,0.623,1.115,0.934,1.916,0.934c0.805,0,1.444-0.315,1.919-0.947
			c0.479-0.632,0.711-1.516,0.711-2.652c0-1.017-0.241-1.841-0.724-2.472c-0.483-0.631-1.124-0.947-1.924-0.947
			c-0.783,0-1.414,0.312-1.896,0.934C652.15,15.84,651.911,16.731,651.911,17.891z"/>
		<path fill="#67AC2B" d="M670.814,21.507c-0.617,0.726-1.522,1.088-2.721,1.088c-0.984,0-1.736-0.287-2.258-0.861
			c-0.517-0.574-0.778-1.424-0.784-2.549v-6.033h1.586v5.99c0,1.406,0.571,2.108,1.718,2.108c1.211,0,2.017-0.451,2.416-1.354
			v-6.744h1.586v9.272h-1.513L670.814,21.507z"/>
		<path fill="#67AC2B" d="M676.265,13.152l0.056,1.166c0.708-0.891,1.634-1.337,2.772-1.337c1.959,0,2.947,1.105,2.965,3.316v6.127
			h-1.585v-6.136c-0.006-0.668-0.155-1.162-0.459-1.482c-0.3-0.32-0.767-0.479-1.397-0.479c-0.518,0-0.965,0.137-1.354,0.411
			c-0.389,0.274-0.688,0.634-0.906,1.08v6.607h-1.588v-9.272L676.265,13.152L676.265,13.152z"/>
		<path fill="#67AC2B" d="M684.98,22.424v-8.046h-1.47v-1.226h1.47v-0.788c0-1.034,0.295-1.839,0.887-2.417
			c0.591-0.577,1.427-0.866,2.506-0.866c0.64,0,1.448,0.174,2.426,0.523l-0.266,1.336c-0.715-0.285-1.396-0.428-2.04-0.428
			c-0.68,0-1.17,0.153-1.47,0.458c-0.304,0.305-0.449,0.764-0.449,1.375v0.805h1.894v1.226h-1.894v8.046h-1.594V22.424
			L684.98,22.424z M691.587,22.424h-1.594v-9.272h1.594V22.424z"/>
		<path fill="#67AC2B" d="M697.276,16.537l2.057-3.385h1.851l-3.029,4.584l3.128,4.688h-1.834l-2.146-3.471l-2.143,3.471h-1.842
			l3.128-4.688l-3.034-4.584h1.834L697.276,16.537z"/>
	</g>
	<g enable-background="new    ">
		<path d="M73.544,39V27.905H71.49v-3.062h2.054v-1.125c0-1.614,0.476-2.865,1.426-3.755c0.95-0.89,2.285-1.335,4.003-1.335
			c0.628,0,1.317,0.092,2.067,0.274l0.013,3.245c-0.271-0.078-0.633-0.118-1.086-0.118c-1.334,0-2.002,0.576-2.002,1.728v1.086
			h2.761v3.062h-2.761V39H73.544z"/>
		<path d="M97.592,32.824l2.355-7.98h4.723L98.9,41.368l-0.249,0.602c-0.82,1.832-2.268,2.748-4.344,2.748
			c-0.576,0-1.182-0.087-1.818-0.261v-3.142h0.576c0.619,0,1.092-0.089,1.419-0.269c0.327-0.179,0.569-0.499,0.726-0.962
			l0.354-0.942l-4.919-14.299h4.71L97.592,32.824z"/>
	</g>
	<g enable-background="new    ">
		<path d="M137.561,31.817c0-1.431,0.235-2.695,0.707-3.795c0.471-1.099,1.146-1.946,2.028-2.544
			c0.881-0.598,1.906-0.896,3.075-0.896c1.474,0,2.625,0.497,3.454,1.491l0.157-1.229h4.003v13.62c0,1.247-0.29,2.331-0.87,3.251
			c-0.581,0.92-1.42,1.627-2.519,2.119c-1.099,0.493-2.373,0.739-3.82,0.739c-1.038,0-2.043-0.196-3.016-0.589
			c-0.973-0.392-1.716-0.902-2.23-1.53l1.845-2.591c0.82,0.969,1.901,1.452,3.245,1.452c1.954,0,2.931-1.003,2.931-3.009v-0.445
			c-0.846,0.934-1.915,1.4-3.206,1.4c-1.727,0-3.123-0.661-4.187-1.982c-1.064-1.321-1.596-3.09-1.596-5.305L137.561,31.817
			L137.561,31.817z M141.982,32.092c0,1.16,0.218,2.078,0.654,2.754c0.436,0.677,1.047,1.015,1.832,1.015
			c0.951,0,1.644-0.318,2.081-0.955v-5.953c-0.428-0.646-1.112-0.969-2.054-0.969c-0.785,0-1.4,0.352-1.845,1.054
			C142.205,29.74,141.982,30.758,141.982,32.092z"/>
		<path d="M160.339,39.262c-2.172,0-3.929-0.647-5.272-1.943c-1.343-1.295-2.015-2.98-2.015-5.057v-0.366
			c0-1.447,0.269-2.726,0.805-3.833c0.537-1.107,1.319-1.965,2.349-2.571c1.03-0.606,2.25-0.909,3.664-0.909
			c1.989,0,3.559,0.617,4.71,1.852s1.727,2.954,1.727,5.161v1.714h-8.766c0.157,0.794,0.501,1.418,1.034,1.871
			c0.532,0.453,1.221,0.681,2.067,0.681c1.395,0,2.486-0.489,3.271-1.466l2.015,2.381c-0.55,0.759-1.328,1.363-2.335,1.812
			C162.586,39.038,161.499,39.262,160.339,39.262z M159.842,27.983c-1.291,0-2.059,0.855-2.303,2.564h4.448v-0.34
			c0.018-0.707-0.161-1.254-0.536-1.643C161.076,28.178,160.54,27.983,159.842,27.983z"/>
		<path d="M173.213,21.324v3.52h2.329v3.062h-2.329v6.477c0,0.532,0.096,0.902,0.288,1.111c0.191,0.21,0.571,0.314,1.138,0.314
			c0.436,0,0.802-0.026,1.099-0.078v3.152c-0.794,0.253-1.623,0.38-2.486,0.38c-1.518,0-2.639-0.357-3.363-1.073
			c-0.724-0.715-1.086-1.801-1.086-3.258v-7.025h-1.805v-3.062h1.805v-3.52H173.213z"/>
	</g>
	<g enable-background="new    ">
		<path d="M211.312,31.817c0-1.431,0.235-2.695,0.707-3.795c0.471-1.099,1.146-1.946,2.028-2.544
			c0.881-0.598,1.906-0.896,3.075-0.896c1.474,0,2.625,0.497,3.454,1.491l0.157-1.229h4.003v13.62c0,1.247-0.29,2.331-0.87,3.251
			c-0.581,0.92-1.42,1.627-2.519,2.119c-1.099,0.493-2.373,0.739-3.82,0.739c-1.038,0-2.043-0.196-3.016-0.589
			c-0.973-0.392-1.716-0.902-2.23-1.53l1.845-2.591c0.82,0.969,1.901,1.452,3.245,1.452c1.954,0,2.931-1.003,2.931-3.009v-0.445
			c-0.846,0.934-1.915,1.4-3.206,1.4c-1.727,0-3.123-0.661-4.187-1.982c-1.064-1.321-1.596-3.09-1.596-5.305L211.312,31.817
			L211.312,31.817z M215.734,32.092c0,1.16,0.218,2.078,0.654,2.754c0.436,0.677,1.047,1.015,1.832,1.015
			c0.951,0,1.644-0.318,2.081-0.955v-5.953c-0.428-0.646-1.112-0.969-2.054-0.969c-0.785,0-1.4,0.352-1.845,1.054
			C215.957,29.74,215.734,30.758,215.734,32.092z"/>
		<path d="M226.686,31.791c0-1.413,0.275-2.671,0.824-3.774c0.55-1.104,1.339-1.952,2.368-2.545c1.029-0.593,2.237-0.89,3.625-0.89
			c2.119,0,3.79,0.656,5.011,1.969c1.221,1.313,1.832,3.099,1.832,5.358v0.156c0,2.207-0.613,3.958-1.838,5.253
			c-1.226,1.296-2.885,1.943-4.979,1.943c-2.015,0-3.633-0.604-4.854-1.812c-1.221-1.208-1.88-2.846-1.976-4.912L226.686,31.791z
			 M231.095,32.065c0,1.309,0.205,2.269,0.615,2.879c0.41,0.61,1.016,0.916,1.818,0.916c1.57,0,2.373-1.208,2.407-3.625v-0.444
			c0-2.538-0.811-3.808-2.433-3.808c-1.475,0-2.272,1.095-2.395,3.284L231.095,32.065z"/>
	</g>
	<g enable-background="new    ">
		<path d="M281.493,39h-4.422V18.903h4.422V39z"/>
		<path d="M88.054,39h-4.422V18.903h4.422V39z"/>
		<path d="M283.651,31.791c0-1.413,0.275-2.671,0.824-3.774c0.55-1.104,1.339-1.952,2.368-2.545c1.029-0.593,2.237-0.89,3.625-0.89
			c2.119,0,3.79,0.656,5.011,1.969c1.221,1.313,1.832,3.099,1.832,5.358v0.156c0,2.207-0.613,3.958-1.838,5.253
			c-1.226,1.296-2.885,1.943-4.979,1.943c-2.015,0-3.633-0.604-4.854-1.812c-1.221-1.208-1.88-2.846-1.976-4.912L283.651,31.791z
			 M288.061,32.065c0,1.309,0.205,2.269,0.615,2.879c0.41,0.61,1.016,0.916,1.818,0.916c1.57,0,2.373-1.208,2.407-3.625v-0.444
			c0-2.538-0.811-3.808-2.433-3.808c-1.475,0-2.272,1.095-2.395,3.284L288.061,32.065z"/>
		<path d="M298.697,31.791c0-1.413,0.275-2.671,0.824-3.774c0.55-1.104,1.339-1.952,2.368-2.545c1.029-0.593,2.237-0.89,3.625-0.89
			c2.119,0,3.79,0.656,5.011,1.969c1.221,1.313,1.832,3.099,1.832,5.358v0.156c0,2.207-0.613,3.958-1.838,5.253
			c-1.226,1.296-2.885,1.943-4.979,1.943c-2.015,0-3.633-0.604-4.854-1.812s-1.88-2.846-1.976-4.912L298.697,31.791z
			 M303.106,32.065c0,1.309,0.205,2.269,0.615,2.879c0.41,0.61,1.016,0.916,1.818,0.916c1.57,0,2.373-1.208,2.407-3.625v-0.444
			c0-2.538-0.811-3.808-2.433-3.808c-1.475,0-2.272,1.095-2.395,3.284L303.106,32.065z"/>
		<path d="M319.984,33.728l-1.243,1.243V39h-4.409V18.891h4.409v10.676l0.445-0.588l3.323-4.135h5.286l-4.958,5.822L328.122,39
			h-5.05L319.984,33.728z"/>
	</g>
	<g enable-background="new    ">
		<path d="M371.324,35.022c0-0.375-0.196-0.676-0.588-0.902c-0.393-0.226-1.139-0.463-2.237-0.707s-2.006-0.564-2.722-0.961
			c-0.715-0.397-1.26-0.879-1.635-1.446c-0.375-0.566-0.562-1.217-0.562-1.949c0-1.3,0.536-2.37,1.609-3.212
			c1.072-0.842,2.477-1.263,4.213-1.263c1.865,0,3.367,0.423,4.5,1.27c1.134,0.846,1.701,1.958,1.701,3.336h-4.422
			c0-1.134-0.599-1.701-1.793-1.701c-0.462,0-0.851,0.129-1.164,0.386c-0.314,0.258-0.472,0.578-0.472,0.962
			c0,0.393,0.192,0.711,0.576,0.955s0.997,0.445,1.838,0.602c0.842,0.157,1.581,0.345,2.218,0.563
			c2.129,0.732,3.192,2.045,3.192,3.938c0,1.291-0.574,2.342-1.722,3.153c-1.146,0.811-2.631,1.217-4.455,1.217
			c-1.213,0-2.293-0.218-3.244-0.654s-1.692-1.029-2.225-1.779c-0.531-0.75-0.798-1.539-0.798-2.368h4.121
			c0.019,0.654,0.236,1.132,0.654,1.433c0.418,0.301,0.954,0.451,1.608,0.451c0.603,0,1.053-0.122,1.354-0.366
			C371.173,35.736,371.324,35.415,371.324,35.022z"/>
		<path d="M377.604,21.193c0-0.628,0.228-1.143,0.681-1.544c0.452-0.401,1.042-0.602,1.767-0.602s1.312,0.2,1.766,0.602
			c0.455,0.402,0.682,0.916,0.682,1.544s-0.229,1.143-0.682,1.544c-0.453,0.401-1.041,0.602-1.766,0.602
			c-0.724,0-1.312-0.2-1.767-0.602C377.83,22.335,377.604,21.821,377.604,21.193z M382.288,39h-4.422V24.844h4.422V39z"/>
		<path d="M390.139,21.324v3.52h2.328v3.062h-2.328v6.477c0,0.532,0.096,0.902,0.287,1.111c0.191,0.21,0.571,0.314,1.139,0.314
			c0.437,0,0.803-0.026,1.1-0.078v3.152c-0.794,0.253-1.623,0.38-2.486,0.38c-1.518,0-2.639-0.357-3.361-1.073
			c-0.726-0.715-1.086-1.801-1.086-3.258v-7.025h-1.807v-3.062h1.807v-3.52H390.139z"/>
	</g>
	<g enable-background="new    ">
		<path d="M436.166,35.022c0-0.375-0.196-0.676-0.589-0.902c-0.396-0.226-1.138-0.463-2.237-0.707
			c-1.099-0.244-2.006-0.564-2.722-0.961c-0.715-0.397-1.26-0.879-1.635-1.446c-0.375-0.566-0.562-1.217-0.562-1.949
			c0-1.3,0.536-2.37,1.609-3.212c1.07-0.842,2.477-1.263,4.212-1.263c1.867,0,3.367,0.423,4.501,1.27
			c1.134,0.846,1.7,1.958,1.7,3.336h-4.422c0-1.134-0.601-1.701-1.792-1.701c-0.465,0-0.854,0.129-1.165,0.386
			c-0.313,0.258-0.474,0.578-0.474,0.962c0,0.393,0.191,0.711,0.576,0.955c0.383,0.244,0.996,0.445,1.838,0.602
			c0.842,0.157,1.581,0.345,2.218,0.563c2.128,0.732,3.192,2.045,3.192,3.938c0,1.291-0.574,2.342-1.721,3.153
			c-1.147,0.811-2.632,1.217-4.455,1.217c-1.213,0-2.294-0.218-3.245-0.654s-1.692-1.029-2.225-1.779
			c-0.531-0.75-0.8-1.539-0.8-2.368h4.121c0.021,0.654,0.235,1.132,0.654,1.433c0.419,0.301,0.955,0.451,1.609,0.451
			c0.602,0,1.054-0.122,1.354-0.366S436.166,35.415,436.166,35.022z"/>
		<path d="M455.621,32.026c0,2.198-0.495,3.953-1.485,5.267c-0.986,1.312-2.327,1.969-4.01,1.969c-1.3,0-2.368-0.476-3.206-1.426
			v6.606h-4.408V24.844h4.121l0.131,1.309c0.849-1.047,1.958-1.57,3.336-1.57c1.744,0,3.104,0.644,4.068,1.93
			c0.969,1.287,1.453,3.055,1.453,5.306V32.026L455.621,32.026z M451.212,31.752c0-2.513-0.733-3.769-2.198-3.769
			c-1.047,0-1.744,0.375-2.094,1.125v5.574c0.385,0.785,1.091,1.178,2.12,1.178c1.404,0,2.128-1.213,2.172-3.638V31.752z"/>
		<path d="M464.413,39.262c-2.172,0-3.929-0.647-5.272-1.943c-1.344-1.295-2.016-2.98-2.016-5.057v-0.366
			c0-1.447,0.27-2.726,0.805-3.833c0.537-1.107,1.32-1.965,2.353-2.571c1.027-0.606,2.25-0.909,3.663-0.909
			c1.986,0,3.559,0.617,4.71,1.852c1.148,1.235,1.727,2.954,1.727,5.161v1.714h-8.766c0.157,0.794,0.502,1.418,1.032,1.871
			c0.53,0.453,1.223,0.681,2.066,0.681c1.396,0,2.485-0.489,3.271-1.466L470,36.775c-0.55,0.759-1.328,1.363-2.336,1.812
			C466.657,39.037,465.573,39.262,464.413,39.262z M463.916,27.983c-1.291,0-2.059,0.855-2.303,2.564h4.445v-0.34
			c0.021-0.707-0.158-1.254-0.533-1.643C465.15,28.178,464.613,27.983,463.916,27.983z"/>
		<path d="M480.127,39c-0.158-0.288-0.297-0.711-0.42-1.27c-0.811,1.021-1.944,1.531-3.4,1.531c-1.336,0-2.469-0.403-3.399-1.21
			c-0.936-0.807-1.4-1.821-1.4-3.042c0-1.535,0.567-2.695,1.701-3.48c1.134-0.785,2.782-1.178,4.945-1.178h1.358v-0.749
			c0-1.306-0.562-1.959-1.688-1.959c-1.047,0-1.57,0.518-1.57,1.552h-4.41c0-1.368,0.583-2.479,1.748-3.333
			c1.164-0.854,2.648-1.28,4.454-1.28s3.231,0.44,4.278,1.321c1.047,0.881,1.583,2.089,1.606,3.624v6.268
			c0.021,1.3,0.221,2.294,0.604,2.982V39H480.127z M477.365,36.122c0.55,0,1.006-0.118,1.367-0.354
			c0.359-0.235,0.621-0.502,0.776-0.798v-2.264h-1.28c-1.535,0-2.306,0.688-2.306,2.067c0,0.401,0.136,0.726,0.406,0.975
			C476.603,35.997,476.947,36.122,477.365,36.122z"/>
		<path d="M492.059,33.728l-1.24,1.243V39h-4.409V18.891h4.409v10.676l0.441-0.588l3.324-4.135h5.285l-4.959,5.822L500.196,39h-5.05
			L492.059,33.728z"/>
	</g>
	<g enable-background="new    ">
		<path fill="#D0D0D0" d="M28.776,79.667V60.621h6.843c2.451,0,4.315,0.448,5.593,1.348c1.278,0.898,1.917,2.203,1.917,3.912
			c0,0.984-0.227,1.826-0.681,2.524c-0.454,0.697-1.121,1.212-2.001,1.544c0.994,0.262,1.757,0.75,2.29,1.465
			c0.532,0.717,0.798,1.588,0.798,2.616c0,1.867-0.591,3.271-1.773,4.207c-1.182,0.938-2.933,1.414-5.253,1.433L28.776,79.667
			L28.776,79.667z M33.368,68.562h2.395c1.003-0.01,1.718-0.191,2.146-0.553c0.428-0.359,0.641-0.889,0.641-1.588
			c0-0.805-0.231-1.385-0.693-1.736c-0.462-0.355-1.208-0.531-2.237-0.531h-2.25v4.408H33.368z M33.368,71.571v4.566h3.009
			c0.829,0,1.465-0.191,1.91-0.57c0.445-0.379,0.667-0.914,0.667-1.603c0-1.588-0.79-2.387-2.368-2.396h-3.218V71.571z"/>
		<path fill="#D0D0D0" d="M48.598,64.951c0.698,0,1.277,0.207,1.74,0.62c0.462,0.416,0.694,0.945,0.694,1.591
			s-0.231,1.176-0.694,1.59s-1.042,0.621-1.74,0.621c-0.707,0-1.289-0.209-1.747-0.627c-0.458-0.42-0.687-0.947-0.687-1.584
			c0-0.638,0.229-1.164,0.687-1.582C47.309,65.16,47.891,64.951,48.598,64.951z M48.598,75.392c0.698,0,1.277,0.207,1.74,0.621
			c0.463,0.412,0.694,0.941,0.694,1.59c0,0.645-0.231,1.176-0.694,1.59s-1.042,0.621-1.74,0.621c-0.707,0-1.289-0.209-1.747-0.629
			c-0.458-0.418-0.687-0.945-0.687-1.582c0-0.639,0.229-1.164,0.687-1.584C47.309,75.601,47.891,75.392,48.598,75.392z"/>
	</g>
	<g enable-background="new    ">
		<path d="M80.544,79.667c-0.157-0.289-0.297-0.711-0.419-1.271c-0.811,1.021-1.945,1.53-3.401,1.53
			c-1.335,0-2.469-0.403-3.402-1.213c-0.934-0.807-1.4-1.817-1.4-3.041c0-1.532,0.567-2.692,1.701-3.479
			c1.134-0.783,2.782-1.178,4.946-1.178h1.36v-0.75c0-1.307-0.562-1.959-1.688-1.959c-1.047,0-1.57,0.52-1.57,1.553h-4.409
			c0-1.367,0.583-2.479,1.747-3.334c1.164-0.854,2.649-1.277,4.455-1.277c1.806,0,3.232,0.438,4.278,1.318
			c1.047,0.883,1.583,2.092,1.609,3.625v6.27c0.018,1.3,0.218,2.293,0.602,2.98v0.225H80.544L80.544,79.667z M77.783,76.791
			c0.549,0,1.005-0.117,1.367-0.354c0.362-0.233,0.622-0.502,0.778-0.797v-2.265h-1.282c-1.535,0-2.303,0.688-2.303,2.064
			c0,0.4,0.135,0.729,0.406,0.977S77.364,76.791,77.783,76.791z"/>
		<path d="M99.018,73.86l1.426-8.348h4.226l-3.336,14.155h-3.729l-2.342-8.399l-2.355,8.399h-3.729l-3.336-14.155h4.226l1.4,8.543
			l2.25-8.543h3.075L99.018,73.86z"/>
		<path d="M114.221,79.667c-0.157-0.289-0.297-0.711-0.419-1.271c-0.811,1.021-1.945,1.53-3.401,1.53
			c-1.335,0-2.469-0.403-3.402-1.213c-0.934-0.807-1.4-1.817-1.4-3.041c0-1.532,0.567-2.692,1.701-3.479
			c1.134-0.783,2.782-1.178,4.946-1.178h1.36v-0.75c0-1.307-0.562-1.959-1.688-1.959c-1.047,0-1.57,0.52-1.57,1.553h-4.409
			c0-1.367,0.583-2.479,1.747-3.334s2.649-1.277,4.455-1.277c1.806,0,3.232,0.438,4.278,1.318c1.047,0.883,1.583,2.092,1.609,3.625
			v6.27c0.018,1.3,0.218,2.293,0.602,2.98v0.225H114.221L114.221,79.667z M111.46,76.791c0.549,0,1.005-0.117,1.367-0.354
			c0.362-0.233,0.622-0.502,0.778-0.797v-2.265h-1.282c-1.535,0-2.303,0.688-2.303,2.064c0,0.4,0.135,0.729,0.406,0.977
			S111.041,76.791,111.46,76.791z"/>
		<path d="M126.126,73.494l2.355-7.979h4.723l-5.77,16.521l-0.249,0.604c-0.82,1.832-2.268,2.745-4.344,2.745
			c-0.576,0-1.182-0.086-1.818-0.26v-3.143h0.576c0.619,0,1.092-0.088,1.419-0.27c0.327-0.18,0.569-0.5,0.726-0.963l0.354-0.939
			l-4.919-14.299h4.71L126.126,73.494z"/>
	</g>
	<g enable-background="new    ">
		<path d="M182.291,72.708c0,2.317-0.48,4.104-1.439,5.352c-0.959,1.248-2.312,1.871-4.056,1.871c-1.439,0-2.6-0.57-3.48-1.715
			l-0.183,1.451h-3.951V59.574h4.409v7.077c0.82-0.935,1.879-1.399,3.179-1.399c1.762,0,3.123,0.633,4.082,1.897
			s1.439,3.043,1.439,5.338V72.708z M177.868,72.429c0-1.359-0.181-2.328-0.543-2.906c-0.362-0.58-0.918-0.869-1.668-0.869
			c-0.995,0-1.684,0.379-2.067,1.137v5.615c0.375,0.75,1.073,1.125,2.093,1.125c1.038,0,1.696-0.506,1.976-1.516
			C177.798,74.519,177.868,73.655,177.868,72.429z"/>
		<path d="M189.892,73.494l2.355-7.98h4.723l-5.77,16.525l-0.249,0.602c-0.82,1.832-2.268,2.748-4.344,2.748
			c-0.576,0-1.182-0.088-1.818-0.262v-3.142h0.576c0.619,0,1.092-0.09,1.419-0.271c0.327-0.178,0.569-0.498,0.726-0.961l0.354-0.942
			l-4.919-14.299h4.71L189.892,73.494z"/>
	</g>
	<g enable-background="new    ">
		<path d="M232.358,72.485c0-2.241,0.484-4.008,1.453-5.299c0.968-1.291,2.32-1.937,4.056-1.937c1.265,0,2.329,0.496,3.192,1.49
			v-7.172h4.422v20.1h-3.964l-0.223-1.52c-0.907,1.188-2.059,1.779-3.454,1.779c-1.683,0-3.018-0.646-4.003-1.938
			C232.852,76.701,232.358,74.867,232.358,72.485z M236.767,72.759c0,2.514,0.733,3.77,2.198,3.77c0.977,0,1.675-0.41,2.093-1.23
			v-5.391c-0.401-0.836-1.09-1.256-2.067-1.256c-1.36,0-2.098,1.1-2.211,3.297L236.767,72.759z"/>
		<path d="M247.43,72.458c0-1.414,0.275-2.672,0.824-3.773c0.55-1.104,1.339-1.951,2.368-2.545c1.029-0.594,2.237-0.891,3.625-0.891
			c2.119,0,3.79,0.656,5.011,1.969c1.221,1.312,1.832,3.1,1.832,5.357v0.155c0,2.207-0.613,3.959-1.838,5.254
			c-1.226,1.296-2.885,1.943-4.979,1.943c-2.015,0-3.633-0.604-4.854-1.812c-1.221-1.209-1.88-2.849-1.976-4.912L247.43,72.458z
			 M251.839,72.733c0,1.31,0.205,2.271,0.615,2.879c0.41,0.611,1.016,0.916,1.818,0.916c1.57,0,2.373-1.207,2.407-3.625V72.46
			c0-2.539-0.811-3.81-2.433-3.81c-1.475,0-2.272,1.097-2.395,3.285L251.839,72.733z"/>
		<path d="M275.259,73.86l1.426-8.348h4.226l-3.336,14.155h-3.729l-2.342-8.399l-2.355,8.399h-3.729l-3.336-14.155h4.226l1.4,8.543
			l2.25-8.543h3.075L275.259,73.86z"/>
		<path d="M286.537,65.513l0.144,1.658c0.977-1.279,2.324-1.922,4.043-1.922c1.474,0,2.575,0.438,3.303,1.319
			c0.729,0.882,1.105,2.207,1.132,3.979v9.119h-4.422v-8.938c0-0.717-0.144-1.239-0.432-1.578c-0.288-0.336-0.811-0.504-1.57-0.504
			c-0.864,0-1.505,0.345-1.923,1.021v9.996h-4.409v-14.15H286.537z"/>
	</g>
	<g enable-background="new    ">
		<path d="M331.751,72.458c0-1.412,0.275-2.67,0.824-3.771c0.55-1.104,1.339-1.953,2.368-2.545c1.029-0.596,2.237-0.893,3.625-0.893
			c2.119,0,3.79,0.656,5.011,1.969c1.221,1.314,1.832,3.102,1.832,5.359v0.155c0,2.207-0.613,3.957-1.838,5.252
			c-1.226,1.298-2.885,1.943-4.979,1.943c-2.015,0-3.633-0.604-4.854-1.812c-1.221-1.207-1.88-2.848-1.976-4.912L331.751,72.458z
			 M336.16,72.735c0,1.31,0.205,2.269,0.615,2.88c0.41,0.608,1.016,0.915,1.818,0.915c1.57,0,2.373-1.209,2.407-3.625V72.46
			c0-2.537-0.811-3.808-2.433-3.808c-1.475,0-2.272,1.095-2.395,3.283L336.16,72.735z"/>
		<path d="M351.402,65.513l0.144,1.66c0.977-1.281,2.324-1.924,4.043-1.924c1.474,0,2.575,0.44,3.304,1.321
			c0.729,0.882,1.104,2.207,1.131,3.978v9.119h-4.421v-8.937c0-0.715-0.144-1.239-0.432-1.575c-0.288-0.337-0.811-0.505-1.57-0.505
			c-0.864,0-1.505,0.341-1.923,1.021v9.996h-4.409V65.513H351.402z"/>
	</g>
	<g enable-background="new    ">
		<path d="M396.617,72.458c0-1.414,0.272-2.672,0.824-3.773c0.55-1.104,1.339-1.951,2.365-2.545
			c1.029-0.594,2.237-0.891,3.625-0.891c2.119,0,3.79,0.656,5.014,1.969c1.221,1.312,1.832,3.1,1.832,5.357v0.155
			c0,2.207-0.613,3.959-1.838,5.254c-1.229,1.296-2.888,1.943-4.979,1.943c-2.015,0-3.633-0.604-4.854-1.812
			c-1.224-1.209-1.883-2.849-1.979-4.912L396.617,72.458z M401.026,72.733c0,1.31,0.205,2.271,0.612,2.879
			c0.41,0.611,1.019,0.916,1.818,0.916c1.57,0,2.373-1.207,2.407-3.625V72.46c0-2.539-0.812-3.81-2.436-3.81
			c-1.475,0-2.271,1.097-2.395,3.285L401.026,72.733z"/>
		<path d="M420.651,78.138c-0.937,1.193-2.194,1.793-3.781,1.793c-1.553,0-2.729-0.451-3.526-1.355
			c-0.798-0.902-1.194-2.199-1.194-3.891v-9.172h4.406v9.195c0,1.213,0.588,1.817,1.769,1.817c1.012,0,1.729-0.36,2.159-1.086
			v-9.931h4.436v14.156h-4.135L420.651,78.138z"/>
		<path d="M432.465,61.994v3.521h2.33v3.062h-2.33v6.477c0,0.533,0.097,0.902,0.289,1.111c0.191,0.211,0.57,0.313,1.138,0.313
			c0.438,0,0.805-0.024,1.102-0.078v3.149c-0.793,0.257-1.622,0.384-2.485,0.384c-1.518,0-2.639-0.356-3.363-1.074
			c-0.724-0.715-1.086-1.801-1.086-3.258v-7.024h-1.805v-3.062h1.805v-3.521H432.465L432.465,61.994z"/>
	</g>
	<g enable-background="new    ">
		<path d="M479.669,78.138c-0.934,1.193-2.194,1.793-3.781,1.793c-1.553,0-2.728-0.451-3.524-1.354
			c-0.798-0.902-1.197-2.201-1.197-3.895v-9.172h4.41v9.197c0,1.213,0.588,1.819,1.766,1.819c1.014,0,1.731-0.362,2.158-1.086
			v-9.933h4.436v14.156H479.8L479.669,78.138z"/>
		<path d="M499.49,72.696c0,2.197-0.495,3.953-1.485,5.267c-0.989,1.312-2.327,1.969-4.01,1.969c-1.3,0-2.368-0.475-3.206-1.426
			v6.606h-4.408v-19.6h4.121l0.131,1.309c0.846-1.047,1.958-1.569,3.336-1.569c1.744,0,3.104,0.645,4.068,1.93
			c0.969,1.287,1.453,3.055,1.453,5.307V72.696z M495.081,72.419c0-2.512-0.733-3.769-2.198-3.769c-1.047,0-1.744,0.375-2.094,1.125
			v5.574c0.385,0.784,1.091,1.178,2.12,1.178c1.403,0,2.128-1.213,2.172-3.639V72.419z"/>
	</g>
</g>
<g id="Layer_2">
</g>
</svg>
