<?xml version="1.0" encoding="utf-8"?>
<!-- Generator: Adobe Illustrator 16.0.0, SVG Export Plug-In . SVG Version: 6.00 Build 0)  -->
<!DOCTYPE svg PUBLIC "-//W3C//DTD SVG 1.1//EN" "http://www.w3.org/Graphics/SVG/1.1/DTD/svg11.dtd">
<svg version="1.1" id="Layer_1" xmlns="http://www.w3.org/2000/svg" xmlns:xlink="http://www.w3.org/1999/xlink" x="0px" y="0px"
	 width="711px" height="37.194px" viewBox="0.5 0.499 711 37.194" enable-background="new 0.5 0.499 711 37.194"
	 xml:space="preserve">
<metadata><?xpacket begin="﻿" id="W5M0MpCehiHzreSzNTczkc9d"?>
<x:xmpmeta xmlns:x="adobe:ns:meta/" x:xmptk="Adobe XMP Core 5.3-c011 66.145661, 2012/02/06-14:56:27        ">
   <rdf:RDF xmlns:rdf="http://www.w3.org/1999/02/22-rdf-syntax-ns#">
      <rdf:Description rdf:about=""
            xmlns:dc="http://purl.org/dc/elements/1.1/">
         <dc:format>image/svg+xml</dc:format>
         <dc:title>
            <rdf:Alt>
               <rdf:li xml:lang="x-default">howtouse7</rdf:li>
            </rdf:Alt>
         </dc:title>
      </rdf:Description>
      <rdf:Description rdf:about=""
            xmlns:xmp="http://ns.adobe.com/xap/1.0/"
            xmlns:xmpGImg="http://ns.adobe.com/xap/1.0/g/img/">
         <xmp:MetadataDate>2019-04-13T23:19:59+02:00</xmp:MetadataDate>
         <xmp:ModifyDate>2019-04-13T23:19:59+02:00</xmp:ModifyDate>
         <xmp:CreateDate>2019-04-13T23:19:59+02:00</xmp:CreateDate>
         <xmp:CreatorTool>Adobe Illustrator CS6 (Macintosh)</xmp:CreatorTool>
         <xmp:Thumbnails>
            <rdf:Alt>
               <rdf:li rdf:parseType="Resource">
                  <xmpGImg:width>256</xmpGImg:width>
                  <xmpGImg:height>16</xmpGImg:height>
                  <xmpGImg:format>JPEG</xmpGImg:format>
                  <xmpGImg:image>/9j/4AAQSkZJRgABAgEASABIAAD/7QAsUGhvdG9zaG9wIDMuMAA4QklNA+0AAAAAABAASAAAAAEA&#xA;AQBIAAAAAQAB/+4ADkFkb2JlAGTAAAAAAf/bAIQABgQEBAUEBgUFBgkGBQYJCwgGBggLDAoKCwoK&#xA;DBAMDAwMDAwQDA4PEA8ODBMTFBQTExwbGxscHx8fHx8fHx8fHwEHBwcNDA0YEBAYGhURFRofHx8f&#xA;Hx8fHx8fHx8fHx8fHx8fHx8fHx8fHx8fHx8fHx8fHx8fHx8fHx8fHx8fHx8f/8AAEQgAEAEAAwER&#xA;AAIRAQMRAf/EAaIAAAAHAQEBAQEAAAAAAAAAAAQFAwIGAQAHCAkKCwEAAgIDAQEBAQEAAAAAAAAA&#xA;AQACAwQFBgcICQoLEAACAQMDAgQCBgcDBAIGAnMBAgMRBAAFIRIxQVEGE2EicYEUMpGhBxWxQiPB&#xA;UtHhMxZi8CRygvElQzRTkqKyY3PCNUQnk6OzNhdUZHTD0uIIJoMJChgZhJRFRqS0VtNVKBry4/PE&#xA;1OT0ZXWFlaW1xdXl9WZ2hpamtsbW5vY3R1dnd4eXp7fH1+f3OEhYaHiImKi4yNjo+Ck5SVlpeYmZ&#xA;qbnJ2en5KjpKWmp6ipqqusra6voRAAICAQIDBQUEBQYECAMDbQEAAhEDBCESMUEFURNhIgZxgZEy&#xA;obHwFMHR4SNCFVJicvEzJDRDghaSUyWiY7LCB3PSNeJEgxdUkwgJChgZJjZFGidkdFU38qOzwygp&#xA;0+PzhJSktMTU5PRldYWVpbXF1eX1RlZmdoaWprbG1ub2R1dnd4eXp7fH1+f3OEhYaHiImKi4yNjo&#xA;+DlJWWl5iZmpucnZ6fkqOkpaanqKmqq6ytrq+v/aAAwDAQACEQMRAD8A695k8wiK2u9Vvnb6vbI0&#xA;pQU2Vd+KgkCvbNDOcsknmsmSWafvY1pP5haBqbziETxJBE8zyzRhUIiiimlUEE/EiXCV/CuMsEgs&#xA;9NKP4/HchYPzT8tzRNKsV2AsbOR6QJLK0imMcWb4v3Dn+Wg65I6eTI6SY7lFvze8oLJ6Za4MnprL&#xA;xEYPwtGZQahiv2ePf9pfHD+Vmn8nNPvL3mew15bl7KKdY7YxK8kyBAXlhWbgu5NUSReW3fauVTxm&#xA;PNpyYjDmnGVtTsVdirsVdirsVdirsVdirsVdirsVdirsVdirsVdirsVdirsVTTy/qE9vfxRBiYZm&#xA;CNH2q2wI+nMrS5TGYHQuZos8ozA6FPPMl9NCkcETFPUqXYbGg7ZunoXksX5paa1wsE1nMk/qzQtC&#xA;p5uxS6W1hMWyqwldj1ZeND1G+Kq2hfmdoeq6RPf+lLC1nZw3l3FTkoMsSyGOOQ8AxUuFqQtfliqm&#xA;v5s+V2t57gJdenAoYn0h8W0BkoeVB6X1yLmWIG+1cVU2/OHyeJZ4Qbl5rYlZI1iFaiUQ7VYDd2Hf&#xA;virLPKXm6HUY3v8ATlmS2jmaEmZeAl4bMVWpNO24Briqe6z5M+tetEkcVxZXAIktpgCvFuqlWBVl&#xA;+eazJopCVwdPl7PkJXA/sSu2/LiG1Qpa6ZZQIeYKxRxoKSKqPsqj7SxqD4gDwyB0uU8/vazos55n&#xA;7VFPyt05IPq6aNp629KeiIYQlPi248aftt958cP5bN3/AGp/Kai7v7VX/lW1vxK/ouy4lDER6cVP&#xA;TKLGU+z9ngirTwAHbB+Vy9/2o/J5+/7Vey8izWERisbS3tYmILRwBI1JVVQEhQBsiKvyAGA6TKef&#xA;3olocx57/FEf4W1b+VP+CGD8lkY/ydl8nf4W1b+VP+CGP5LIv8nZfJ3+FtW/lT/ghj+SyL/J2Xyd&#xA;/hbVv5U/4IY/ksi/ydl8nf4W1b+VP+CGP5LIv8nZfJ3+FtW/lT/ghj+SyL/J2Xyd/hbVv5U/4IY/&#xA;ksi/ydl8nf4W1b+VP+CGP5LIv8nZfJ3+FtW/lT/ghj+SyL/J2Xyd/hbVv5U/4IY/ksi/ydl8nf4W&#xA;1b+VP+CGP5LIv8nZfJ3+FtW/lT/ghj+SyL/J2Xyd/hbVv5U/4IY/ksi/ydl8nf4W1b+VP+CGP5LI&#xA;v8nZfJ3+FtW/lT/ghj+SyL/J2Xyd/hbVv5U/4IY/ksi/ydl8nf4W1b+VP+CGP5LIv8nZfJ3+FtW/&#xA;lT/ghj+SyL/J2Xyd/hbVv5U/4IY/ksi/ydl8nf4W1b+VP+CGP5LIv8nZfJMtG8tS29ytzdsvKPeO&#xA;Nd9/En2zI0+jMTxScvS6AxlxS6Jnq2li+iUBuEsdSjHpv1BzYO0YjN+XGnzcxLpNjKJFKScoYm5K&#xA;z+oQaruC/wAXz3xV0f5c2ESTRx6TYolxElvcIsUQEkMa8UjcBfiRV2VTsBiqmfyx0kw+gdF08wb/&#xA;ALr0IeG4jB+HjT/dEf8AwK+AxVVl/LuylSaOXS7KSO4BFwjRRESAsGIcFfi+JQd+4GKpno/k+KzK&#xA;xiGG2tUYv6EChQSTU7KANz1xV//Z</xmpGImg:image>
               </rdf:li>
            </rdf:Alt>
         </xmp:Thumbnails>
      </rdf:Description>
      <rdf:Description rdf:about=""
            xmlns:xmpMM="http://ns.adobe.com/xap/1.0/mm/"
            xmlns:stRef="http://ns.adobe.com/xap/1.0/sType/ResourceRef#"
            xmlns:stEvt="http://ns.adobe.com/xap/1.0/sType/ResourceEvent#">
         <xmpMM:InstanceID>xmp.iid:1A0DCB3120206811822AB51A6D4001DF</xmpMM:InstanceID>
         <xmpMM:DocumentID>xmp.did:1A0DCB3120206811822AB51A6D4001DF</xmpMM:DocumentID>
         <xmpMM:OriginalDocumentID>uuid:5D20892493BFDB11914A8590D31508C8</xmpMM:OriginalDocumentID>
         <xmpMM:RenditionClass>proof:pdf</xmpMM:RenditionClass>
         <xmpMM:DerivedFrom rdf:parseType="Resource">
            <stRef:instanceID>uuid:e7d9bdb5-96ca-a440-bc92-75d32b25c905</stRef:instanceID>
            <stRef:documentID>xmp.did:0A80117407206811822AB51A6D4001DF</stRef:documentID>
            <stRef:originalDocumentID>uuid:5D20892493BFDB11914A8590D31508C8</stRef:originalDocumentID>
            <stRef:renditionClass>proof:pdf</stRef:renditionClass>
         </xmpMM:DerivedFrom>
         <xmpMM:History>
            <rdf:Seq>
               <rdf:li rdf:parseType="Resource">
                  <stEvt:action>saved</stEvt:action>
                  <stEvt:instanceID>xmp.iid:0280117407206811822AB51A6D4001DF</stEvt:instanceID>
                  <stEvt:when>2019-04-13T21:44:43+02:00</stEvt:when>
                  <stEvt:softwareAgent>Adobe Illustrator CS6 (Macintosh)</stEvt:softwareAgent>
                  <stEvt:changed>/</stEvt:changed>
               </rdf:li>
               <rdf:li rdf:parseType="Resource">
                  <stEvt:action>saved</stEvt:action>
                  <stEvt:instanceID>xmp.iid:1A0DCB3120206811822AB51A6D4001DF</stEvt:instanceID>
                  <stEvt:when>2019-04-13T23:19:59+02:00</stEvt:when>
                  <stEvt:softwareAgent>Adobe Illustrator CS6 (Macintosh)</stEvt:softwareAgent>
                  <stEvt:changed>/</stEvt:changed>
               </rdf:li>
            </rdf:Seq>
         </xmpMM:History>
      </rdf:Description>
      <rdf:Description rdf:about=""
            xmlns:illustrator="http://ns.adobe.com/illustrator/1.0/">
         <illustrator:StartupProfile>Print</illustrator:StartupProfile>
      </rdf:Description>
      <rdf:Description rdf:about=""
            xmlns:xmpTPg="http://ns.adobe.com/xap/1.0/t/pg/"
            xmlns:stDim="http://ns.adobe.com/xap/1.0/sType/Dimensions#"
            xmlns:xmpG="http://ns.adobe.com/xap/1.0/g/">
         <xmpTPg:HasVisibleOverprint>False</xmpTPg:HasVisibleOverprint>
         <xmpTPg:HasVisibleTransparency>False</xmpTPg:HasVisibleTransparency>
         <xmpTPg:NPages>1</xmpTPg:NPages>
         <xmpTPg:MaxPageSize rdf:parseType="Resource">
            <stDim:w>711.000000</stDim:w>
            <stDim:h>37.194336</stDim:h>
            <stDim:unit>Pixels</stDim:unit>
         </xmpTPg:MaxPageSize>
         <xmpTPg:PlateNames>
            <rdf:Seq>
               <rdf:li>Cyan</rdf:li>
               <rdf:li>Magenta</rdf:li>
               <rdf:li>Yellow</rdf:li>
               <rdf:li>Black</rdf:li>
            </rdf:Seq>
         </xmpTPg:PlateNames>
         <xmpTPg:SwatchGroups>
            <rdf:Seq>
               <rdf:li rdf:parseType="Resource">
                  <xmpG:groupName>Default Swatch Group</xmpG:groupName>
                  <xmpG:groupType>0</xmpG:groupType>
               </rdf:li>
            </rdf:Seq>
         </xmpTPg:SwatchGroups>
      </rdf:Description>
      <rdf:Description rdf:about=""
            xmlns:pdf="http://ns.adobe.com/pdf/1.3/">
         <pdf:Producer>Adobe PDF library 10.01</pdf:Producer>
      </rdf:Description>
   </rdf:RDF>
</x:xmpmeta>
                                                                                                    
                                                                                                    
                                                                                                    
                                                                                                    
                                                                                                    
                                                                                                    
                                                                                                    
                                                                                                    
                                                                                                    
                                                                                                    
                                                                                                    
                                                                                                    
                                                                                                    
                                                                                                    
                                                                                                    
                                                                                                    
                                                                                                    
                                                                                                    
                                                                                                    
                                                                                                    
                           
<?xpacket end="w"?>
	</metadata>
<g id="Layer_2">
</g>
<g id="Layer_4">
	<path fill="#8FEE90" d="M574.833,19.097c0,10.27-8.326,18.596-18.597,18.596H19.097C8.826,37.693,0.5,29.367,0.5,19.097l0,0
		C0.5,8.826,8.826,0.5,19.097,0.5h537.139C566.507,0.5,574.833,8.826,574.833,19.097L574.833,19.097z"/>
	<path fill="#D0D0D0" d="M711.5,19.097c0,10.27-8.326,18.596-18.596,18.596h-85.81c-10.271,0-18.597-8.326-18.597-18.596l0,0
		c0-10.271,8.326-18.599,18.597-18.599h85.81C703.174,0.5,711.5,8.826,711.5,19.097L711.5,19.097z"/>
	<g enable-background="new    ">
		<path fill="#1D1D1B" d="M604.676,16.626c0.691-0.803,1.567-1.204,2.626-1.204c2.014,0,3.032,1.149,3.062,3.446v6.168h-2.119v-6.09
			c0-0.651-0.143-1.112-0.424-1.383s-0.696-0.405-1.242-0.405c-0.851,0-1.484,0.378-1.902,1.134v6.744h-2.12v-13.4h2.12
			L604.676,16.626L604.676,16.626z"/>
		<path fill="#1D1D1B" d="M612.51,13.145c0-0.326,0.104-0.598,0.312-0.812c0.205-0.215,0.501-0.323,0.885-0.323
			s0.681,0.108,0.891,0.323c0.209,0.215,0.313,0.485,0.313,0.812c0,0.318-0.104,0.586-0.313,0.798
			c-0.21,0.213-0.507,0.317-0.891,0.317s-0.68-0.104-0.885-0.317C612.613,13.731,612.51,13.465,612.51,13.145z M614.761,25.036
			h-2.12v-9.438h2.12V25.036z"/>
		<path fill="#1D1D1B" d="M616.671,20.247c0-1.454,0.337-2.622,1.013-3.503c0.675-0.882,1.578-1.322,2.714-1.322
			c1,0,1.809,0.351,2.426,1.047v-4.833h2.119v13.4h-1.919l-0.104-0.978c-0.635,0.769-1.479,1.151-2.539,1.151
			c-1.104,0-2-0.444-2.683-1.335C617.013,22.986,616.671,21.776,616.671,20.247z M618.791,20.429c0,0.96,0.185,1.709,0.555,2.245
			c0.369,0.538,0.895,0.809,1.574,0.809c0.866,0,1.5-0.387,1.902-1.16v-4.031c-0.392-0.756-1.02-1.134-1.886-1.134
			c-0.687,0-1.216,0.272-1.588,0.815C618.977,18.517,618.791,19.336,618.791,20.429z"/>
		<path fill="#1D1D1B" d="M631.311,25.211c-1.344,0-2.434-0.424-3.268-1.27c-0.834-0.848-1.252-1.975-1.252-3.381v-0.263
			c0-0.941,0.182-1.783,0.545-2.524s0.874-1.318,1.531-1.731c0.656-0.413,1.391-0.62,2.199-0.62c1.284,0,2.276,0.41,2.979,1.23
			s1.051,1.979,1.051,3.479v0.855h-6.168c0.064,0.779,0.324,1.396,0.781,1.85c0.457,0.453,1.031,0.682,1.723,0.682
			c0.973,0,1.764-0.394,2.373-1.179l1.145,1.091c-0.378,0.563-0.883,1.002-1.515,1.312
			C632.803,25.054,632.096,25.211,631.311,25.211z M631.057,17.123c-0.581,0-1.051,0.204-1.407,0.611
			c-0.357,0.407-0.587,0.974-0.687,1.701h4.039v-0.157c-0.046-0.71-0.234-1.246-0.566-1.609
			C632.104,17.306,631.645,17.123,631.057,17.123z"/>
		<path fill="#1D1D1B" d="M646.83,25.036c-0.093-0.181-0.174-0.474-0.244-0.881c-0.675,0.703-1.5,1.056-2.478,1.056
			c-0.948,0-1.723-0.271-2.321-0.812c-0.6-0.541-0.898-1.21-0.898-2.007c0-1.007,0.374-1.778,1.121-2.316
			c0.748-0.538,1.816-0.807,3.207-0.807h1.299V18.65c0-0.489-0.137-0.88-0.41-1.174c-0.272-0.294-0.688-0.44-1.245-0.44
			c-0.483,0-0.88,0.121-1.188,0.362s-0.462,0.548-0.462,0.92h-2.12c0-0.519,0.172-1.002,0.516-1.452
			c0.343-0.451,0.81-0.805,1.399-1.061c0.59-0.257,1.249-0.385,1.977-0.385c1.104,0,1.985,0.278,2.644,0.833
			c0.657,0.557,0.995,1.337,1.013,2.344v4.258c0,0.849,0.119,1.525,0.357,2.032v0.147L646.83,25.036L646.83,25.036z M644.501,23.51
			c0.419,0,0.812-0.102,1.183-0.306c0.369-0.203,0.646-0.477,0.832-0.82v-1.778h-1.143c-0.785,0-1.375,0.137-1.771,0.41
			c-0.396,0.272-0.593,0.659-0.593,1.159c0,0.407,0.135,0.731,0.405,0.974C643.684,23.39,644.047,23.51,644.501,23.51z"/>
		<path fill="#1D1D1B" d="M652.824,15.596l0.061,1.091c0.698-0.845,1.614-1.267,2.748-1.267c1.967,0,2.967,1.126,3.002,3.377v6.237
			h-2.121V18.92c0-0.6-0.129-1.043-0.388-1.331s-0.683-0.432-1.271-0.432c-0.854,0-1.49,0.387-1.909,1.16v6.718h-2.12v-9.438
			H652.824z"/>
		<path fill="#1D1D1B" d="M666.085,22.471c0-0.38-0.155-0.666-0.467-0.864c-0.312-0.197-0.827-0.372-1.548-0.523
			c-0.724-0.15-1.324-0.343-1.808-0.575c-1.059-0.512-1.588-1.254-1.588-2.226c0-0.812,0.345-1.494,1.029-2.041
			c0.687-0.547,1.559-0.82,2.617-0.82c1.129,0,2.04,0.279,2.734,0.838c0.694,0.56,1.042,1.282,1.042,2.173h-2.119
			c0-0.406-0.151-0.745-0.453-1.017c-0.303-0.271-0.704-0.406-1.204-0.406c-0.465,0-0.845,0.107-1.14,0.323
			c-0.293,0.215-0.438,0.503-0.438,0.863c0,0.326,0.136,0.579,0.409,0.759c0.272,0.181,0.826,0.362,1.656,0.546
			c0.832,0.184,1.484,0.401,1.959,0.654c0.476,0.253,0.826,0.557,1.057,0.911c0.229,0.354,0.345,0.785,0.345,1.291
			c0,0.85-0.352,1.537-1.056,2.062c-0.704,0.526-1.626,0.79-2.767,0.79c-0.772,0-1.463-0.14-2.066-0.419
			c-0.605-0.278-1.076-0.663-1.414-1.15c-0.337-0.489-0.506-1.017-0.506-1.579h2.06c0.028,0.5,0.218,0.885,0.567,1.154
			c0.349,0.271,0.811,0.406,1.387,0.406c0.559,0,0.982-0.105,1.273-0.317C665.939,23.092,666.085,22.814,666.085,22.471z"/>
		<path fill="#1D1D1B" d="M678.307,22.113l1.501-6.517h2.067l-2.573,9.438h-1.745l-2.022-6.481l-1.989,6.481H671.8l-2.582-9.438
			h2.067l1.525,6.446l1.938-6.446h1.596L678.307,22.113z"/>
		<path fill="#1D1D1B" d="M687.45,25.211c-1.343,0-2.434-0.424-3.268-1.27c-0.835-0.848-1.252-1.975-1.252-3.381v-0.263
			c0-0.941,0.183-1.783,0.545-2.524c0.363-0.741,0.873-1.318,1.531-1.731c0.656-0.413,1.39-0.62,2.198-0.62
			c1.285,0,2.278,0.41,2.979,1.23c0.701,0.82,1.052,1.979,1.052,3.479v0.855h-6.168c0.063,0.779,0.323,1.396,0.78,1.85
			c0.456,0.453,1.031,0.682,1.724,0.682c0.971,0,1.762-0.394,2.373-1.179l1.143,1.091c-0.378,0.563-0.883,1.002-1.514,1.312
			C688.943,25.054,688.235,25.211,687.45,25.211z M687.197,17.123c-0.582,0-1.051,0.204-1.409,0.611
			c-0.357,0.407-0.586,0.974-0.685,1.701h4.038v-0.157c-0.047-0.71-0.234-1.246-0.565-1.609
			C688.244,17.305,687.785,17.123,687.197,17.123z"/>
		<path fill="#1D1D1B" d="M697.822,17.533c-0.279-0.046-0.566-0.069-0.863-0.069c-0.971,0-1.625,0.372-1.963,1.116v6.456h-2.119
			v-9.438h2.023l0.053,1.056c0.512-0.82,1.221-1.23,2.128-1.23c0.303,0,0.553,0.041,0.751,0.122L697.822,17.533z"/>
	</g>
	<g enable-background="new    ">
		<path fill="#1D1D1B" d="M24.892,25.036c-0.093-0.181-0.174-0.474-0.244-0.881c-0.675,0.703-1.5,1.056-2.478,1.056
			c-0.948,0-1.722-0.271-2.321-0.812s-0.898-1.21-0.898-2.007c0-1.007,0.374-1.778,1.121-2.316c0.747-0.538,1.816-0.807,3.206-0.807
			h1.3V18.65c0-0.489-0.137-0.88-0.41-1.174s-0.689-0.44-1.247-0.44c-0.483,0-0.878,0.121-1.187,0.362s-0.462,0.548-0.462,0.92
			h-2.12c0-0.519,0.171-1.002,0.515-1.452c0.343-0.451,0.81-0.805,1.4-1.061c0.59-0.257,1.249-0.385,1.976-0.385
			c1.105,0,1.986,0.278,2.643,0.833c0.657,0.557,0.995,1.337,1.012,2.344v4.258c0,0.849,0.119,1.525,0.357,2.032v0.147
			L24.892,25.036L24.892,25.036z M22.563,23.51c0.419,0,0.812-0.102,1.182-0.306c0.369-0.203,0.647-0.477,0.833-0.82v-1.778h-1.143
			c-0.785,0-1.375,0.137-1.771,0.41c-0.396,0.272-0.593,0.659-0.593,1.159c0,0.407,0.135,0.731,0.406,0.974
			C21.747,23.388,22.109,23.51,22.563,23.51z"/>
		<path fill="#1D1D1B" d="M30.886,15.596l0.062,1.091c0.698-0.845,1.614-1.267,2.748-1.267c1.966,0,2.966,1.126,3.001,3.377v6.237
			h-2.12V18.92c0-0.6-0.129-1.043-0.388-1.331c-0.259-0.288-0.682-0.432-1.27-0.432c-0.855,0-1.492,0.387-1.91,1.16v6.718h-2.12
			v-9.438H30.886z"/>
		<path fill="#1D1D1B" d="M48.944,25.036c-0.093-0.181-0.174-0.474-0.244-0.881c-0.675,0.703-1.5,1.056-2.478,1.056
			c-0.948,0-1.722-0.271-2.321-0.812s-0.898-1.21-0.898-2.007c0-1.007,0.374-1.778,1.121-2.316s1.816-0.807,3.206-0.807h1.3V18.65
			c0-0.489-0.137-0.88-0.41-1.174c-0.273-0.294-0.689-0.44-1.247-0.44c-0.483,0-0.878,0.121-1.187,0.362s-0.462,0.548-0.462,0.92
			h-2.12c0-0.519,0.171-1.002,0.515-1.452c0.343-0.451,0.81-0.805,1.4-1.061c0.59-0.257,1.249-0.385,1.976-0.385
			c1.105,0,1.986,0.278,2.643,0.833c0.657,0.557,0.995,1.337,1.012,2.344v4.258c0,0.849,0.119,1.525,0.357,2.032v0.147
			L48.944,25.036L48.944,25.036z M46.615,23.51c0.419,0,0.812-0.102,1.182-0.306c0.369-0.203,0.647-0.477,0.833-0.82v-1.778h-1.143
			c-0.785,0-1.375,0.137-1.771,0.41c-0.396,0.272-0.593,0.659-0.593,1.159c0,0.407,0.135,0.731,0.406,0.974
			C45.799,23.388,46.162,23.51,46.615,23.51z"/>
		<path fill="#1D1D1B" d="M54.938,15.596L55,16.687c0.698-0.845,1.614-1.267,2.748-1.267c1.966,0,2.966,1.126,3.001,3.377v6.237
			h-2.12V18.92c0-0.6-0.129-1.043-0.388-1.331c-0.259-0.288-0.682-0.432-1.27-0.432c-0.855,0-1.492,0.387-1.91,1.16v6.718h-2.12
			v-9.438H54.938z"/>
		<path fill="#1D1D1B" d="M68.199,22.471c0-0.38-0.156-0.666-0.467-0.864c-0.311-0.197-0.828-0.372-1.548-0.523
			c-0.722-0.15-1.323-0.343-1.806-0.575c-1.059-0.512-1.588-1.254-1.588-2.226c0-0.812,0.343-1.494,1.03-2.041
			c0.686-0.547,1.559-0.82,2.617-0.82c1.128,0,2.04,0.279,2.735,0.838c0.695,0.56,1.042,1.282,1.042,2.173h-2.12
			c0-0.406-0.151-0.745-0.454-1.017c-0.303-0.271-0.704-0.406-1.204-0.406c-0.465,0-0.845,0.107-1.139,0.323
			c-0.294,0.215-0.44,0.503-0.44,0.863c0,0.326,0.136,0.579,0.41,0.759c0.273,0.181,0.826,0.362,1.658,0.546
			s1.484,0.401,1.958,0.654c0.474,0.253,0.826,0.557,1.056,0.911s0.345,0.785,0.345,1.291c0,0.85-0.352,1.537-1.056,2.062
			c-0.704,0.526-1.625,0.79-2.766,0.79c-0.773,0-1.463-0.14-2.067-0.419c-0.605-0.278-1.076-0.663-1.414-1.15
			c-0.337-0.489-0.506-1.017-0.506-1.579h2.059c0.029,0.5,0.218,0.885,0.567,1.154c0.349,0.271,0.812,0.406,1.387,0.406
			c0.558,0,0.983-0.105,1.273-0.317C68.053,23.092,68.199,22.814,68.199,22.471z"/>
		<path fill="#1D1D1B" d="M80.421,22.113l1.5-6.517h2.068l-2.574,9.438H79.67l-2.024-6.481l-1.989,6.481h-1.745l-2.582-9.438h2.067
			l1.527,6.446l1.937-6.446h1.597L80.421,22.113z"/>
		<path fill="#1D1D1B" d="M89.564,25.211c-1.343,0-2.433-0.424-3.267-1.27c-0.834-0.848-1.252-1.975-1.252-3.381v-0.263
			c0-0.941,0.182-1.783,0.545-2.524c0.363-0.741,0.874-1.318,1.531-1.731c0.657-0.413,1.39-0.62,2.199-0.62
			c1.285,0,2.278,0.41,2.979,1.23c0.701,0.82,1.051,1.979,1.051,3.479v0.855h-6.168c0.064,0.779,0.324,1.396,0.781,1.85
			c0.457,0.453,1.031,0.682,1.723,0.682c0.971,0,1.762-0.394,2.373-1.179l1.143,1.091c-0.378,0.563-0.883,1.002-1.514,1.312
			C91.057,25.054,90.349,25.211,89.564,25.211z M89.311,17.123c-0.582,0-1.051,0.204-1.409,0.611
			c-0.357,0.407-0.586,0.974-0.685,1.701h4.039v-0.157c-0.046-0.71-0.235-1.246-0.567-1.609
			C90.357,17.306,89.898,17.123,89.311,17.123z"/>
		<path fill="#1D1D1B" d="M99.937,17.533c-0.279-0.046-0.567-0.069-0.864-0.069c-0.971,0-1.625,0.372-1.963,1.116v6.456h-2.12
			v-9.438h2.024l0.052,1.056c0.512-0.82,1.221-1.23,2.128-1.23c0.303,0,0.553,0.041,0.75,0.122L99.937,17.533z"/>
	</g>
</g>
</svg>
