<?xml version="1.0" encoding="utf-8"?>
<!-- Generator: Adobe Illustrator 16.0.0, SVG Export Plug-In . SVG Version: 6.00 Build 0)  -->
<!DOCTYPE svg PUBLIC "-//W3C//DTD SVG 1.1//EN" "http://www.w3.org/Graphics/SVG/1.1/DTD/svg11.dtd">
<svg version="1.1" id="Layer_1" xmlns="http://www.w3.org/2000/svg" xmlns:xlink="http://www.w3.org/1999/xlink" x="0px" y="0px"
	 width="123.719px" height="45px" viewBox="0 0 123.719 45" enable-background="new 0 0 123.719 45" xml:space="preserve">
<metadata><?xpacket begin="﻿" id="W5M0MpCehiHzreSzNTczkc9d"?>
<x:xmpmeta xmlns:x="adobe:ns:meta/" x:xmptk="Adobe XMP Core 5.3-c011 66.145661, 2012/02/06-14:56:27        ">
   <rdf:RDF xmlns:rdf="http://www.w3.org/1999/02/22-rdf-syntax-ns#">
      <rdf:Description rdf:about=""
            xmlns:dc="http://purl.org/dc/elements/1.1/">
         <dc:format>image/svg+xml</dc:format>
         <dc:title>
            <rdf:Alt>
               <rdf:li xml:lang="x-default">Print</rdf:li>
            </rdf:Alt>
         </dc:title>
      </rdf:Description>
      <rdf:Description rdf:about=""
            xmlns:xmp="http://ns.adobe.com/xap/1.0/"
            xmlns:xmpGImg="http://ns.adobe.com/xap/1.0/g/img/">
         <xmp:MetadataDate>2019-04-13T21:56:23+02:00</xmp:MetadataDate>
         <xmp:ModifyDate>2019-04-13T21:56:23+02:00</xmp:ModifyDate>
         <xmp:CreateDate>2019-04-13T21:56:23+02:00</xmp:CreateDate>
         <xmp:CreatorTool>Adobe Illustrator CS6 (Macintosh)</xmp:CreatorTool>
         <xmp:Thumbnails>
            <rdf:Alt>
               <rdf:li rdf:parseType="Resource">
                  <xmpGImg:width>256</xmpGImg:width>
                  <xmpGImg:height>96</xmpGImg:height>
                  <xmpGImg:format>JPEG</xmpGImg:format>
                  <xmpGImg:image>/9j/4AAQSkZJRgABAgEASABIAAD/7QAsUGhvdG9zaG9wIDMuMAA4QklNA+0AAAAAABAASAAAAAEA&#xA;AQBIAAAAAQAB/+4ADkFkb2JlAGTAAAAAAf/bAIQABgQEBAUEBgUFBgkGBQYJCwgGBggLDAoKCwoK&#xA;DBAMDAwMDAwQDA4PEA8ODBMTFBQTExwbGxscHx8fHx8fHx8fHwEHBwcNDA0YEBAYGhURFRofHx8f&#xA;Hx8fHx8fHx8fHx8fHx8fHx8fHx8fHx8fHx8fHx8fHx8fHx8fHx8fHx8fHx8f/8AAEQgAYAEAAwER&#xA;AAIRAQMRAf/EAaIAAAAHAQEBAQEAAAAAAAAAAAQFAwIGAQAHCAkKCwEAAgIDAQEBAQEAAAAAAAAA&#xA;AQACAwQFBgcICQoLEAACAQMDAgQCBgcDBAIGAnMBAgMRBAAFIRIxQVEGE2EicYEUMpGhBxWxQiPB&#xA;UtHhMxZi8CRygvElQzRTkqKyY3PCNUQnk6OzNhdUZHTD0uIIJoMJChgZhJRFRqS0VtNVKBry4/PE&#xA;1OT0ZXWFlaW1xdXl9WZ2hpamtsbW5vY3R1dnd4eXp7fH1+f3OEhYaHiImKi4yNjo+Ck5SVlpeYmZ&#xA;qbnJ2en5KjpKWmp6ipqqusra6voRAAICAQIDBQUEBQYECAMDbQEAAhEDBCESMUEFURNhIgZxgZEy&#xA;obHwFMHR4SNCFVJicvEzJDRDghaSUyWiY7LCB3PSNeJEgxdUkwgJChgZJjZFGidkdFU38qOzwygp&#xA;0+PzhJSktMTU5PRldYWVpbXF1eX1RlZmdoaWprbG1ub2R1dnd4eXp7fH1+f3OEhYaHiImKi4yNjo&#xA;+DlJWWl5iZmpucnZ6fkqOkpaanqKmqq6ytrq+v/aAAwDAQACEQMRAD8Ai2dg6Z2KuxV2KuxV2Kux&#xA;V2KuxV2KuxV2KuxV2KuxV2KuxV2KuxV2KuxV2KuxV2KuxV2KuxV2KuxV2KuxV2KuxV2KuxV2KuxV&#xA;2KuxV2KuxV2KuxV2KuxV2KuxV2KuxV2KuxV2KuxV2KuxV2KuxV2KuxV2KuxV2KuxV2KuxV2KuxV2&#xA;KuxV2KuxV2KuxV2KuxV2KuxV2KuxV2KuxV2KuxV2KuxV2KuxV2KuxV2KuxV2KuxV2KuxV2KuxV2K&#xA;uxV2KuxV2KuxV2KuxV2KuxV2KuxV2KuxV2KuxVdFG8siRoKu5CqPcmgxJSz/AM7/AJQX3lXQItXf&#xA;UI7v40juoVjMfBnG3BizcxXboMwNPrxlnw1TfkwGIu3n2Z7juxV2KuxV2KuxV2KuxV2KuxV2KuxV&#xA;2KuxV2KuxV2Kq1pZ3V5cx2tpE89zMwSKGMFmZj2AGCUgBZ5JAt6DY/kL55ubYTStZ2bn/dE8rlxs&#xA;Dv6SSL/w2YEu08QPUuQNLIsR8zeT/MHlq5SDV7Uw+oCYZQQ8bgdeLrtUdx1zKw54ZBcS0zxmPNOv&#xA;KX5V655q0xtQ0y+sQiOY5YJpJVlRhuOSrEw3G43yrPrY4pVIH8fFnjwGQsMWbTL9dSOmGBvr4m+r&#xA;/V6fF6vLhwp48tsyeMVxdGujdMq81/lTrvlfSf0lqd7Y+mzLHHBFJK0ru2/FQYlXYVJ3zFwa2OSX&#xA;DEFtngMRZY95f8ta35gvfqWk2rXMwFXIoERa05O5oqj55kZc0cYuRprjAyNBm0v5BeeUtvWWSykk&#xA;oD9WWZxJU/s1aNY6j/WzDHaeK+rd+VkwDU9L1DS72Wx1CB7a7hNJIZBQjuPmD2IzOhMSFjcNBiQa&#xA;LK7T8pPM955XTzFby20lrJEZo7ZWlNwwBK8Qgj4liRsOWYstdAT4Dd/Y2jBIxtrXPym81aJ5ck13&#xA;UmtoYYuHqWokZp19RwgBCoY+rb/Hjj10Jz4RaJYJRFlKvK3kbzL5nkcaTa84YjSa5kISJDStCx6n&#xA;2Wpy3NqYY/qLGGOUuTJ9Q/Ibzza25miNnesP9028rB/o9VIl/HMaPaWInqG06aQee3FvcWtxJb3E&#xA;bQ3ELFJInBVlZTQgg7gjM8EEWHHIp6b+ZOgfmbY+WreTzLrNvf6ZDMkcUELNz5lTxZz6MXOgU7sx&#xA;Oa7SZcMpngiQfx5uTmjMR9R2ed6Pouqazfx2Gl2z3V3J9mJKdB1LMaKoHiTTM/JkjAXI0HHjEk0G&#xA;ep+QHndrf1TNYo9CfQMsnOo7VERSp/1swf5TxX1b/wArLyYT5i8sa55dvfqer2rW0pFY2NGR1H7S&#xA;OtVYfq75m4s0cguJaZwMTRQ+laRqer30djpts91dy/YijFTQdST0AHcnbJTyRgLkaCIxJNBnsf5B&#xA;eeGtvWaWxSShP1Zpn9So7VWMpU/62YJ7TxX1b/ysmD695e1jQb9rDVrZra4A5KGoVZegZGFVYe4z&#xA;MxZYzFxNtEoGJoo3yt5I8yeZ5XTSbX1IotprhyEiQ9gWPU+wqchm1EMf1FlDHKXJlV7+Qfnm3gMs&#xA;T2V246QwzOHO1dvVjiX/AIbMaPaeInqG06WTz29sruxupbS8he3uYW4ywyAqynwIOZ8ZCQscnHIr&#xA;mo4UOxV2KuxV2KuxV2KuxV7Z/wA49+XbY29/5hlQNOJPqdqx34AKHkI925qK/PNN2plNiHxc3Sw5&#xA;lI/Net/m9qXmC4urG01qzsY5WFlb28FzGnpqaKWCqA5alTyr92X4MenjAAmJPwYTlkJ2tn+u2l75&#xA;o/KKWfW7R7fV4LV7lkljMUiz2vL4uDAcfUVD9DZg45DHqKifTf3t8gZY9+byL8rPOjeWPMkbTvTS&#xA;77jDfA9FFfgl/wCeZP3Vza63T+JDb6hycTDk4ZeT3M/l9oz+el831Un0K+jQcTcU4ievT+7/AB3z&#xA;SfmpeF4f4ruc7whxcTxD82POv+JvMjLbPy0rT+UNnQ7Oa/vJf9mRt7AZutFp/Dhv9RcLPk4j5PWf&#xA;JWmyeVPytF/p9m13q11bC9MUSNJJLLMAYV4oCxVFZdh7nNVqJ+Lnomog05WMcMLHN5xpWt/nPaa7&#xA;Fqdxa61cp6ga4tZLe4aBkJHJRFx4Lt04gUzYzx6Yx4QYj4hx4yyA3uyv/nIXQ7d9L07XEQC5im+q&#xA;SuBQtHIrOvL/AFWQ0+eYvZeQ8Rj05tuqjsCyPylqU2l/k7BqUChprPTpp4lb7JaPmy19qjMfPAS1&#xA;BB6ybMZrHfk8C1Pzb5s1ovDf6rdXUdyy87ZpWELMCCv7oERjcDoubyGDHDcACnAM5HmXu3nS9b8v&#xA;fy2t7XRuMVyGjs4Z6A0kdWeSWh2LNwY/PNLp4+PmJl73OyHw4bPK/JX5q+YtK1+GbVtSub3S5W43&#xA;kM7tNRT+1GGJ4lTv8PyzZ6jRQlCogCTi485B3Oyn+bHmPyx5i1y31TRPU9R4fTvfUT06sh+Bvc8T&#xA;T6Bh0WKeOJjL4LnnGRsPU/z8/wCUGT/mNh/4g+avsz+9+Dlar6Ui/wCcdTp3oawPh/SXKImv2/Qo&#xA;aU9ufWnt7Zf2rdx7mvSVv3pP5sf86dL8xXOoepfvbRzNJbm0LS2fpBiVrEnJAvH/AH4tfHLsA00o&#xA;AbX582E/EBvdC/mH+aelebNATTm0uS3v4JUljuGZSEYDjIAPtUYHpktLopYp3eyMuYSFUzb8k9Et&#xA;9K8lT+YPQM17ferIAg5SGGAsqxIBU1ZkY0HXb2zD7RyGWTg6Bv08ajbBLrW/zsn1k6otrrMLCTnH&#xA;aJb3It1Wuyejx4MANviG+ZscemEeG4/MW0GWW73Z9+b2mrrP5bwa3cWxt9Rs1t7kxupWSP1+KSxM&#xA;G3FC4qD3XMHQz4M3CDsbb84uFo3yIs0n5SQp5YeNNUNvKqOaCl3U8+Vf2q9OW3TtkNTX5j1/Tf2J&#xA;xf3fp5vO9L8z/mh5P1oXvmKLUrnTalbuK4LywsCDT05G5xqQd/hP4ZsJ4cGWNQ4QXHjOcDZukh/M&#xA;nzlpfmzVbfUbOxezmSL0rguysZKGqH4fAEjL9Jp5YokE2wzZBM2GIZlNLsVdirsVdirsVdirsVe/&#xA;/wDOPmowS+V76wDD17W7MjJXfhMi8T/wSNmi7UgRMHvDn6U+mmO65+dn5gaNq11pl5p2nxz20jIQ&#xA;0U4qAfhYfvtww3BzIx9nYpxEgTv7v1NctRMGiAh7783fzGv/AC1dXcmkWg0e4D2ct6kM4UGVSpAY&#xA;zEV360pXJR0OGMwOI8XOtv1IOeZjy2YR5I8q3PmfzFbaXFVYmPqXcw/3XAp+Nvn2HuRmZqMwxwMm&#xA;nHDiNPpkap5dj1FPJwYCf6lyW1rt9XA9PhyrXlx7dab5znBOvE8/tdlxC+F80+e/Kdx5X8x3Gmvy&#xA;a3/vbKZh9uFj8J+Y+yfcZ0emzjLASdblhwmn0BpGt6jL+V1nqegxR3Wow2EXpQOC6tJAoSVOKMjE&#xA;/AwAB65ocmMDOYz2FufGR4LHc8tP/OQfnVSQbHTgRsQYp61/5HZs/wCS8ffL7P1ON+al5IH8wfPn&#xA;nnVtItdO8w6XBYW10UvLZ0iljdwoIBBeRxT4txSvTJ6XTYoyJgbI2Y5csiKIek6T/wCSIf8A7ZNz&#xA;/wARkzXT/wAa/wA4OTH+6+D54gl9KaOWlfTYNTxoa50BFh14fQn512x1n8vYNRsAZ4IZob3mu/7h&#xA;42Xlt2/eAnNB2eeDKQfc5+oFwsPCNA0K/wBd1e20qwUNc3LcVLV4KOpdyoYhVG5NM3mXIIRMjyDg&#xA;xiZGgmXnPyNqnlG6t7XUbi2mmuYzKi2zO3FQePxc0j6nplWn1McoJAOzLJjMOb2j8/P+UGT/AJjY&#xA;f+IPmn7M/vfg5uq+l5j5B/L7zjqtoPMPl3UbezkgkeIEyyxzBlAJWiRutGDdCd++bLVarHE8EwS4&#xA;uLFI7gpppP59eb7GUQ6vawXyxtxm5IbeeooCKr8AOx/3X1yufZmOW8TX2s46qQ5sr/OrQNGv/KCe&#xA;Z0txb6ihgb1OISR45qLwl8SvIHfpTMXs/LKOTgvZt1EQY8ScflJqUl1+WVumn8H1CyW4gWN90EwZ&#xA;njD0KmhDrXcZTroVmN8jTPAbhs8/ufz7892txJb3GnWEM8LFJYnhuFZWU0IIM3XM8dmYiLBP2fqc&#xA;c6qQ6BD+a/zM8/6p5V9PVNKtrbR9XHCK7SGZeXBg3wM0rD9nuN+2SwaPFGfpJ4o/juRPNMx3Gxbs&#xA;fKv5jeS/L581aVqdv9QeKK4lt7d5JecctOLPE8XpniH3NdhWhxlmw5p8EgbUQnAcQLI/IX516xrG&#xA;t2ei6tYwy/XG9Jbm3DIwPH7ToS4Ybb0pmPqez4wiZRPJsxagk0WOfnp5Y0nR9csrvToVthqMbtPb&#xA;xgKgeNgOaqPs8uW9PDMjs3NKcSD0a9TAA7PM82LjOxV2KuxV2KuxV2KuxVOfKnmvVvLGrJqOmuA4&#xA;HGaF6mOVD1RwKf2ZVnwRyRos4TMTYeqN+dXkHVYY38w+XGnuoxRQYba7UDvxaYxkb+2av+T8sfol&#xA;t8Q5X5iB5hjnnj85J9b0t9F0ayGm6XIOExJBkdK14AKAsanvStfHMjTaAQlxSNya8mo4hQ2Cr+Wf&#xA;5h+TPKGkzCe0vbjV7puVxNHHDwCr9iNWaUNx7n4epwazS5MstiOEJw5YwHmwyXzhrL+bT5o9Smo/&#xA;WPrC/wAoA2Ef+pw+D5ZmDBHw+DpTT4h4uLqzT8yvzG8meb9Fhjis7y31i1YPbzPHEY/ioJI2YS8u&#xA;J6149QMw9JpMmKXMcJbs2WMx5pF+X/5nat5Rd4BGL3S5m5SWbMVKt3eNqHiT32ocv1Wjjl35Sa8W&#xA;Yw9zO5Pzj/LR5f0i3lt31b7XrNbWpbmev7/lz+njmCNBm5cXp95+5v8AzEOdbvP/AD/+Y+qecLiI&#xA;SxLaafbEtb2iHl8R2Lu9Byam3QAZn6XSRxDvJaMuYzZRY/mv5dg/LVvK7294dQNjNaiUJF6POQMA&#xA;eXqcuPxfy5iy0Uzm47FXbaM44OF5Tm0cR6N5B/OK98uWI0nUrb9I6WtRCAwWWINuVHIEOn+SaU8e&#xA;2a/VaAZDxA1JycWoMRR5Mmb86/ImlxzTeXfLrQ30wo7GG3tVbuObQmRm37UzG/k/LL65bfEtn5iI&#xA;5B5N5j8xan5h1abVNSkD3E1AFXZEQfZRBvRRm1xYo448IcWczI2Xof5m/mv5d80+W10zT7e8inFx&#xA;HMWuEiVOKKwIqkjmvxeGa/R6KeKfESOTkZs4kKDE/IX5har5PvJHt41urK4p9as3YqG41oyMAeDb&#xA;9aH5Zl6nSxyjfYtOLKYF6I/5x/lnPKL+68tyPqg+ITG2tXbkK0/fM4f6aZr/AMhmGwl6feXI/MQ5&#xA;1uwn8w/zT1LzcEs0hFjpMT81tw3N5HFQGkag6A7KBt75maXRDFvzk05cxn7ks8j+fdY8o37T2dJ7&#xA;WagurKQkJIB0II+yw7HLdTpo5RR5sceUwOz0mX85vy3v2S81Py282pLuHa3tZyCv2aSuyv2/lzXD&#xA;s/NHaMtveXI/MQO5G7DfzB/NbUPNVuum29sNP0hGDegDyeQr9nmwAAA7KPx2zM0uiGI2TcmnLnMt&#xA;uiK8hfnFeeXdPXSNStf0jpaAiGjcZY1apK/ECrrv0NKePbIanQDIeKJqTLFqDEUeTJ1/Ob8udOMl&#xA;1ovlt479q1cQWtryrX7UsbSNuf8AJzG/k/NLaUtveS2fmIDkHl3nDzfqvmrV21HUCq8V9O3t0rwi&#xA;jBJCivU71J75s8GCOKNBxsmQyNlI8ua3Yq7FXYq7FXYq7FXYq7FXYq7FXYq7FXYq7FXYq7FXYq7F&#xA;XYq7FXYq7FXYq7FXYq7FXYq7FXYq7FXYq7FXYq7FXYq7FXYq7FXYq7FXYq7FXYq7FXYq7FXYq7FX&#xA;Yq7FXYq7FXYq7FXYq7FXYq7FXYq7FXYq7FXYq7FXYq7FXYq7FXYq7FXYq7FXYq7FXYq7FXYq7FXY&#xA;q7FXYq7FXYq7FXYq7FXYq7FXYq7FXYq7FXYq7FXYq7FXYq7FXYq9I/5UH55/35Zf8jn/AOqea/8A&#xA;lPF5uT+Vk7/lQfnn/fll/wAjn/6p4/yni81/Kyd/yoPzz/vyy/5HP/1Tx/lPF5r+Vk7/AJUH55/3&#xA;5Zf8jn/6p4/yni81/Kyd/wAqD88/78sv+Rz/APVPH+U8Xmv5WTv+VB+ef9+WX/I5/wDqnj/KeLzX&#xA;8rJ3/Kg/PP8Avyy/5HP/ANU8f5Txea/lZO/5UH55/wB+WX/I5/8Aqnj/ACni81/Kyd/yoPzz/vyy&#xA;/wCRz/8AVPH+U8Xmv5WTv+VB+ef9+WX/ACOf/qnj/KeLzX8rJ3/Kg/PP+/LL/kc//VPH+U8Xmv5W&#xA;Tv8AlQfnn/fll/yOf/qnj/KeLzX8rJ3/ACoPzz/vyy/5HP8A9U8f5Txea/lZO/5UH55/35Zf8jn/&#xA;AOqeP8p4vNfysnf8qD88/wC/LL/kc/8A1Tx/lPF5r+Vk7/lQfnn/AH5Zf8jn/wCqeP8AKeLzX8rJ&#xA;3/Kg/PP+/LL/AJHP/wBU8f5Txea/lZO/5UH55/35Zf8AI5/+qeP8p4vNfysnf8qD88/78sv+Rz/9&#xA;U8f5Txea/lZO/wCVB+ef9+WX/I5/+qeP8p4vNfysnf8AKg/PP+/LL/kc/wD1Tx/lPF5r+Vk7/lQf&#xA;nn/fll/yOf8A6p4/yni81/Kyd/yoPzz/AL8sv+Rz/wDVPH+U8Xmv5WTv+VB+ef8Afll/yOf/AKp4&#xA;/wAp4vNfysnf8qD88/78sv8Akc//AFTx/lPF5r+Vk7/lQfnn/fll/wAjn/6p4/yni81/Kyd/yoPz&#xA;z/vyy/5HP/1Tx/lPF5r+Vk7/AJUH55/35Zf8jn/6p4/yni81/Kyd/wAqD88/78sv+Rz/APVPH+U8&#xA;Xmv5WTv+VB+ef9+WX/I5/wDqnj/KeLzX8rJ3/Kg/PP8Avyy/5HP/ANU8f5Txea/lZO/5UH55/wB+&#xA;WX/I5/8Aqnj/ACni81/Kyf/Z</xmpGImg:image>
               </rdf:li>
            </rdf:Alt>
         </xmp:Thumbnails>
      </rdf:Description>
      <rdf:Description rdf:about=""
            xmlns:xmpMM="http://ns.adobe.com/xap/1.0/mm/"
            xmlns:stRef="http://ns.adobe.com/xap/1.0/sType/ResourceRef#"
            xmlns:stEvt="http://ns.adobe.com/xap/1.0/sType/ResourceEvent#">
         <xmpMM:InstanceID>xmp.iid:0680117407206811822AB51A6D4001DF</xmpMM:InstanceID>
         <xmpMM:DocumentID>xmp.did:0680117407206811822AB51A6D4001DF</xmpMM:DocumentID>
         <xmpMM:OriginalDocumentID>uuid:5D20892493BFDB11914A8590D31508C8</xmpMM:OriginalDocumentID>
         <xmpMM:RenditionClass>proof:pdf</xmpMM:RenditionClass>
         <xmpMM:DerivedFrom rdf:parseType="Resource">
            <stRef:instanceID>uuid:47196d6c-ba57-9242-9231-7a99ff26ff55</stRef:instanceID>
            <stRef:documentID>xmp.did:0280117407206811822AB51A6D4001DF</stRef:documentID>
            <stRef:originalDocumentID>uuid:5D20892493BFDB11914A8590D31508C8</stRef:originalDocumentID>
            <stRef:renditionClass>proof:pdf</stRef:renditionClass>
         </xmpMM:DerivedFrom>
         <xmpMM:History>
            <rdf:Seq>
               <rdf:li rdf:parseType="Resource">
                  <stEvt:action>saved</stEvt:action>
                  <stEvt:instanceID>xmp.iid:0280117407206811822AB51A6D4001DF</stEvt:instanceID>
                  <stEvt:when>2019-04-13T21:44:43+02:00</stEvt:when>
                  <stEvt:softwareAgent>Adobe Illustrator CS6 (Macintosh)</stEvt:softwareAgent>
                  <stEvt:changed>/</stEvt:changed>
               </rdf:li>
               <rdf:li rdf:parseType="Resource">
                  <stEvt:action>saved</stEvt:action>
                  <stEvt:instanceID>xmp.iid:0680117407206811822AB51A6D4001DF</stEvt:instanceID>
                  <stEvt:when>2019-04-13T21:56:23+02:00</stEvt:when>
                  <stEvt:softwareAgent>Adobe Illustrator CS6 (Macintosh)</stEvt:softwareAgent>
                  <stEvt:changed>/</stEvt:changed>
               </rdf:li>
            </rdf:Seq>
         </xmpMM:History>
      </rdf:Description>
      <rdf:Description rdf:about=""
            xmlns:illustrator="http://ns.adobe.com/illustrator/1.0/">
         <illustrator:StartupProfile>Print</illustrator:StartupProfile>
      </rdf:Description>
      <rdf:Description rdf:about=""
            xmlns:xmpTPg="http://ns.adobe.com/xap/1.0/t/pg/"
            xmlns:stDim="http://ns.adobe.com/xap/1.0/sType/Dimensions#"
            xmlns:stFnt="http://ns.adobe.com/xap/1.0/sType/Font#"
            xmlns:xmpG="http://ns.adobe.com/xap/1.0/g/">
         <xmpTPg:HasVisibleOverprint>False</xmpTPg:HasVisibleOverprint>
         <xmpTPg:HasVisibleTransparency>False</xmpTPg:HasVisibleTransparency>
         <xmpTPg:NPages>1</xmpTPg:NPages>
         <xmpTPg:MaxPageSize rdf:parseType="Resource">
            <stDim:w>123.718750</stDim:w>
            <stDim:h>45.000000</stDim:h>
            <stDim:unit>Pixels</stDim:unit>
         </xmpTPg:MaxPageSize>
         <xmpTPg:Fonts>
            <rdf:Bag>
               <rdf:li rdf:parseType="Resource">
                  <stFnt:fontName>Roboto-Medium</stFnt:fontName>
                  <stFnt:fontFamily>Roboto</stFnt:fontFamily>
                  <stFnt:fontFace>Medium</stFnt:fontFace>
                  <stFnt:fontType>TrueType</stFnt:fontType>
                  <stFnt:versionString>Version 2.001047; 2015</stFnt:versionString>
                  <stFnt:composite>False</stFnt:composite>
                  <stFnt:fontFileName>Roboto-Medium.ttf</stFnt:fontFileName>
               </rdf:li>
            </rdf:Bag>
         </xmpTPg:Fonts>
         <xmpTPg:PlateNames>
            <rdf:Seq>
               <rdf:li>Cyan</rdf:li>
               <rdf:li>Magenta</rdf:li>
            </rdf:Seq>
         </xmpTPg:PlateNames>
         <xmpTPg:SwatchGroups>
            <rdf:Seq>
               <rdf:li rdf:parseType="Resource">
                  <xmpG:groupName>Default Swatch Group</xmpG:groupName>
                  <xmpG:groupType>0</xmpG:groupType>
               </rdf:li>
            </rdf:Seq>
         </xmpTPg:SwatchGroups>
      </rdf:Description>
      <rdf:Description rdf:about=""
            xmlns:pdf="http://ns.adobe.com/pdf/1.3/">
         <pdf:Producer>Adobe PDF library 10.01</pdf:Producer>
      </rdf:Description>
   </rdf:RDF>
</x:xmpmeta>
                                                                                                    
                                                                                                    
                                                                                                    
                                                                                                    
                                                                                                    
                                                                                                    
                                                                                                    
                                                                                                    
                                                                                                    
                                                                                                    
                                                                                                    
                                                                                                    
                                                                                                    
                                                                                                    
                                                                                                    
                                                                                                    
                                                                                                    
                                                                                                    
                                                                                                    
                                                                                                    
                           
<?xpacket end="w"?>
	</metadata>
<g id="Layer_1_1_">
</g>
<g id="Layer_2">
	<rect x="0" fill="#4362AC" width="123.719" height="45"/>
	<g enable-background="new    ">
		<path fill="#FFFFFF" d="M22.244,29.756c-1.611,0-2.918-0.507-3.919-1.522c-1.001-1.015-1.501-2.366-1.501-4.055v-0.313
			c0-1.131,0.218-2.141,0.653-3.03c0.437-0.889,1.049-1.581,1.837-2.077c0.788-0.495,1.667-0.742,2.637-0.742
			c1.542,0,2.733,0.491,3.574,1.475c0.84,0.984,1.261,2.376,1.261,4.176v1.025h-7.398c0.076,0.935,0.389,1.674,0.937,2.219
			c0.548,0.544,1.236,0.816,2.066,0.816c1.165,0,2.114-0.472,2.847-1.413l1.371,1.308c-0.454,0.677-1.06,1.202-1.816,1.575
			S23.187,29.756,22.244,29.756z M21.941,20.056c-0.697,0-1.261,0.244-1.689,0.732s-0.703,1.169-0.821,2.041h4.845v-0.188
			c-0.056-0.852-0.282-1.495-0.68-1.931C23.197,20.273,22.646,20.056,21.941,20.056z"/>
		<path fill="#FFFFFF" d="M32.824,21.95l2.155-3.726h2.825l-3.463,5.577l3.578,5.745h-2.805l-2.26-3.872l-2.25,3.872h-2.825
			l3.579-5.745l-3.453-5.577h2.804L32.824,21.95z"/>
		<path fill="#FFFFFF" d="M44.523,29.756c-1.611,0-2.918-0.507-3.919-1.522c-1.001-1.015-1.501-2.366-1.501-4.055v-0.313
			c0-1.131,0.218-2.141,0.653-3.03c0.437-0.889,1.049-1.581,1.837-2.077c0.788-0.495,1.667-0.742,2.637-0.742
			c1.542,0,2.732,0.491,3.573,1.475c0.841,0.984,1.262,2.376,1.262,4.176v1.025h-7.398c0.076,0.935,0.389,1.674,0.937,2.219
			c0.547,0.544,1.236,0.816,2.066,0.816c1.165,0,2.114-0.472,2.847-1.413l1.37,1.308c-0.453,0.677-1.059,1.202-1.815,1.575
			S45.464,29.756,44.523,29.756z M44.219,20.056c-0.697,0-1.261,0.244-1.689,0.732s-0.703,1.169-0.821,2.041h4.845v-0.188
			c-0.056-0.852-0.283-1.495-0.681-1.931C45.475,20.273,44.924,20.056,44.219,20.056z"/>
		<path fill="#FFFFFF" d="M56.965,20.548c-0.335-0.056-0.68-0.084-1.035-0.084c-1.166,0-1.95,0.446-2.354,1.34v7.743h-2.543V18.225
			h2.428l0.062,1.266c0.614-0.983,1.465-1.475,2.554-1.475c0.362,0,0.662,0.049,0.899,0.146L56.965,20.548z"/>
		<path fill="#FFFFFF" d="M63.223,27.727c0.635,0,1.162-0.186,1.58-0.555c0.419-0.37,0.642-0.827,0.67-1.371h2.396
			c-0.028,0.704-0.248,1.362-0.659,1.973c-0.412,0.61-0.97,1.093-1.675,1.449c-0.704,0.355-1.465,0.533-2.281,0.533
			c-1.583,0-2.839-0.513-3.767-1.538s-1.392-2.441-1.392-4.248v-0.262c0-1.724,0.46-3.103,1.381-4.139s2.177-1.554,3.768-1.554
			c1.346,0,2.443,0.392,3.291,1.177c0.847,0.785,1.292,1.815,1.334,3.092h-2.396c-0.028-0.648-0.25-1.182-0.665-1.601
			s-0.943-0.628-1.585-0.628c-0.823,0-1.458,0.298-1.904,0.895s-0.674,1.502-0.681,2.716v0.408c0,1.228,0.222,2.144,0.665,2.747
			C61.745,27.425,62.386,27.727,63.223,27.727z"/>
		<path fill="#FFFFFF" d="M69.794,15.284c0-0.391,0.124-0.715,0.372-0.973c0.247-0.258,0.602-0.387,1.062-0.387
			c0.461,0,0.816,0.129,1.067,0.387c0.252,0.258,0.377,0.583,0.377,0.973c0,0.384-0.125,0.703-0.377,0.957
			c-0.251,0.255-0.606,0.382-1.067,0.382c-0.46,0-0.814-0.127-1.062-0.382C69.918,15.987,69.794,15.668,69.794,15.284z
			 M72.494,29.547h-2.543V18.225h2.543V29.547z"/>
		<path fill="#FFFFFF" d="M81.609,26.471c0-0.454-0.187-0.799-0.56-1.036c-0.374-0.237-0.993-0.446-1.857-0.628
			c-0.865-0.182-1.588-0.412-2.166-0.69c-1.271-0.614-1.905-1.504-1.905-2.669c0-0.977,0.412-1.793,1.235-2.448
			c0.823-0.656,1.869-0.983,3.139-0.983c1.354,0,2.447,0.334,3.281,1.004c0.833,0.67,1.25,1.538,1.25,2.605h-2.543
			c0-0.488-0.181-0.895-0.544-1.219c-0.362-0.324-0.844-0.486-1.444-0.486c-0.558,0-1.013,0.129-1.365,0.387
			c-0.353,0.259-0.528,0.604-0.528,1.036c0,0.391,0.164,0.694,0.492,0.91c0.327,0.217,0.99,0.435,1.988,0.654
			c0.997,0.22,1.78,0.481,2.349,0.785c0.568,0.303,0.99,0.668,1.267,1.093c0.275,0.426,0.413,0.942,0.413,1.549
			c0,1.019-0.422,1.844-1.267,2.476c-0.844,0.631-1.949,0.946-3.316,0.946c-0.929,0-1.755-0.167-2.48-0.502
			s-1.291-0.795-1.695-1.381c-0.404-0.587-0.606-1.218-0.606-1.895h2.47c0.034,0.6,0.261,1.062,0.68,1.387s0.974,0.486,1.664,0.486
			c0.67,0,1.179-0.127,1.527-0.382S81.609,26.882,81.609,26.471z"/>
		<path fill="#FFFFFF" d="M91.309,29.756c-1.611,0-2.918-0.507-3.919-1.522c-1.001-1.015-1.502-2.366-1.502-4.055v-0.313
			c0-1.131,0.219-2.141,0.654-3.03c0.436-0.889,1.048-1.581,1.837-2.077c0.788-0.495,1.667-0.742,2.637-0.742
			c1.542,0,2.732,0.491,3.573,1.475c0.841,0.984,1.262,2.376,1.262,4.176v1.025h-7.398c0.076,0.935,0.389,1.674,0.937,2.219
			c0.547,0.544,1.236,0.816,2.066,0.816c1.165,0,2.114-0.472,2.847-1.413l1.37,1.308c-0.453,0.677-1.059,1.202-1.815,1.575
			S92.25,29.756,91.309,29.756z M91.005,20.056c-0.697,0-1.261,0.244-1.689,0.732c-0.43,0.488-0.703,1.169-0.821,2.041h4.845v-0.188
			c-0.056-0.852-0.283-1.495-0.681-1.931C92.261,20.273,91.71,20.056,91.005,20.056z"/>
		<path fill="#FFFFFF" d="M104.169,26.471c0-0.454-0.187-0.799-0.56-1.036c-0.374-0.237-0.993-0.446-1.857-0.628
			c-0.865-0.182-1.588-0.412-2.166-0.69c-1.271-0.614-1.905-1.504-1.905-2.669c0-0.977,0.412-1.793,1.235-2.448
			c0.823-0.656,1.869-0.983,3.139-0.983c1.354,0,2.447,0.334,3.281,1.004c0.833,0.67,1.25,1.538,1.25,2.605h-2.543
			c0-0.488-0.181-0.895-0.544-1.219c-0.362-0.324-0.844-0.486-1.444-0.486c-0.558,0-1.013,0.129-1.365,0.387
			c-0.353,0.259-0.528,0.604-0.528,1.036c0,0.391,0.164,0.694,0.492,0.91c0.327,0.217,0.99,0.435,1.988,0.654
			c0.997,0.22,1.78,0.481,2.349,0.785c0.568,0.303,0.99,0.668,1.267,1.093c0.275,0.426,0.413,0.942,0.413,1.549
			c0,1.019-0.422,1.844-1.267,2.476c-0.844,0.631-1.949,0.946-3.316,0.946c-0.929,0-1.755-0.167-2.48-0.502
			s-1.291-0.795-1.695-1.381c-0.404-0.587-0.606-1.218-0.606-1.895h2.47c0.034,0.6,0.261,1.062,0.68,1.387s0.974,0.486,1.664,0.486
			c0.67,0,1.179-0.127,1.527-0.382S104.169,26.882,104.169,26.471z"/>
	</g>
</g>
</svg>
