<?xml version="1.0" encoding="utf-8"?>
<!-- Generator: Adobe Illustrator 16.0.0, SVG Export Plug-In . SVG Version: 6.00 Build 0)  -->
<!DOCTYPE svg PUBLIC "-//W3C//DTD SVG 1.1//EN" "http://www.w3.org/Graphics/SVG/1.1/DTD/svg11.dtd">
<svg version="1.1" id="Layer_1" xmlns="http://www.w3.org/2000/svg" xmlns:xlink="http://www.w3.org/1999/xlink" x="0px" y="0px"
	 width="393.173px" height="132.265px" viewBox="0 0 393.173 132.265" enable-background="new 0 0 393.173 132.265"
	 xml:space="preserve">
<g>
	<path fill="#FFFFFF" d="M29.966,12.603v17.832h12.402v14.212H29.966v36.2c0,2.681,0.513,4.604,1.542,5.765
		c1.028,1.163,2.994,1.743,5.899,1.743c2.145,0,4.044-0.156,5.698-0.469v14.681c-3.799,1.162-7.709,1.743-11.731,1.743
		c-13.587,0-20.514-6.86-20.782-20.581V44.647H0V30.435h10.592V12.603H29.966z"/>
	<path fill="#FFFFFF" d="M72.065,38.345c5.139-6.167,11.597-9.251,19.374-9.251c15.731,0,23.708,9.14,23.933,27.418v46.457H95.997
		v-45.92c0-4.156-0.895-7.229-2.682-9.218c-1.788-1.988-4.759-2.983-8.916-2.983c-5.676,0-9.788,2.19-12.335,6.569v51.552H52.691V0
		h19.374V38.345z"/>
	<path fill="#FFFFFF" d="M163.37,104.31c-10.637,0-19.296-3.262-25.977-9.788c-6.682-6.524-10.022-15.217-10.022-26.077v-1.877
		c0-7.284,1.408-13.798,4.223-19.541c2.816-5.742,6.805-10.167,11.966-13.273c5.162-3.106,11.05-4.659,17.665-4.659
		c9.921,0,17.731,3.129,23.429,9.385c5.698,6.257,8.547,15.128,8.547,26.614v7.91h-46.188c0.625,4.738,2.514,8.537,5.665,11.396
		c3.151,2.861,7.139,4.291,11.966,4.291c7.463,0,13.295-2.704,17.497-8.112l9.519,10.659c-2.905,4.112-6.838,7.318-11.798,9.62
		C174.9,103.159,169.403,104.31,163.37,104.31z M161.157,44.714c-3.844,0-6.961,1.302-9.352,3.906
		c-2.391,2.604-3.922,6.33-4.592,11.178h26.949v-1.549c-0.09-4.309-1.252-7.642-3.486-9.999
		C168.441,45.892,165.269,44.714,161.157,44.714z"/>
	<path fill="#FFFFFF" d="M201.179,66.032c0-7.195,1.385-13.608,4.156-19.24c2.771-5.631,6.759-9.988,11.966-13.072
		c5.206-3.083,11.251-4.625,18.134-4.625c9.787,0,17.774,2.995,23.966,8.983c6.189,5.989,9.642,14.123,10.357,24.402l0.134,4.96
		c0,11.128-3.106,20.056-9.318,26.781c-6.212,6.727-14.547,10.089-25.005,10.089c-10.458,0-18.804-3.352-25.038-10.056
		c-6.235-6.704-9.352-15.821-9.352-27.351V66.032z M220.553,67.407c0,6.893,1.295,12.164,3.888,15.811
		c2.591,3.648,6.301,5.472,11.128,5.472c4.693,0,8.357-1.802,10.994-5.405c2.637-3.604,3.955-9.366,3.955-17.289
		c0-6.758-1.318-11.996-3.955-15.711c-2.637-3.714-6.347-5.572-11.128-5.572c-4.738,0-8.403,1.847-10.994,5.539
		C221.848,53.946,220.553,59.664,220.553,67.407z"/>
	<path fill="#FFFFFF" d="M322.583,48.602c-2.637-0.357-4.961-0.536-6.971-0.536c-7.33,0-12.135,2.48-14.414,7.441v47.462h-19.373
		V30.435h18.301l0.537,8.648c3.887-6.659,9.272-9.989,16.155-9.989c2.146,0,4.156,0.291,6.033,0.872L322.583,48.602z"/>
	<path fill="#FFFFFF" d="M358.984,75.551l13.407-45.116h20.782l-29.161,83.796l-1.609,3.821
		c-4.336,9.474-11.486,14.212-21.451,14.212c-2.816,0-5.677-0.425-8.582-1.274V116.31l2.95,0.067c3.664,0,6.402-0.559,8.212-1.676
		c1.811-1.118,3.229-2.973,4.258-5.564l2.279-5.966l-25.408-72.735h20.85L358.984,75.551z"/>
</g>
</svg>
